<?xml version="1.0" standalone="no"?>
<!DOCTYPE svg PUBLIC "-//W3C//DTD SVG 1.1//EN" "http://www.w3.org/Graphics/SVG/1.1/DTD/svg11.dtd" >
<svg xmlns="http://www.w3.org/2000/svg">
<metadata>
This is a custom SVG webfont generated by Font Squirrel.
Copyright   : Copyright C 19901992 ParaGraph International
</metadata>
<defs>
<font id="BetinaScriptRusBold" horiz-adv-x="0" >
<font-face units-per-em="2048" ascent="1638" descent="-410" />
<missing-glyph horiz-adv-x="719" />
<glyph unicode=" "  horiz-adv-x="719" />
<glyph unicode="&#x09;" horiz-adv-x="719" />
<glyph unicode="&#xa0;" horiz-adv-x="719" />
<glyph unicode="!" horiz-adv-x="465" d="M326 1557q67 0 67 -21q0 -22 -20 -80.5t-29.5 -95t-9.5 -90.5q0 -31 -6 -59q-11 -33 -21 -74q-6 -24 -16 -58.5t-13 -55t-3 -56.5v-94q-2 -52 -11.5 -70t-9.5 -88q0 -38 3.5 -49t12 -19.5t13 -30t4.5 -77.5q0 -32 -41 -61q-40 -29 -74 -29q-11 0 -42.5 53.5t-31.5 75.5 q0 7 14.5 20.5t14.5 24.5q0 16 -3 54t-5.5 80.5t-2.5 100.5q0 11 6 28q6 18 7 28q2 20 2 62t2 63q3 18 16 57q12 40 15 55q3 17 5 53q3 36 5 54q12 101 28 165t45.5 99t78.5 35zM211 68q30 0 55 -55t25 -110q0 -17 -21.5 -40t-60.5 -23q-64 0 -81.5 37t-17.5 90 q0 101 101 101z" />
<glyph unicode="&#x22;" horiz-adv-x="893" d="M297 1739q27 0 47 -24q21 -25 21 -52q0 -10 -19 -119q-18 -110 -18 -227v-70q0 -30 4 -134t4 -138q0 -52 -11 -79t-46 -27q-39 0 -66 53q-28 54 -28 129q0 18 1 56q1 39 1 59v77q1 33 4 100q2 68 2 101q0 11 -4 33.5t-4 34.5q0 116 19 172q20 55 93 55zM643 1757 q26 0 46 -23.5t20 -47.5q0 -11 -10 -58q-8 -27 -13 -112q-9 -109 -14.5 -147t-15 -83.5t-11.5 -89.5q-1 -17 -1 -51q-1 -34 -3 -51q-10 -77 -10 -90v-58q-6 -19 -23 -35t-34 -16q-31 0 -58.5 29.5t-27.5 62.5q0 66 2 97v51q0 97 35 262q14 81 14 131q0 19 -3 59t-3 62 q0 66 28.5 87t81.5 21z" />
<glyph unicode="#" horiz-adv-x="1112" d="M590 1389q24 0 39 -27q15 -26 15 -55q0 -46 -10.5 -76t-26 -55t-15.5 -31h10q17 2 47 2q24 0 40 -1l36 -4q21 -2 49 -5l24 123q12 60 40.5 93.5t89.5 33.5q23 0 38 -26q16 -26 16 -54q0 -11 -21 -57q-11 -26 -22 -64.5t-15 -48.5q46 0 61 -1t23 -1q9 0 26 2q18 2 27 2 q22 0 43 -17t21 -36q0 -50 -36.5 -70.5t-91.5 -24.5q-54 -4 -120 -8q-17 -42 -21 -65t-24 -74q22 2 65 2q19 0 50.5 -7t48.5 -7q9 0 27 2t28 2q22 0 42 -17q20 -16 20 -36q0 -31 -25 -61t-56 -30q-19 0 -52 3.5t-54 3.5q-23 0 -58.5 -3.5t-54.5 -3.5q-4 0 -14 1.5t-18 1.5 q-10 -47 -19 -94q-9 -46 -22 -84q-13 -37 -34 -62t-52 -25q-28 0 -47 33t-19 68q0 19 15 79.5t24 79.5h-174l-12 -101q-7 -52 -18 -92q-10 -40 -29.5 -62.5t-51.5 -22.5q-25 0 -45 31q-20 32 -20 65q0 68 32 192h-75q-77 0 -115.5 17.5t-38.5 71.5q0 27 18.5 51.5t43.5 24.5 q13 0 59 -5h141q11 63 31 138q-35 0 -63.5 -3.5t-49.5 -3.5q-131 0 -131 93q0 25 18.5 49t43.5 24q3 0 74 -4t159 -4q15 33 37 109q23 76 47 103q25 28 82 28zM482 844q59 -8 110 -8q44 0 78 6l29 70l21 46q10 22 14 29q-111 13 -207 13q-29 -74 -45 -156z" />
<glyph unicode="$" horiz-adv-x="1563" d="M848 1542q37 0 67 -20.5t30 -48.5q0 -25 -29 -101q-29 -75 -47 -145q56 17 74 20q0 21 7 33t9 23v37q5 32 73 32q25 0 42.5 -19t17.5 -44q0 -18 -10 -35q36 0 58.5 3t66.5 10q44 8 66 11t50 3q79 0 133 -30.5t54 -66.5q0 -41 -33.5 -69.5t-95.5 -28.5q-14 0 -37 14 q-22 13 -35 13t-53.5 -5t-98.5 -5q-49 0 -108 -5q-37 -85 -69 -268q31 -13 99 -55.5t129 -92.5t79 -87q7 -16 14.5 -44.5t12.5 -43.5q3 -12 25 -55.5t22 -67.5q0 -50 -20 -121q-19 -72 -73.5 -154.5t-158.5 -153.5t-262 -106v-9q0 -14 4 -42q4 -27 4 -41q0 -65 -28 -117 q-27 -53 -67 -53q-29 0 -56 12t-27 33q0 24 22 91q23 67 23 138q-41 11 -120 27q-2 -7 -1 -13q0 -2 -1 -6t-1 -6q0 -19 17 -42t25 -43q9 -20 9 -71q0 -61 -40 -91q-40 -29 -94 -29q-81 0 -81 100q0 18 3 48q3 31 3 44q0 19 3.5 36.5t11.5 48t12 48.5q-55 0 -186 67t-236 149 t-105 129q0 55 37 100t75 45q19 0 53 -34.5t34 -59.5q0 -5 -2 -12q-2 -6 -2 -11q0 -26 72 -80.5t269 -138.5q23 119 37 154l25 58q10 23 22 112q14 115 38 209q30 115 39 155l-121 44q-52 19 -86.5 46.5t-34.5 73.5q0 69 92.5 137.5t229.5 104.5q4 90 10 177t31.5 136 t88.5 49zM705 1039q-11 -6 -44.5 -22t-48.5 -27.5t-15 -24.5q0 -15 9 -22t31 -14q23 -7 35 -13q28 67 33 123zM625 41q31 0 92 -4q20 93 25 305q1 71 4 104q4 33 18 112.5t27 168.5q-20 3 -39 13q-53 -240 -82 -397t-37 -219t-8 -83zM787 887q19 -5 53 -12q14 62 25 93 q12 30 37 130q-19 8 -35 8q-24 0 -33 -21q-8 -21 -19 -86t-28 -112zM877 51q110 40 173 92t90 107q26 56 36 119v86q-14 57 -88 127t-146 96q-9 -47 -27.5 -118t-26.5 -117t-9 -121q0 -33 2 -86q2 -54 2 -82q0 -44 -6 -103z" />
<glyph unicode="%" horiz-adv-x="1542" d="M342 1268q45 27 66 31h55q119 -11 212 -49q94 -38 108 -148v-70q-16 -203 -122.5 -262t-213.5 -59q-85 0 -157.5 88t-72.5 256q0 134 125 213zM416 1137q-8 -6 -20 -23q-13 -16 -13 -26q0 -59 23.5 -109t54 -80t49.5 -30q23 0 63 41t46 69v33q0 10 2 29t2 28q0 26 -37 51 q-36 26 -94 27h-43q-25 -4 -33 -10zM729 682q91 79 189 174l192 185q93 90 154.5 134t105.5 44q16 0 32 -9q15 -8 15 -22q0 -94 -171.5 -277.5t-368.5 -340.5q-118 -95 -202 -182l-197 -210q-113 -124 -168 -169.5t-101 -45.5q-29 0 -51 25q-23 26 -23 65q0 21 33 74 t166 190t395 365zM905 430q24 45 76 81q53 37 116.5 58t117.5 21q86 0 141.5 -47t78.5 -106.5t23 -100.5q0 -40 -7.5 -90.5t-33.5 -105t-79.5 -92.5t-139.5 -38q-128 0 -201 62q-72 62 -97 135.5t-25 120.5q0 40 30 102zM1041 357q-4 -11 -4 -31q0 -26 24.5 -62.5t61.5 -63 t69 -26.5q66 0 84.5 19t18.5 59l1 11q1 12 1 30v39q-20 46 -36 66q-15 19 -39 26q-23 6 -69 6q-32 0 -68 -26t-44 -47z" />
<glyph unicode="&#x26;" horiz-adv-x="1184" d="M559 682q44 -78 73 -123l81 -120l92 -134q114 63 141 210h-4q-26 0 -70 -8.5t-69 -8.5q-100 0 -100 88q0 44 17 58t50 16q33 0 49 -2h86q62 0 91 4l38 10q30 9 50 11l45 -1q43 2 75 15.5t78.5 38t65.5 24.5q18 0 29.5 -21t11.5 -53q0 -54 -75 -101q-74 -48 -202 -63 q-10 -122 -55 -193q-44 -72 -162 -163q51 -24 56.5 -33t7.5 -51v-43q-9 -58 -78 -58q-36 0 -52 5t-30 22t-45 63q-120 -57 -221 -57q-28 0 -137 14l-83 14q-42 8 -64 25.5t-48 58.5q-25 40 -82 143q-29 54 -29 118q0 107 65.5 212t180.5 165q-31 103 -31 152t25 107t72 100 q48 41 112 41q55 0 103 -30t76 -82.5t28 -115.5q0 -147 -162 -254zM400 617q-69 -35 -103.5 -93.5t-34.5 -121.5q0 -141 87.5 -183.5t185.5 -42.5q34 0 121 50q-47 82 -70 111.5t-50.5 61.5t-54.5 73q-26 41 -81 145zM492 824q71 57 71 133q0 29 -11.5 44t-24.5 15 q-17 0 -38.5 -30t-21.5 -91q0 -38 25 -71z" />
<glyph unicode="'" horiz-adv-x="396" d="M17 1739q26 0 46.5 -25t20.5 -53q0 -11 -10 -49q-5 -19 -7 -54.5t-3 -43.5q-2 -15 -7 -44q-6 -28 -6 -46t1 -51q1 -34 1 -52q0 -12 -1 -36q-1 -25 -1 -38q0 -30 3.5 -86.5t3.5 -95.5q0 -15 2 -48q2 -32 2 -48q0 -100 -64 -100q-38 0 -66 53q-29 54 -29 129q0 18 1 52 q1 33 1 63v77q1 177 9 289q0 6 3 69q2 62 9 86.5t28 38t63 13.5z" />
<glyph unicode="(" horiz-adv-x="606" d="M512 1372q32 0 60 -19t28 -54q0 -36 -40 -106l-105 -188q-66 -119 -106 -247.5t-40 -273.5q0 -70 13 -150q19 -123 35.5 -192.5t46.5 -131.5q10 -21 56 -93t46 -108q0 -75 -32 -107t-64 -32q-64 0 -125.5 123t-100 324.5t-38.5 413.5q0 140 60 343.5t146 350.5 q87 147 160 147z" />
<glyph unicode=")" horiz-adv-x="684" d="M133 -328q-30 0 -58 19.5t-28 56.5q0 28 17.5 58t64.5 90.5t83 115.5q37 53 73 123q106 204 106 451q0 130 -36 356q-13 80 -32.5 114.5t-46.5 57.5q-27 24 -38.5 52t-11.5 102q0 36 15.5 69t41.5 33q40 0 81 -19.5t85 -93t74 -236.5t30 -431q0 -146 -40 -307.5 t-106 -301.5t-139.5 -224.5t-134.5 -84.5z" />
<glyph unicode="*" horiz-adv-x="778" d="M385 578q-25 0 -43 34q-18 35 -18 89q0 29 5 59.5t7 69.5l-79 -50q-46 -28 -66 -37.5t-39 -9.5q-72 0 -72 93q0 28 21 45q21 18 72.5 45t78.5 49q-78 42 -111 70q-32 29 -32 79q0 18 18 34t37 16q25 0 49 -9t59 -27l78 -40q0 6 -4 29t-4 53q0 51 13.5 82.5t56.5 31.5 q36 0 54.5 -18.5t25 -46t9.5 -81t5 -69.5q10 4 45 22.5t55 18.5q115 0 115 -43q0 -55 -35.5 -82t-120.5 -59q25 -26 67.5 -64t58.5 -57.5t16 -38.5q0 -25 -23 -49q-22 -25 -53 -25q-26 0 -49 17q-22 16 -100 84q-2 -32 -6 -80q-3 -48 -11 -76t-27 -44q-19 -15 -53 -15z" />
<glyph unicode="+" horiz-adv-x="1114" d="M465 723q0 18 -2 76t-2 92q0 217 86 217q75 0 75 -123q0 -13 -1 -39q-1 -27 -1 -41q0 -114 2 -171q29 0 90 2q60 2 103 2q205 0 205 -84q0 -78 -121 -78q-14 0 -41 2t-41 2q-127 0 -182 -6q12 -168 12 -205q0 -98 -24 -144.5t-53 -46.5q-40 0 -60 36q-19 35 -24.5 86.5 t-6.5 140.5t-4 120q-11 0 -73 -4t-121 -4q-95 0 -142 23t-47 53q0 50 53 69t142 21z" />
<glyph unicode="," horiz-adv-x="363" d="M275 307q23 0 38 -25.5t15 -51.5q0 -21 -100 -259q-20 -48 -27.5 -71t-22 -81t-34.5 -128q-16 -55 -28 -189q-13 -133 -33 -199q-20 -65 -75 -65q-25 0 -45 31.5t-20 64.5q0 69 32 222q33 153 76.5 313t67.5 225q10 26 26 84q17 58 28 81t34 35.5t68 12.5z" />
<glyph unicode="-" horiz-adv-x="787" d="M359 500q85 10 163 10q73 0 105.5 -13t32.5 -56q0 -67 -86 -88q-85 -21 -211 -21h-56q-17 0 -48 -3q-30 -3 -46 -3q-88 0 -88 72q0 45 31.5 64.5t87.5 25.5z" />
<glyph unicode="." horiz-adv-x="342" d="M185 140q67 0 85.5 -25t18.5 -88q0 -89 -102 -89q-40 0 -78 33q-40 33 -40 64q0 27 31 66q29 39 85 39z" />
<glyph unicode="/" horiz-adv-x="1010" d="M862 1247l18 61q10 31 27 52t46 21q60 0 84 -5q24 -4 24 -22q0 -43 -26 -123t-112 -273.5t-249 -531.5q-72 -150 -155 -390q-83 -242 -123 -326q-39 -85 -95 -85q-32 0 -65 17t-33 42q0 83 63 233t183 400t155 341l23 62q10 28 22 55q13 27 37 67q41 63 62 129 q30 98 57 156l35 70q15 30 22 50z" />
<glyph unicode="0" horiz-adv-x="1143" d="M533 1268q75 0 109 -12.5t75 -50.5l129 -121q65 -56 90 -80q25 -23 61.5 -73.5t60.5 -123.5t24 -168q0 -109 -43 -215t-127 -234q-80 -120 -195 -180q-114 -60 -195 -60q-149 0 -250 49q-100 50 -154 172t-54 331q0 76 10 193q23 244 104.5 371.5t173.5 165.5 q92 36 181 36zM510 1106q-96 0 -150 -55t-76 -144q-23 -88 -38 -221q-8 -85 -8 -100q0 -43 18 -55q19 -11 28 -32q9 -20 9 -120q0 -17 -9 -47t-9 -47q0 -34 18.5 -69t57 -59t94.5 -24q160 0 247.5 78.5t135.5 169.5l61 110q31 59 31 126q0 101 -71 239q-27 50 -88.5 108.5 t-132 100t-118.5 41.5z" />
<glyph unicode="1" horiz-adv-x="1426" d="M1164 1256q20 0 41 -25t35 -75q14 -49 14 -117q0 -93 -6.5 -155.5t-24 -169.5t-26.5 -181q-27 -227 -35 -313t-8 -121q0 -10 15 -24.5t15 -23.5q0 -46 -49 -105t-90 -59q-36 0 -60 45.5t-24 116.5q0 36 20 102.5t25 92.5q4 17 9 59q9 93 22 157t18 103q13 76 13 162 q0 41 -4 98q-4 58 -4 76q1 60 14 117l12 55q0 4 -4 4q-19 0 -97 -52t-177 -134.5t-179 -167.5q-59 -62 -131 -128q-71 -66 -78 -73q-41 -38 -65 -73q-12 -17 -46 -72t-63 -84q-33 -33 -43 -60t-14 -61.5t-16 -45.5t-54 -11q-27 0 -50 10q-24 11 -24 29q0 96 108 267t410 425 l205 170q91 74 166 127.5t133.5 84t96.5 30.5z" />
<glyph unicode="2" horiz-adv-x="1188" d="M547 1221q123 0 196 -20t112.5 -83t39.5 -188q0 -73 -31 -125t-112 -127.5t-115 -112.5q-18 -19 -120 -107t-164 -150.5t-62 -92.5q0 -63 223 -63h45q36 0 135 30t166 54l73 28q40 15 84 27t75 12q63 0 63 -51q0 -80 -42.5 -114.5t-130.5 -51.5l-212 -39 q-79 -17 -151 -38.5t-104.5 -29.5t-73.5 -8q-86 0 -161 28q-76 30 -119.5 76t-43.5 95q0 64 46 138t110.5 142t156.5 154t119 115q172 187 172 262q0 14 -51.5 51t-69.5 37q-198 0 -344 -80q-72 -38 -125 -38q-29 1 -38 22t-9 70q0 36 55.5 70t128.5 59.5t123 36.5 q62 12 156 12z" />
<glyph unicode="3" horiz-adv-x="1362" d="M830 1352q100 0 165.5 -30.5t65.5 -137.5q0 -88 -30.5 -146t-65.5 -86t-80 -55q-14 -9 -58 -42t-44 -38q0 -4 8 -4q6 0 31 3t32 3h13q48 0 100 -16q121 -41 195 -81t117.5 -108t43.5 -175q0 -73 -25 -129t-61 -93.5t-97 -82t-77 -58.5q-30 -25 -59.5 -57.5t-67.5 -47 t-194 -57.5q-123 -33 -222 -33q-130 0 -216.5 52t-130.5 128t-60 146.5t-16 116.5q0 35 26 86t59 91t48 40q38 0 65 -31t27 -84q0 -29 -6 -51q-5 -23 -19 -68q-13 -45 -20 -81q-6 -37 -6 -80q0 -28 56 -54q57 -27 132 -45t111 -18q166 0 374 147q203 142 203 234 q0 67 -42 127.5t-118 97.5q-75 37 -170 39h-118q-94 0 -139.5 30t-45.5 68q0 39 29 66.5t89.5 61t76.5 44.5q186 135 186 187q0 28 -37.5 54t-70.5 26q-16 0 -29.5 -4t-40.5 -14q-26 -11 -33 -13q-22 -7 -64.5 -15t-49.5 -10q-233 -45 -242 -49q-19 -8 -59.5 -34.5t-66 -39 t-54.5 -12.5q-27 0 -51 20q-23 19 -23 42q0 53 52 94q53 40 132 67t138.5 40.5t212.5 45.5q97 23 221 23z" />
<glyph unicode="4" horiz-adv-x="1104" d="M801 1286q32 0 64 -23q33 -23 33 -50q0 -112 -107 -265q-27 -39 -35 -86l-19 -107q-10 -60 -44 -126q52 16 73 29q22 12 42 29q21 17 39 22.5t63 5.5q59 0 77.5 -31t18.5 -90q0 -18 -51 -33t-67 -26q-7 -5 -28 -23t-37 -25.5t-44 -7.5q-33 0 -46.5 -1.5t-24.5 -5.5 q-12 -3 -21 -5q-19 -3 -19 -18q0 -3 1 -9.5t1 -9.5q0 -12 -2 -29t-4.5 -30t-5.5 -31v-127q-2 -18 -2 -53q0 -12 18.5 -54t18.5 -75q0 -20 -18 -39t-38 -19q-47 0 -88 40.5t-65.5 102.5t-24.5 122q0 23 3.5 39t14 47.5t16 55t7.5 54.5q-37 -6 -70 -6q-131 0 -210.5 76.5 t-110.5 168t-31 136.5q0 27 23 80q22 54 26 82v86q2 37 28 100.5t56 63.5q34 0 81.5 -21t47.5 -53q0 -11 -14 -35t-14 -39q0 -12 1 -37q1 -24 1 -36q0 -34 -6.5 -47t-19 -25t-19.5 -30t-7 -58q0 -70 22 -126q22 -55 54 -85.5t58 -30.5q10 0 49 1t67 1q17 77 30 121t32 95 t28 81l32 110q19 66 43.5 129t56.5 106.5t67 43.5z" />
<glyph unicode="5" horiz-adv-x="1348" d="M733 1297q34 0 84 -3.5t78 -3.5q19 0 53.5 3.5t57.5 3.5q33 0 59 -7q35 -8 89 -12q55 -5 76 -9.5t34.5 -23.5t13.5 -63q0 -67 -43 -95t-98 -28q-40 0 -86 25t-82 37q-35 12 -125 12q-43 0 -70 -2l-270 -17q-39 0 -59 2q-28 5 -47 5q-146 0 -146 -261q0 -80 32.5 -123 t86 -58.5t125.5 -17.5t139 -3q168 -6 250 -13q82 -6 165 -33q82 -26 132.5 -86t50.5 -163q0 -70 -75.5 -163.5t-211.5 -161t-305 -67.5q-121 0 -193 11t-149 49q-101 48 -173.5 93t-72.5 89q0 56 20 85.5t54 29.5q32 0 62 -16q30 -15 120 -70q58 -35 94 -52t79.5 -26.5 t107.5 -9.5q63 0 170 38q108 37 188 91.5t80 103.5q0 115 -440 115q-164 0 -224 3q-60 2 -87 10t-43 27l-54 62l-41 43q-17 18 -28 41q-10 24 -16.5 68t-6.5 121q0 121 49.5 221t117 157.5t114.5 57.5q15 0 41.5 -19.5t40.5 -19.5q42 0 64 7t58.5 11.5t159.5 4.5z" />
<glyph unicode="6" horiz-adv-x="1043" d="M381 1397q34 0 61 -20q27 -19 27 -60q0 -37 -7.5 -52t-39 -64.5t-49.5 -100.5q-35 -95 -64.5 -240t-29.5 -295q0 -203 64 -281q65 -78 128 -85q43 0 115 37.5t125 92.5t53 105t-29.5 96t-72.5 46q-41 0 -82 -43q-18 -19 -41.5 -57.5t-40 -57t-43.5 -29.5q-20 -8 -43 -8 q-84 0 -84 84q0 66 58 134t137 113.5t131 45.5q68 0 135.5 -43.5t109 -113t41.5 -142.5q0 -77 -73.5 -182t-171 -181.5t-156.5 -76.5q-100 0 -194 29.5t-168 137.5t-74 320q0 97 4 166t11 121t24 158q22 137 45 180q2 5 15 28q13 24 19.5 38.5t8.5 31.5q6 75 30 121 q24 47 121 47z" />
<glyph unicode="7" horiz-adv-x="1301" d="M250 1368q13 0 37 -9t37 -9q10 0 29 4q20 4 32 4q74 0 125 -22t111 -58q25 -14 77 -23t91 -40q29 -23 50 -49.5t45.5 -64.5t39.5 -56q41 -49 41 -74q0 -11 -9.5 -29t-9.5 -34q0 -19 -12 -43q-8 -18 -8 -21h14q40 0 78.5 -6t50.5 -6q85 0 140 12q56 11 113.5 29t82.5 18 q56 0 72 -18t16 -62q0 -50 -25 -72.5t-100 -31.5q-74 -8 -239 -8h-95q-18 -2 -58 -12t-89 -19q0 -81 -5 -106t-31 -85.5t-52 -144.5q-2 -7 -15 -42q-12 -35 -18 -58t-6 -54q2 -20 21 -43q18 -22 18 -49q0 -73 -46 -128t-91 -55q-43 0 -76 43.5t-33 106.5q0 31 21 84t24 66 q5 21 10.5 62t11.5 61q5 15 14.5 37t14.5 39q6 17 10 51q4 35 9 51q6 19 27 60q22 41 32 96q-69 -7 -129 -25q-49 -12 -79 -16t-68 -6t-62 -4l-59 -9q-26 -5 -49 -6q-19 -2 -53 -2q-28 0 -52 -6q-15 -4 -58 -22.5t-71 -18.5q-37 0 -72 18.5t-35 49.5q0 45 36 84q36 40 85 64 t79 24q8 0 22 -20q14 -19 23 -19q116 0 364 43q98 12 143 12q46 0 70 -2q6 52 6 92q0 79 -25.5 123t-83.5 70t-172 53q-53 12 -171 23t-169 28t-51 66q0 48 46.5 81t107.5 33z" />
<glyph unicode="8" horiz-adv-x="1071" d="M684 1405q85 0 170.5 -31.5t85.5 -109.5t-43 -142t-138 -152.5t-124 -119.5q108 -123 146 -184q37 -60 40 -105q0 -36 6 -50t29 -29q3 -3 13.5 -10.5t15.5 -12.5q16 -21 16 -104q7 -54 7 -95q0 -128 -57 -202.5t-159 -74.5q-66 0 -153 37q-19 9 -58 17q-39 9 -61 18 q-20 10 -39 24l-49 32q-65 36 -99 62.5t-65 95.5t-31 188q0 80 38 143.5t89 126.5q56 68 99 97q28 13 57 41q-29 54 -72 118q-42 63 -59 97q-16 33 -16 71q0 39 16 73.5t42 54.5t54 20q15 0 39.5 -9t38.5 -10h12q22 59 85 92t124 33zM699 1239q-42 0 -57.5 -18.5 t-24.5 -55.5q-9 -36 -21 -54q-12 -17 -47 -17q-9 0 -21.5 7t-21.5 9q-6 0 -18 4q-9 0 -11 -4q-2 -2 -2 -8v-27q5 -26 56 -100q68 36 149.5 109t81.5 110q0 20 -18.5 32.5t-44.5 12.5zM502 733q-42 -27 -90 -84.5t-80.5 -118.5t-32.5 -104q0 -57 48.5 -119t124 -102.5 t149.5 -40.5q59 0 101 17t42 79q0 57 -45 153t-108 187q-62 91 -109 133z" />
<glyph unicode="9" horiz-adv-x="985" d="M473 1358q190 0 261 -98.5t71 -239.5q0 -50 -14 -153q-39 -237 -39 -324q0 -32 6 -93.5t6 -96.5q0 -23 -10 -62t-10 -59q0 -36 7 -63t23.5 -72t24.5 -77.5t8 -70.5q0 -31 -28 -50q-28 -18 -76 -18q-52 0 -69 27t-17 82q0 9 1 46t1 71q-1 19 -1 33q-1 15 -2 28 q-1 14 -3 23q-3 7 -19 30t-16 37q0 9 7 68t7 147q0 78 -4 117q-16 73 -16 82q0 11 4 22t16 33t17 33q-12 -10 -57 -56t-71 -67q-25 -21 -57 -35q-31 -14 -71 -14q-99 0 -179 61.5t-80 221.5q0 190 65 299t151 148.5t163 39.5zM447 1196q-150 0 -183 -297v-80q2 -42 13 -58 q10 -15 53 -15q62 0 88 18q25 19 58.5 71t68.5 85q80 73 80 119q0 29 -26 67t-68 64q-41 26 -84 26z" />
<glyph unicode=":" horiz-adv-x="488" d="M228 148q44 0 74 -31q30 -30 30 -88q0 -54 -39 -72.5t-74 -18.5q-100 0 -100 130q0 26 35.5 53t73.5 27zM332 717q69 0 85.5 -27.5t16.5 -93.5q0 -28 -26 -54t-72 -26q-50 0 -79 28.5t-29 66.5q0 39 25 72.5t79 33.5z" />
<glyph unicode=";" horiz-adv-x="432" d="M275 307q23 0 38 -25.5t15 -51.5q0 -21 -100 -259q-20 -48 -27.5 -71t-22 -81t-34.5 -128q-16 -55 -28 -189q-13 -133 -33 -199q-20 -65 -75 -65q-25 0 -45 31.5t-20 64.5q0 30 17.5 137t44 230.5t55.5 218.5l50 191q25 90 62.5 143t102.5 53zM303 727q59 0 77 -29.5 t18 -93.5q0 -25 -12 -57.5t-44 -32.5q-52 0 -108 25q-55 25 -55 74q0 34 39 74t85 40z" />
<glyph unicode="&#x3c;" />
<glyph unicode="=" horiz-adv-x="1121" d="M592 586q68 2 205 2h53q87 0 131.5 -15t44.5 -67q0 -76 -121 -76q-14 0 -41 2t-40 2h-80q-115 -2 -205 -20q-131 -21 -252 -21q-106 0 -147 24t-41 52q0 53 77.5 75t187.5 28zM590 881q172 16 203 16h57q82 0 128 -15t46 -65q0 -77 -119 -77h-84q-64 -1 -113 -12 t-104 -11q-24 0 -74 1t-75 1q-35 0 -90.5 -5t-83.5 -5q-86 0 -137.5 22t-51.5 56q0 56 72.5 74t204.5 18h127q65 0 94 2z" />
<glyph unicode="&#x3e;" />
<glyph unicode="?" horiz-adv-x="709" d="M322 1559q13 0 36 -9q22 -8 31 -10h97q64 -8 95 -66q32 -59 32 -130q0 -45 -15 -78q-6 -14 -27 -38t-28 -36q-10 -15 -21.5 -51t-25.5 -51q-28 -27 -74 -75.5t-77.5 -103.5t-31.5 -118q0 -40 27 -81.5t68.5 -68t81.5 -26.5q15 0 45 5q31 5 47 5q14 0 28.5 -9.5 t14.5 -21.5q0 -49 -40 -97t-118 -48q-65 0 -141 48q-76 49 -128 123q-51 75 -51 146q0 112 169 355q27 39 64 85t50 65q14 20 19 42v43q-14 41 -76 41h-41q-37 -2 -61 -11t-51.5 -25.5t-43.5 -23t-43 -6.5q-22 0 -44 12t-22 29q0 31 30 75q31 45 89 77q57 33 136 33z M541 209q27 0 64.5 -31t37.5 -51q0 -17 -25 -55t-56.5 -69.5t-49.5 -31.5q-41 0 -57 29v53q0 3 1 7t1 6q0 8 -6 24.5t-6 24.5q0 24 36 59t60 35z" />
<glyph unicode="@" />
<glyph unicode="A" horiz-adv-x="1184" d="M635 1364q18 0 52 -14t46 -17q13 -4 41 -4q11 0 31 1q21 1 29 1q30 0 43 -10q15 -13 18 -94q2 -81 19 -156q11 -44 15 -123t18 -94q13 -12 48 -20t52 -20t17 -52q0 -32 -30.5 -60.5t-68.5 -43.5q5 -86 31 -179q2 -5 17 -54.5t20 -80.5q4 -18 8 -55q8 -37 19 -53 q5 -10 34 -43.5t29 -55.5q0 -39 -27 -99.5t-51 -60.5q-85 0 -114 61.5t-41 181t-29 157.5l-16 32q-13 26 -19 48.5t-6 50.5q0 9 3 24.5t3 24.5q0 15 -9 17h-14h-78q-55 -12 -78 -34t-40.5 -36t-86.5 -18q-50 -4 -80 -11.5t-60.5 -42.5t-41.5 -110v-103q-2 -36 -12 -64 t-28 -64t-29 -62q-5 -11 -17.5 -62t-27.5 -76.5t-41 -25.5q-61 0 -96.5 19t-35.5 87q0 49 32 125t44 123q29 125 29 160q0 11 -14.5 28.5t-14.5 28.5q0 7 -2 24t-2 28q0 69 86 98q55 21 109 110q53 90 110 361q26 121 67 190t79 93t61 24zM699 1159q-39 0 -68.5 -57.5 t-51.5 -135.5l-36 -136q-6 -20 -21.5 -35t-35.5 -70q-4 -8 -8 -18q-3 -10 -17 -39q136 27 200 52q65 25 120 67q-5 38 -19.5 118t-15.5 113q-1 20 -1 43q0 22 -4 45q-3 23 -13 38t-29 15z" />
<glyph unicode="B" horiz-adv-x="1202" d="M600 1555q25 0 46 -20q22 -19 22 -42q0 -82 -14 -129q122 -31 167.5 -50t56.5 -45q11 -25 11 -89q0 -77 -40 -130t-91 -84q-52 -30 -105 -53t-53 -30q0 -31 77 -70l196 -100q119 -61 194 -146q74 -84 74 -206q0 -92 -65 -212t-193 -207.5t-305 -87.5q-147 0 -266 49 t-184.5 119.5t-65.5 125.5q0 11 12.5 30.5t15.5 28.5q4 16 4 23q0 8 -2 31.5t-2 41.5q7 26 52 92.5t63 75.5q18 11 37 11q18 0 39 -11q35 -18 45 -59v-39q-4 -19 -15.5 -34.5t-31 -37.5t-28.5 -37t-9 -32q0 -79 56 -146t214 -67q86 0 192 51.5t181 128.5q74 78 74 149 q0 64 -25 104t-64 64t-122.5 66t-138.5 78q-7 -29 -7 -58q0 -10 2 -26t2 -33q0 -33 -4 -61q-10 -93 -10 -160q0 -13 25 -34q24 -20 24 -34q0 -33 -11 -80q-12 -46 -34 -61q-17 -10 -41 -10q-21 0 -45 10q-47 24 -47 74q0 9 7 24q7 16 7 23q0 9 -22 30l-22 20q-9 9 -15 17 t-6 17q0 33 6 47t19 24t20 25q6 16 6 55q0 55 -6 94.5t-6 61.5q0 37 8 98q-125 92 -125 135q0 34 34 76t95 74q4 112 14 213q-59 6 -92 6q-41 0 -98 -7t-90 -10h-144q-40 0 -56 -8t-32 -23t-33 -15q-49 0 -100 26.5t-51 63.5q0 53 80.5 93t261.5 40q26 0 68 -6q43 -6 65 -6 q72 0 104 7q33 7 70 7q41 0 70 -2q0 2 7.5 52.5t15.5 71.5t26.5 32.5t50.5 11.5zM623 1220q-6 -75 -17 -163q47 8 85 37q38 30 38 61q0 65 -106 65z" />
<glyph unicode="C" horiz-adv-x="1092" d="M637 1260q75 0 142 -63t102 -218q7 -27 7 -45q0 -84 -101 -84q-47 0 -61 24.5t-17 70.5t-10 61q-28 49 -72 49q-58 0 -132 -74t-130 -189t-68 -229q0 -66 37.5 -142.5t95.5 -127.5q59 -51 117 -51q36 0 121.5 48t118.5 85q13 15 29 46t38 42.5t78 11.5q10 0 29 1 q20 1 28 1q52 0 52 -36q0 -22 -10 -48q-19 -47 -118.5 -129t-209.5 -147.5t-154 -65.5q-65 0 -166 52t-178.5 158.5t-77.5 260.5q0 8 1 21q1 14 1 20q13 168 63 288q50 121 144 216q57 57 151 125t150 68z" />
<glyph unicode="D" horiz-adv-x="1737" d="M664 1340q118 0 204 -3t159 -14t151 -36q77 -24 155 -64q51 -26 117 -76t125.5 -146t59.5 -227q0 -75 -22 -153q-49 -171 -81.5 -247t-142.5 -183t-336 -233q-87 -47 -182 -78q-96 -30 -172 -30q-103 0 -169 23t-100 56t-63 85q-28 50 -33 56q-7 9 -16.5 18t-15 17 t-5.5 16q0 13 9.5 41.5t9.5 46.5q0 28 -3.5 68t-3.5 61q0 30 4.5 86t4.5 92q0 39 -8.5 106t-8.5 101q0 40 4.5 78.5t15.5 120.5l27 205q-220 -20 -256 -33q-29 -11 -71.5 -32t-71.5 -31.5t-62 -10.5q-21 0 -37 21.5t-16 44.5q0 118 271 180q322 74 559 74zM547 1157 q-12 -32 -22 -76.5t-17.5 -118t-12.5 -203.5t-5 -302q0 -51 16 -55h14q13 2 31 22q18 21 33 21q61 0 92 -20t31 -75q0 -23 -14 -41t-49 -53t-50 -57q-9 -14 -30 -39q-20 -25 -26 -34q-5 -10 -5 -19q0 -28 37 -55q38 -27 114 -27q183 0 443 170q71 48 107 75q37 27 90 87 q54 60 92 147t38 195q0 128 -41 210.5t-104 125.5q-63 44 -150 73q-85 29 -177 47t-212 18q-112 0 -223 -16z" />
<glyph unicode="E" horiz-adv-x="1266" d="M1077 1432q22 0 42 -13.5t20 -29.5q0 -44 -29 -87t-67 -50h-107q-462 -78 -549 -160q-6 -6 -27 -31q-22 -24 -42 -37q-19 -12 -43 -12q-35 0 -61 39q-27 40 -27 84q0 41 17 57t41.5 18t44.5 3q14 2 29 10t45 26l89 56q78 47 112 47q8 0 21 -3q13 -2 18 -3q27 0 35 4 q9 4 49 29q23 14 97 26t161 19q86 8 131 8zM211 975q9 0 44.5 -31.5t35.5 -46.5t-12.5 -51t-20.5 -65q14 1 41 2q26 1 39 2q74 4 113 4q23 1 72 4.5t79 6.5t54 5q45 6 94 6q24 0 39 2q20 2 29 8t17 16q7 11 17 16t33 5q16 0 50 -5.5t36 -6.5h68q69 -11 69 -41q0 -32 -64 -96 t-89 -64q-7 0 -18.5 4.5t-18.5 4.5q-36 0 -67 -11q-32 -10 -92.5 -17t-215.5 -7q-13 0 -36.5 2t-35.5 2q-20 0 -53 -20q-33 -19 -49 -19q-25 0 -47 9t-39 9q-13 0 -41 -6q-2 -14 -2 -45q0 -137 95 -236.5t323 -99.5q108 0 190 17t150 44l109 44q42 18 71 18q17 0 30 -23 t13 -46q0 -77 -89.5 -131.5t-218.5 -82.5q-129 -27 -243 -27q-216 0 -350 72t-194 210t-60 342q0 92 24 166.5t58.5 115.5t62.5 41z" />
<glyph unicode="F" horiz-adv-x="1614" d="M1460 1364q64 0 93.5 -6t45 -32t15.5 -87q0 -17 -17 -29t-43.5 -18.5t-54.5 -10.5q-28 -3 -43 -5q-2 -1 -55 -13.5t-91.5 -19t-100.5 -8.5q-125 -4 -189 -12q-75 -9 -153 -17q-74 -4 -215 -20q-79 -381 -80 -381q0 -2 2.5 -3.5t7.5 -1.5q4 0 8 -1h66q41 6 135 39 q94 34 172 53q119 30 235 30q105 0 182.5 -27t116.5 -69.5t39 -87.5q0 -31 -40.5 -55.5t-71.5 -24.5q-16 0 -29 7t-36.5 24t-39.5 25q-15 8 -33 8q-87 0 -389 -49q-141 -23 -207 -45q-60 -20 -110 -29q0 -60 -4 -88q-3 -28 -9 -52q-6 -23 -6 -36q0 -11 8.5 -31t8.5 -31 q0 -15 -17 -104q-4 -21 -4 -59q0 -34 4 -103q3 -51 11.5 -71t23.5 -29.5t22 -20.5t7 -47q0 -48 -31.5 -85.5t-89.5 -37.5q-44 0 -84 40.5t-49 86.5v125q-12 78 -12 109q0 9 15 23t15 24q0 31 -2 47q-6 37 -6 70q0 37 6 77l8 61q7 45 7 75q0 14 -4 59q-70 -23 -129 -23 q-10 0 -29.5 1t-28.5 1h-108q-57 3 -80 19q-23 17 -23 65q0 72 23.5 96.5t95.5 24.5q19 0 50 -7q31 -9 46 -9q131 0 189 10q24 231 34 301.5t25 112.5q-74 -8 -242 -8q-88 0 -146 40t-58 113q0 72 90 72q19 0 52 -3t44 -3q35 0 224.5 -15.5t248.5 -15.5q105 0 282.5 11.5 t252.5 33.5q161 47 249 47z" />
<glyph unicode="G" horiz-adv-x="1321" d="M123 428l-41 103q0 24 13 54t14 32q8 24 8 75q2 53 16 100t38.5 94.5t57.5 98.5l83 129q43 69 74.5 105t56.5 52t68 34l57 24q112 54 210 54q93 0 155.5 -44t92 -102t29.5 -98q0 -44 -33 -74.5t-67 -30.5q-55 0 -99 82q-23 43 -39 65.5t-39 22.5q-82 0 -130 -24t-126 -92 q-76 -69 -137 -172t-94 -202q-33 -98 -33 -161q0 -91 42 -184q41 -92 149 -92q54 0 129.5 49t135.5 102l110 101q12 11 70 70.5t82.5 77.5t49.5 18q41 0 70 -11.5t50.5 -55t21.5 -132.5q0 -147 17 -220t41 -120t24 -72q0 -27 -18 -54.5t-42 -27.5q-84 0 -128.5 25t-58.5 68 q-13 43 -13 112q0 21 1 68q1 48 1 73q0 39 -3 58q-4 41 -10 41q-4 0 -26 -27q-125 -156 -233 -236q-107 -80 -257 -80q-99 0 -163 37t-98 90t-50 105z" />
<glyph unicode="H" horiz-adv-x="1325" d="M277 1299q80 0 101 -71q21 -70 21 -165q0 -10 -11 -26t-11 -25q0 -12 4 -37t4 -39q0 -25 -8.5 -70.5t-10.5 -74.5q0 -7 -1 -19t-1 -18q-1 -10 -2 -31q-1 -22 -2 -33q297 0 596 101q4 54 12 148q9 93 9 136v103q7 38 32.5 72t59.5 34q53 0 70.5 -20.5t17.5 -56.5 q0 -8 -1 -23.5t-1 -22.5q0 -15 -4 -43t-4 -43q0 -16 4 -49.5t4 -48.5q0 -20 -18.5 -62t-18.5 -57q0 -6 7 -6q9 0 40.5 21.5t49.5 21.5q69 0 69 -98q0 -54 -13.5 -67t-63.5 -24q-51 -10 -95 -34q0 -53 14.5 -72t14.5 -75q0 -45 -10 -65t-10 -103v-127q-3 -21 -3 -54 q0 -59 8.5 -80t21.5 -36t13 -33q0 -22 -46 -56.5t-62 -34.5q-17 0 -57 37q-39 37 -39 56q0 15 20 84q4 14 4 39q0 26 -4 39q-14 64 -14 78q0 10 7 30t7 33q0 26 -8 75q-8 50 -8 109q0 21 4 99q-113 -38 -294 -68q-180 -31 -263 -31q-11 0 -30 3t-25 3q-5 0 -7 -5.5t-3 -15 t-1 -13.5v-60q0 -23 5 -31t18 -12q14 -4 18 -6q23 -9 56 -63q34 -54 34 -80q0 -265 -116 -265q-55 0 -87 31.5t-44 77.5t-15 107q-3 60 -4 90q-2 56 -11 125q-9 70 -22 96q-8 17 -25 31q-7 5 -21 12t-22 13t-8 14q0 34 16 55t40.5 39.5t29.5 25.5q10 17 14 138v102v154 q0 11 -2 30l-2 39q-2 20 -2 31q0 53 28 85q26 32 57 32z" />
<glyph unicode="I" horiz-adv-x="518" d="M266 1239q69 0 84 -24t15 -97v-194q-3 -105 -12 -218.5t-9 -209.5q0 -36 3 -107t3 -108q0 -35 3 -53q3 -28 14 -50q6 -11 19.5 -27.5t20.5 -28t7 -23.5q0 -44 -33 -85q-32 -43 -94 -43q-51 0 -80.5 99.5t-38.5 202.5v139q3 49 12 168t9 174q0 20 -2 62t-2 63q0 15 6 43 q6 29 6 43q0 67 -12 143q0 19 -5 45q0 21 5 31q9 22 32 38.5t49 16.5z" />
<glyph unicode="J" horiz-adv-x="830" d="M484 1501q66 0 96.5 -59.5t46.5 -164.5l43 -281q9 -49 12 -158q2 -109 2 -418q0 -147 -42.5 -282t-120 -239t-180.5 -163q-104 -58 -222 -58q-94 0 -199 45q-105 46 -175.5 112.5t-70.5 123.5q0 53 43.5 121t97.5 68q64 0 64 -76q0 -11 -1 -31t-1 -28q1 -66 55.5 -106 t170.5 -40q110 0 170 26q61 25 91 68t77 138q53 110 72 171q18 62 18 173q0 154 -41 508q-19 163 -33 236t-32 123.5t-23 70.5q-11 48 -11 57q0 17 11 35q19 28 82 28z" />
<glyph unicode="K" horiz-adv-x="1139" d="M319 723l7 -6q42 50 51 65.5t16 25.5q6 11 48 57q71 78 107 98.5t101 47.5t86 64q3 5 16 36t29 50t48 31q38 17 67 17q25 0 25 -17q0 -8 30.5 -44t30.5 -66q0 -51 -80 -113q-26 -20 -58.5 -48t-57.5 -47t-68 -46q-32 -20 -94 -54.5t-87 -54.5q-59 -48 -96 -106 q-4 -9 -4 -21q0 -23 72 -61l168 -95q75 -42 157 -69q83 -27 185 -27q49 0 140.5 13.5t129.5 13.5q113 0 113 -96q0 -72 -81 -97q-82 -24 -216 -24q-32 0 -85 1q-54 1 -73 1q-60 0 -137 23t-156 59.5t-141 72.5q-114 67 -156 117.5t-47 71.5l4 -12q9 -24 12 -54.5t4 -38.5 q7 -30 23 -47t43 -32q28 -16 40.5 -26.5t12.5 -29.5q0 -27 -13 -70.5t-37.5 -76.5t-53.5 -33q-41 0 -78 18t-69.5 95.5t-32.5 232.5q0 14 3 42.5t3 43.5q0 31 -11 51q-1 5 -8.5 16.5t-7.5 18.5q0 23 14 105q5 16 5 47q0 20 -2.5 49.5t-2.5 44.5q0 37 10.5 109t10.5 112 q0 23 -7 70.5t-7 72.5q0 67 23.5 100.5t50.5 33.5q114 0 114 -242q0 -113 -1.5 -136.5t-14.5 -88.5q-17 -81 -17 -148z" />
<glyph unicode="L" horiz-adv-x="1143" d="M355 1286q47 0 77.5 -37t30.5 -77q0 -20 -30.5 -48t-34.5 -34q-9 -13 -17 -41l-2 -15l-2 -15l-2 -15q-9 -69 -37 -187q-37 -162 -37 -290q0 -217 95 -280q95 -62 245 -62q97 0 143 7q47 6 104.5 27.5t62.5 22.5l77 24q33 10 60.5 20.5t56.5 27.5q6 3 40 29t55 37 q22 11 48 11q127 0 127 -36q0 -51 -17.5 -83t-48.5 -52t-70 -35l-93 -35q-42 -17 -111.5 -55.5t-118 -59.5t-126.5 -36q-78 -14 -195 -14q-137 0 -237 43q-99 43 -160.5 119.5t-90 177.5t-28.5 220q0 125 29 260q8 36 28 156.5t37.5 183t51.5 102t90 39.5z" />
<glyph unicode="M" horiz-adv-x="1624" d="M1209 1182q75 0 123 -39q47 -38 70 -86t54 -133q6 -18 26.5 -66t26.5 -80q7 -32 7 -88q0 -65 -4 -108q-4 -49 -4 -66q0 -68 26 -147l28 -78q11 -32 17 -58.5t6 -56.5q0 -26 -12 -50.5t-31 -24.5q-85 0 -147 72q-62 73 -62 300q0 26 2.5 73.5t2.5 82.5q0 38 -19 126 q-19 89 -49.5 158.5t-65.5 69.5q-41 0 -83 -48t-107 -152q-64 -104 -84 -131q-37 -53 -82 -186q-46 -132 -78.5 -192.5t-91.5 -60.5q-68 0 -91.5 39t-30.5 149t-11 142l-17 152q-8 77 -18 133q-10 57 -22 57q-15 0 -49 -45.5t-64 -134.5q-77 -226 -77 -326q0 -62 14 -109.5 t14 -136.5q0 -54 -24 -90.5t-52 -36.5q-79 0 -103 50t-24 147q0 248 25.5 423.5t122.5 289.5l48 56l51 55.5t53 49t38 19.5q115 0 160 -71t55 -142q3 -19 22 -84t19 -117q0 -12 -1 -35q-1 -24 -1 -32q0 -19 4 -19q3 0 8 8q11 21 15 56q12 70 135.5 238t191.5 223 q73 61 140 61z" />
<glyph unicode="N" horiz-adv-x="1499" d="M1125 1055q32 0 47.5 -24t21 -60.5t8.5 -60.5q8 -49 105 -351q13 -36 46.5 -118.5t50 -134.5t16.5 -97q0 -78 -63 -145q-63 -69 -236 -69q-123 0 -233 44.5t-242 167.5q-132 124 -296 350q-22 -134 -22 -198q0 -98 14 -169q15 -71 15 -79q0 -25 -33.5 -74.5t-57.5 -49.5 q-63 0 -97 16t-34 65q0 74 28.5 324t57.5 378q-68 119 -77 146q-15 34 -15 67q0 42 23 67t53 25q26 0 56 -35.5t73 -110.5l86 -152q44 -76 94 -154q110 -169 223 -269q113 -99 202.5 -137.5t146.5 -38.5q150 0 150 23q0 6 -14 28q-14 23 -37.5 96.5t-55.5 227.5 q-31 154 -57 223l-30 72q-10 26 -17 48q-6 22 -6 46q0 72 28 92.5t78 20.5z" />
<glyph unicode="O" horiz-adv-x="1532" d="M692 1258q63 0 182 -41q120 -41 241 -110q122 -69 205 -158.5t83 -184.5q0 -75 -40 -173.5t-103.5 -190t-130.5 -150.5q-91 -80 -215 -134.5t-236 -54.5q-218 0 -381 122q-163 120 -213 460q-4 37 -4 47q0 35 10 46t30 16.5t30 17.5t10 49q0 10 -18.5 32.5t-18.5 35.5 q0 73 156 186q117 87 214 137q97 48 199 48zM672 1075q-78 0 -139 -38l-31 -22q-23 -18 -41.5 -28.5t-44.5 -15.5q-11 -2 -41.5 -5.5t-30.5 -10.5q0 -5 22.5 -27.5t22.5 -36.5q0 -13 -8.5 -27.5t-22.5 -30.5l-32 -38q-49 -57 -49 -152q0 -34 2 -53q13 -134 75.5 -216 t148.5 -114q85 -34 175 -34q80 0 176 47q97 47 182 125q86 78 138.5 172t52.5 186q0 79 -105 152q-106 74 -243 120.5t-207 46.5z" />
<glyph unicode="P" horiz-adv-x="1131" d="M561 1336q60 0 130 -9.5t139 -28t112 -42.5q84 -45 136.5 -123.5t52.5 -155.5q0 -135 -108.5 -286t-272.5 -252t-318 -101q7 -91 18 -147q10 -55 25 -124t15 -90q0 -16 -18 -29.5t-38 -13.5q-76 0 -114 54t-49 143t-11 230v127q0 27 -1 86t-1 88q0 149 21.5 233t83.5 84 q35 0 73.5 -33.5t38.5 -68.5q0 -12 -10.5 -37t-15.5 -53q-8 -62 -8 -170q0 -9 -1 -24t-1 -21q0 -29 11.5 -42.5t47.5 -13.5q49 0 125 41.5t154.5 110.5t129 144.5t50.5 140.5q0 105 -102 152.5t-267 47.5q-308 0 -371 -53q-23 -20 -37 -55q-15 -34 -27 -83.5t-19.5 -69 t-20.5 -19.5q-42 0 -67 9t-38 40q-8 22 -8 45q0 39 39 117q32 65 53.5 99.5t74.5 70.5q52 37 147.5 59.5t246.5 22.5z" />
<glyph unicode="Q" horiz-adv-x="1366" d="M424 912q1 94 40 182q40 88 107 142q68 54 148 54q117 0 225 -114q63 -66 92 -100q30 -34 67 -99q38 -65 61.5 -154t23.5 -204q0 -66 -11 -138t-32.5 -148t-52.5 -149q-32 -72 -74 -141q5 -20 18 -34.5t25 -14.5q10 0 28 7q19 7 29 7q76 0 76 -107q0 -60 -37 -96t-80 -36 q-30 0 -54.5 16.5t-64 59t-40.5 44.5q-76 -90 -152 -133q-77 -42 -182 -42q-98 0 -179.5 44.5t-141.5 123.5q-59 78 -91 179q-32 99 -32 208q0 286 83.5 433.5t200.5 209.5zM758 1116q-56 0 -93 -35.5t-60 -91t-37 -116.5l-25 -117q-19 -85 -38 -124.5t-71 -39.5 q-21 4 -31 17q-11 14 -20 14q-15 0 -41 -111.5t-26 -154.5q0 -133 42 -240.5t108 -168.5q65 -59 128 -59q101 0 156 61t55 163q0 17 -8 30q-9 14 -31 39t-37.5 49.5t-31.5 61.5q-8 19 -36 71.5t-43.5 92t-15.5 74.5q0 6 9 6t35 -7t32 -8h43q30 -7 100 -112q25 -37 37 -53 q6 -7 25 -27q11 -17 16.5 -41.5t10.5 -24.5q16 0 46 43t53 121t23 183q0 89 -42.5 211t-107 208t-124.5 86z" />
<glyph unicode="R" horiz-adv-x="1243" d="M201 1000q-14 13 -47 38t-33 39q0 55 95.5 82.5t203 35t189.5 7.5h81q166 0 269.5 -46.5t103.5 -200.5q0 -95 -78 -187.5t-174 -160t-157 -97.5q-27 -13 -65.5 -26.5t-66.5 -26t-77 -43.5q147 -74 270 -74q116 0 249.5 42.5t196.5 92.5q14 11 57 53q44 43 76.5 67 t61.5 24q22 0 39.5 -23.5t17.5 -48.5q0 -61 -56 -121.5t-193 -148.5q-57 -37 -108.5 -58t-100.5 -31t-109 -14l-102 -8q-18 0 -54 -2t-53 -2q-47 0 -69 4q-64 11 -91.5 28t-69.5 55q-43 39 -87 63q-8 -111 -8 -172q0 -15 17 -36t21 -30q11 -20 11 -43q0 -20 -11 -44 q-13 -28 -42 -48q-29 -19 -56 -19q-26 0 -51 42q-26 43 -41.5 97t-15.5 85q0 16 13 48q13 33 13 50q0 13 -2 40t-2 42q0 23 6 68.5t6 68.5q0 13 -16 34t-16 34q0 54 16 210q17 156 39 261zM375 1041q-13 -109 -22 -154q-2 -9 -13 -52t-16 -67q-4 -25 -4 -49q0 -82 2 -190 q52 19 145 71q94 52 195 120.5t165 130t64 102.5q0 93 -158 93q-41 0 -102 -4h-164q-16 0 -46 -1h-46z" />
<glyph unicode="S" horiz-adv-x="920" d="M553 1360q124 0 212 -63.5t114 -153.5q8 -29 8 -51q0 -30 -11 -48t-29.5 -35.5t-22.5 -27.5q-4 -9 -5 -33q-1 -25 -7 -38t-25 -13q-142 0 -142 82q5 27 18.5 40t31.5 28q19 14 28 37v26q-10 32 -53 55t-109 23q-20 0 -25 -6.5t-5 -34.5q0 -30 9 -58.5t23.5 -54t52.5 -80 t42 -59.5q91 -136 141.5 -273t50.5 -210q0 -77 -39.5 -177.5t-148 -180t-299.5 -79.5q-116 0 -198 58t-123 140q-42 83 -42 153q0 54 35.5 138t96.5 146t137 62q114 0 114 -102q0 -36 -18.5 -47t-64 -23t-62.5 -31q-14 -13 -37 -70q-23 -56 -23 -85q0 -108 83 -143.5 t169 -35.5q53 0 69 9t20 28t12 27q5 5 32.5 15t48.5 28q22 18 37 61q16 42 16 115q0 68 -20 113t-75 134.5t-88 166.5q-27 61 -63.5 125t-52.5 104t-30 119q0 38 25 81t74.5 71t117.5 28z" />
<glyph unicode="T" horiz-adv-x="1196" d="M514 1305q39 0 51 -17t19.5 -47t21.5 -30q12 0 84 24t158 41q75 16 157 36t116 27q35 7 71 7q18 0 51 -2t50 -2q7 0 20.5 14t22.5 14q55 0 91 -26.5t36 -79.5q0 -66 -76 -66q-10 0 -28 1q-17 1 -23 1q-27 0 -53 -4t-118 -22.5t-114 -22.5q-76 -13 -242 -53.5t-219 -52.5 q-6 -104 -6 -199q0 -76 6 -239t6 -293q0 -37 -3 -107q-3 -71 -3 -106v-103v-56q1 -16 3.5 -47.5t2.5 -46.5q0 -24 -23.5 -44.5t-50.5 -20.5q-58 0 -95.5 27t-37.5 122q0 39 10.5 133t10.5 214q0 12 -1 37q-1 26 -1 39q0 17 7 51t7 53q0 43 -2 129t-2 129q0 23 2.5 50t3.5 52 v185q-143 -27 -260 -27q-45 0 -71.5 13t-26.5 55q0 96 119 96h49q176 18 190 35q4 4 4 14q-1 5 -2 15t-2 16q0 53 22 68q21 16 68 16z" />
<glyph unicode="U" horiz-adv-x="1415" d="M250 1084q31 0 64.5 -31t33.5 -64q0 -39 -5.5 -52.5t-19.5 -30.5q-13 -18 -20.5 -46.5t-7.5 -89.5q0 -43 6 -116q2 -17 8 -132q6 -114 15 -182t32.5 -116t65.5 -48q32 0 75 33.5t68 75.5q20 32 47 92.5t44 87.5l23 35q15 23 21.5 34t14.5 29q18 45 23.5 78t27.5 82 q16 34 56.5 109t60.5 127q59 166 194 166q38 0 56 -93q6 -26 6 -75q0 -46 -6 -92q-8 -94 -8 -205q0 -117 8 -277q0 -33 1 -96t8.5 -102t27.5 -39q6 0 17 12t13 14q11 11 29 11q15 0 33 -11q37 -25 37 -49q0 -31 -22 -80q-23 -51 -52.5 -88t-50.5 -37q-64 0 -104.5 35 t-61.5 91t-34 130l-23 140q-5 22 -5 65q0 47 5 117v213q-41 -84 -117 -260q-78 -176 -128.5 -267.5t-116.5 -147t-157 -55.5q-128 0 -193 111.5t-82 248t-17 274.5q0 22 3 66q3 45 3 69q0 17 -3 48l-3 48q0 59 9 87q9 29 34 75t36 62t31 16z" />
<glyph unicode="V" horiz-adv-x="1151" d="M129 1231q64 0 86.5 -66.5t41.5 -212t44 -206.5q25 -59 70 -205q20 -64 48 -109t46 -94q2 -4 17 -50t25.5 -65.5t23.5 -19.5q9 0 17 16l28 54q35 76 41 87q5 12 11 21l15 25q28 44 47 127q18 73 38 124q20 52 77 173q47 100 86 195t53 125t31 44q16 15 45 15 q49 0 80 -18.5t31 -41.5q0 -52 -27 -95t-83 -114q-21 -28 -29 -53q-7 -25 -26 -102q-18 -77 -40 -140q-6 -19 -15 -37q-8 -18 -18 -35l-16 -28q-21 -35 -27.5 -58.5t-11.5 -59.5t-10 -56q-17 -63 -35.5 -98t-43 -65t-32.5 -44q-13 -22 -26.5 -73.5t-40.5 -72t-105 -20.5 q-75 0 -126.5 48.5t-80.5 114.5t-53 152q-24 87 -29 99q-4 11 -15.5 27t-23.5 40.5t-34 83.5q-37 102 -43 138q-2 9 -6 53t-13 65q-11 28 -29.5 90t-34.5 135q-16 74 -16 126q0 20 28 40.5t60 20.5z" />
<glyph unicode="W" horiz-adv-x="1366" d="M1000 191l10 4q23 8 23 69q0 23 -2 62l-7 96l-8 125q-5 68 -12 199q0 126 28 192q29 66 72 66q114 0 146 -49q12 -22 12 -35q0 -21 -30 -45t-36 -31q-20 -32 -20 -119q0 -65 8 -149q18 -169 18 -254q0 -355 -186 -357q-35 0 -68 27q-34 28 -65 68l-66 86q-77 96 -77 172 q0 9 1 18l1 8q-2 0 -9 -6q-10 -10 -36 -88.5t-58 -132.5t-86 -68q-21 -6 -43 -6q-86 0 -147 87t-96 209t-62 267q-6 36 -10 93q-3 56 -6 77q-3 13 -13 45q-10 33 -10 54q0 108 26 138t60 30q63 0 81 -52q17 -51 22 -168t18 -167q20 -81 37 -169q18 -89 26 -122t25 -68 q25 -51 57 -51q40 0 50 82q9 83 46 132q38 48 99 48q20 0 41 -6q61 -15 99 -61t59.5 -100t43 -102t44.5 -48z" />
<glyph unicode="X" horiz-adv-x="1307" d="M244 1481q63 0 95.5 -48t61 -139t46.5 -120q11 -19 40 -47t38 -45q12 -23 20.5 -72t11.5 -59q16 -49 144 -242q59 17 138.5 70t215.5 154q136 102 218 153t128 51q27 0 27 -68q0 -70 -111 -166t-196 -147q-16 -10 -52.5 -22t-53.5 -25q-11 -8 -25.5 -24t-20.5 -21 q-18 -18 -68 -49q-51 -30 -73 -45q32 -51 58 -99q27 -49 40 -69q17 -24 46.5 -55t49.5 -54.5t54 -75.5q31 -47 107 -117q77 -71 107 -105t30 -73q0 -41 -42 -70.5t-112 -29.5q-77 0 -92 19t-51 103.5t-103 145.5q-54 49 -90 106.5t-71 130.5q-34 73 -55 103q-20 29 -48 29 q-26 0 -46 -15.5t-43.5 -47.5t-29.5 -39q-16 -19 -33.5 -29.5t-72.5 -39t-101 -58.5q-43 -28 -98.5 -108.5t-84.5 -111.5q-29 -33 -79 -33q-40 0 -85 31q-44 30 -44 64q0 47 13 66t45 28q33 10 34 10q35 17 49 43.5t28 56t55 70t129 90.5q13 8 64 23.5t97 43t99 85.5 q-42 53 -57.5 82t-58.5 119.5t-108 206.5q-72 133 -79 159q-2 8 -9 40q-6 32 -16 46q-9 15 -42 42.5t-40 45.5v56q19 96 102 96z" />
<glyph unicode="Y" horiz-adv-x="1170" d="M629 776l92 199q15 32 56 126q42 93 73 146t71.5 85t90.5 32q24 0 46 -11.5t22 -29.5q0 -36 -22.5 -77.5t-84.5 -143.5q-61 -102 -77 -147q-6 -16 -16 -70q-11 -53 -27 -82q-3 -5 -22.5 -34t-28.5 -49t-9 -44q1 -2 10 -19t9 -32q0 -18 -13 -45q-1 -2 -22 -41.5t-29 -69.5 q-6 -43 -6 -125q0 -43 -8 -75q-4 -14 -16.5 -48.5t-12.5 -54.5q0 -18 10.5 -56t10.5 -61q0 -70 -140 -70q-25 0 -48.5 13t-23.5 31q0 76 4 117v104q0 33 3 53.5t13 60.5t16 74t11 97q-62 96 -156 224l-167 228q-73 100 -113.5 166t-40.5 100q0 25 24.5 43.5t59.5 18.5 q79 0 127 -90q63 -115 157.5 -244t176.5 -199z" />
<glyph unicode="Z" horiz-adv-x="1131" d="M484 1293q98 0 161 -50.5t91 -133t28 -183.5q0 -83 -14 -152q57 12 110 30q53 19 66 22q155 41 240 41q29 0 52 -4.5t27 -4.5q20 0 30.5 -23.5t10.5 -47.5q0 -30 -36 -64t-91 -58q-54 -24 -102 -26h-125q-26 -2 -59 -13l-64 -22l-86 -20q-6 -37 -6 -72q0 -68 19 -130.5 t47 -101.5q27 -38 49 -38q10 0 38 7q29 7 85 7q86 0 86 -90q0 -26 -30 -67t-70 -72t-64 -31q-37 0 -120 59t-114 99q-37 49 -68.5 145t-31.5 230q-19 -3 -40 -8t-32 -7q-7 0 -15 -1l-14 -2q-8 0 -15 -1t-15 -2q-46 -6 -59 -15l-30 -22q-18 -13 -69 -24q-19 -5 -42.5 -7 t-39.5 -6t-39 -18q-10 -8 -22 -16.5t-25 -15.5t-30.5 -14t-51.5 -17q-49 -15 -88 -15q-82 0 -82 80q0 78 18.5 100.5t78 26t82.5 8.5q30 7 106 47q72 38 117 49q37 9 92 12q54 2 96.5 10.5t120.5 43.5q14 74 14 137q0 14 -1 50q-1 37 -1 65q0 67 -14 91.5t-70 33.5h-65 q-33 -7 -96 -34.5t-109 -27.5q-26 0 -50 12.5t-24 32.5q0 39 14 64q14 26 38.5 44t72.5 41l80 38q68 31 150 31z" />
<glyph unicode="[" horiz-adv-x="748" d="M289 1204q0 14 -2 33t-2 31q0 69 36.5 86.5t104.5 17.5q15 0 42 -1q28 -1 40 -1q15 0 47 1q31 1 47 1h56q74 0 110 -24q31 -22 31 -94q0 -27 -38 -43.5t-93 -16.5q-18 0 -48 5t-36 5h-76q-34 -3 -47 -14q-12 -10 -12 -35q0 -7 1.5 -20t4.5 -27l6 -28q6 -38 6 -74 t-4.5 -74.5t-16.5 -110t-19.5 -125t-14.5 -131.5q-35 -383 -35 -501q0 -46 -4 -95q-4 -48 -4 -61q0 -37 17.5 -50.5t72.5 -13.5q72 0 131 6t78 6q33 0 49 -32.5t16 -65.5q0 -18 -48.5 -53t-71.5 -35q-10 0 -30 12q-19 10 -32 10q-21 0 -64.5 -5t-93.5 -5q-85 0 -127.5 13.5 t-57.5 44t-15 86.5q0 24 5 106t5 150q0 161 8 286.5t20 219t24 162.5l26 137q4 23 4 68q0 38 -4 116q0 47 2 72q1 11 3.5 29t2.5 32z" />
<glyph unicode="\" horiz-adv-x="1010" d="M402 1247q7 -20 25.5 -55.5t31.5 -64.5q30 -63 57 -156q21 -66 62 -129q22 -36 36 -66t26.5 -66t19.5 -52q32 -79 129 -282l140 -298q44 -93 88 -212.5t44 -181.5q0 -25 -33 -42t-65 -17q-38 0 -67 41q-28 40 -44 85q-15 45 -49 157t-59 168l-154 350q-34 73 -54 112 l-45 86l-79 159q-209 434 -209 571q0 27 68 27h43q29 0 45 -21t25 -52z" />
<glyph unicode="]" horiz-adv-x="750" d="M461 -160q0 -10 2 -31t2 -32q0 -71 -36.5 -89t-104.5 -18q-15 0 -42 1t-40 1q-15 0 -46 -1t-46 -1h-47q-81 0 -120 27q-32 26 -32 94q0 27 41 43q42 16 88 16q10 0 24 -1.5t31 -5t31 -5.5h78q33 5 45 16q12 13 12 35q0 8 -2 21t-4 23.5t-6 29.5q-6 35 -6 74 q0 48 22.5 185.5t32.5 254.5l17 188l10 118q5 65 7.5 109.5t2.5 86.5t5 95t5 65q0 35 -18.5 48t-75.5 13q-39 0 -113 -7t-96 -7q-31 0 -48 34.5t-17 63.5q0 17 46 53q47 35 74 35q11 0 30.5 -10t31.5 -10q17 0 61 5t97 5q84 0 127 -14.5t58 -46.5t15 -90q0 -24 -5 -107 t-5 -143q0 -77 -11 -215.5t-28.5 -296.5t-36.5 -293q-4 -41 -4 -59q0 -21 2 -62t2 -62q0 -49 -4 -74q0 -7 -2 -18l-2 -23q-2 -11 -2 -18z" />
<glyph unicode="^" />
<glyph unicode="_" />
<glyph unicode="`" />
<glyph unicode="a" horiz-adv-x="910" d="M387 781q39 0 62.5 -10t47.5 -32t34 -30q4 -4 18.5 -12.5t20.5 -18.5t6 -29q0 -32 6 -32t35 11t49 11q40 0 63 -74t23 -153q0 -13 -1 -37q-1 -25 -1 -37q0 -8 10 -30t10 -58v-49q18 -63 35 -88q4 -7 17.5 -18.5t19.5 -22t6 -31.5q0 -59 -9.5 -83t-47.5 -24q-24 0 -38 3 t-23.5 9t-21.5 18t-16 15q-37 39 -41 44q-4 6 -4 28q0 21 -12 41q-3 6 -5 13.5t-4.5 21t-2.5 15.5q-2 5 -10 21.5t-11 27.5v55v4v10q-4 4 -10 4q-2 0 -14 -6q-17 -8 -60 -8q-25 0 -31.5 -7t-19.5 -44q-10 -31 -24.5 -46t-50 -42t-66.5 -58q-37 -32 -60.5 -40.5t-62.5 -8.5 q-71 0 -116.5 52t-45.5 104q0 19 13 62t20 81q13 70 20.5 120t15.5 67t34 67q46 93 102.5 158.5t140.5 65.5zM377 606q-36 0 -55.5 -28t-38.5 -85t-31 -79q-17 -32 -27 -103t-10 -126q0 -9 2 -9q23 0 80 63.5t107 139.5q51 76 51 98q0 5 -10 31q-4 9 -13 47q-7 25 -24.5 38 t-30.5 13z" />
<glyph unicode="b" horiz-adv-x="916" d="M135 1485q61 0 76.5 -31.5t18.5 -89.5v-102q-1 -2 -14 -65q-14 -62 -19 -128q-4 -45 -5 -128q-2 -83 -3 -101q-2 -44 -10 -118.5t-9 -108.5v-31q0 -17 4 -17q1 0 29 46q53 80 184 135q102 44 182 71.5t135 41.5t72 14q43 0 62.5 -26.5t19.5 -65.5q0 -22 -16 -33 q-15 -11 -51 -21t-51 -16q51 -77 79.5 -140t28.5 -128q0 -88 -42.5 -202t-139.5 -199t-248 -85q-60 0 -137 34t-133 101q-56 68 -56 162q0 27 15 68q-48 16 -68 28t-29.5 35t-9.5 70q0 32 7.5 80.5t9.5 70.5q2 29 2 86q0 88 2 127q1 38 6 89t6 69l3 59q2 24 3 46q2 21 6 67 l13 90q5 33 8 62v65q-6 43 -6 82q0 17 23.5 27t51.5 10zM565 617q-33 -8 -55 -21.5t-52 -40.5l-73 -67q-42 -36 -85 -95q-44 -58 -44 -120q0 -49 40.5 -106.5t105.5 -57.5q54 0 122.5 31.5t119.5 107t51 195.5q0 35 -17 75q-18 41 -48 69.5t-65 29.5z" />
<glyph unicode="c" horiz-adv-x="828" d="M328 715h43q31 -5 59.5 -36t28.5 -77q0 -65 -90 -65q-13 0 -29.5 11t-21.5 11q-40 0 -50.5 -54.5t-15.5 -164.5q0 -64 25.5 -103.5t113.5 -39.5q127 0 275 141q14 13 39 45q26 31 47 39q15 6 31 6t28 -6q43 -20 43 -59q0 -27 -11.5 -48t-32.5 -43l-38 -38l-59 -63 q-30 -32 -71.5 -63.5t-98.5 -53t-127 -21.5q-145 0 -218 62t-92.5 135t-23.5 157v41q6 90 33 149.5t79 93t134 44.5z" />
<glyph unicode="d" horiz-adv-x="934" d="M885 1270q30 0 55 -22.5t25 -47.5q0 -16 -18.5 -45t-22.5 -37q-10 -22 -10 -59q-2 -51 -9.5 -73.5t-19.5 -41t-16 -34.5q-4 -13 -4 -41q0 -9 1 -29t1 -31q0 -16 -8 -59l-8 -32q-5 -19 -6 -26q-8 -34 -20 -106.5t-21 -106.5l-18 -63q-6 -20 -11 -48q-6 -27 -9 -61 q-3 -33 -3 -81q0 -47 15 -80t15 -49q0 -124 -62 -124q-44 0 -69.5 14t-36 38t-16.5 62q-7 39 -14 91v70q0 24 4 32l4 9q-5 0 -25 -24q-19 -24 -20 -25q-10 -11 -16 -22t-10.5 -24.5t-6.5 -17.5q-10 -19 -60 -54t-90 -73q-80 -78 -156 -78q-105 0 -143.5 51t-38.5 105 q0 131 52.5 274.5t129.5 238.5q78 95 146 95q74 0 99 -47.5t38 -122.5q2 -12 5.5 -47t7.5 -54t14 -19q6 0 13.5 23.5t17 38.5t22 30t18.5 24q35 50 84 224q18 59 25 98q7 40 10 91q2 52 2 58q5 49 13.5 70t24 42.5t22.5 37.5l16 46q7 20 25.5 31t62.5 11zM334 545 q-14 0 -54.5 -70t-56.5 -106q-7 -20 -19.5 -102.5t-12.5 -108.5q0 -9 6 -19t14 -10q23 0 55 29t56 79t24 109v56q2 5 13.5 20t11.5 25q0 19 -15 58.5t-22 39.5z" />
<glyph unicode="e" horiz-adv-x="809" d="M180 105q-83 -35 -110 -35q-34 0 -62.5 24t-28.5 74q0 45 12.5 54t48 11.5t59.5 18.5q-46 93 -46 234q0 76 30.5 139.5t77.5 100t91 36.5q174 -58 174 -258q0 -86 -28.5 -149t-96.5 -138q34 -34 111.5 -62t126.5 -28q81 0 125 19.5t90.5 55.5t79.5 46q10 4 28 4 q19 0 27 -4q43 -18 43 -45t-13 -49t-33 -39t-48 -34t-31 -19q-2 -2 -38 -25q-35 -24 -72 -38q-36 -15 -95 -23.5t-147 -8.5q-68 0 -152.5 38t-122.5 100zM223 332q15 49 26 67.5t11 30.5q0 34 -7 90t-17 56q-5 0 -16.5 -27t-18.5 -53v-62q8 -55 22 -102z" />
<glyph unicode="f" horiz-adv-x="873" d="M426 1413q27 0 63.5 -16.5t69 -43t47.5 -54.5q15 -25 40 -82q24 -56 24 -70q0 -63 -18.5 -120t-52.5 -91.5t-77 -34.5q-17 0 -31 18q-13 17 -13 36q0 21 15 54q16 32 16 89q0 10 -13 54q-12 44 -19 44q-13 0 -28 -22t-15 -60q2 -6 5 -12t4 -11q2 -6 2 -14q0 -22 -11 -57 q-14 -63 -14 -102q0 -14 2 -41t2 -43q0 -37 -4 -62q-2 -15 -5 -33q-4 -17 -5 -33q-2 -15 -2 -26q0 -13 6 -47q7 -35 10 -63q229 61 373 67h90q129 -9 152 -57q4 -8 4 -27q0 -16 -4 -26q-14 -37 -43 -46.5t-82 -9.5q-25 0 -72 4t-70 4q-81 0 -193 -17q-111 -17 -159 -46 q25 -170 29 -340q0 -30 2 -93q1 -63 2 -92q2 -41 8 -76q4 -36 10.5 -73.5t10.5 -65.5q6 -46 11.5 -132t9.5 -107q5 -29 38 -56q4 -2 14.5 -11t21.5 -24q10 -14 18 -38t8 -56q0 -29 -28 -68q-27 -40 -53 -40q-68 0 -108 56t-58.5 150.5t-25.5 222.5t-12 232q-8 149 -25 322 q-10 88 -20 236q-51 -10 -96 -34.5t-101 -63.5t-76 -50q-14 -8 -37 -8q-25 0 -41 8q-55 25 -55 111q0 48 57 81t189.5 72t157.5 48q0 71 -9 219q-10 154 -10 184q0 68 10 117l22 127q12 68 28 120t44 85.5t70 33.5z" />
<glyph unicode="g" horiz-adv-x="701" d="M385 674q79 0 120.5 -53t41.5 -125q0 -52 -17.5 -84.5t-50.5 -32.5q-73 0 -73 35q0 10 4 33t4 32q0 8 -14 13q-13 6 -23 6q-22 0 -75 -66q-54 -65 -54 -88q0 -37 61 -37q17 0 49 13.5t57.5 20.5t74.5 7q75 0 97 -49.5t22 -142.5q0 -61 -4 -96t-11 -73t-9 -61v-100v-49 q0 -191 -50 -339q-49 -148 -122 -234q-72 -86 -134 -105q-10 -2 -35 -2q-33 0 -49 2q-75 9 -118.5 18.5t-104.5 40.5q-60 31 -146 96q-20 15 -67 64t-84.5 98t-37.5 74q0 9 8.5 27t8.5 28q0 8 -4.5 22t-4.5 21q0 21 24.5 40t51.5 19q46 0 83.5 -18.5t37.5 -46.5 q0 -12 -11 -34q-11 -21 -11 -34q0 -37 72 -98.5t163.5 -110.5t139.5 -49q61 0 115 87.5t86 223.5t32 273q0 19 -2 56.5t-2 56.5q0 11 12.5 32t12.5 34q0 12 -5 37t-5 38q0 11 3 34t3 34q0 23 -27 23q-10 0 -24.5 -11.5t-20.5 -13.5q-9 -4 -19 -4q-11 -1 -26 -2 q-35 -4 -57.5 -14.5t-40.5 -10.5q-51 0 -97.5 40t-46.5 130q0 119 53.5 204t125.5 128t120 43z" />
<glyph unicode="h" horiz-adv-x="1311" d="M258 634v-104v-189v-166q0 -102 8 -102q1 0 23 47q12 27 34 57q23 30 23 31q12 19 34 72q23 54 40 82q14 22 41 54t37 49q74 119 131 184q56 66 127 66q52 0 73.5 -54.5t55.5 -185.5q34 -130 78 -196t131 -66q48 0 79 7q32 6 64.5 20t49 19t46.5 5q80 0 80 -106 q0 -46 -83.5 -82t-213.5 -36q-121 0 -206 60q-85 58 -123 142q-30 64 -43.5 115.5t-22.5 102t-14 50.5q-13 0 -65 -73q-51 -74 -103 -189q-80 -180 -161 -269.5t-148 -89.5q-44 0 -70.5 34.5t-38.5 90.5t-16 133l-8 134v223v315q-5 175 -15 256q0 13 -2.5 38.5t-3.5 37.5 q0 24 6 49q15 52 49 68q15 6 31 6q19 0 31 -7q30 -16 42.5 -76.5t15.5 -155.5q2 -95 7 -401z" />
<glyph unicode="i" horiz-adv-x="492" d="M301 617q66 0 80 -76v-78q-1 -22 -3.5 -45.5t-2.5 -42.5v-92q0 -177 -14.5 -243.5t-67.5 -66.5q-104 0 -104 44q0 47 8 112q4 27 6.5 60t5.5 69q1 4 3.5 23t2.5 33q0 26 -2 26t-29.5 -22.5t-56.5 -22.5q-32 0 -54 25t-22 67q0 20 13 35.5t40 38.5t42 39l48 54 q23 26 50 44.5t57 18.5zM338 946q25 0 65.5 -31t53.5 -57q10 -22 10 -41q0 -41 -42.5 -64.5t-88.5 -23.5q-34 0 -72 22.5t-38 49.5q0 48 33.5 96.5t78.5 48.5z" />
<glyph unicode="j" horiz-adv-x="463" d="M289 500q22 0 44 -14q22 -13 22 -31q0 -26 -21.5 -75t-27.5 -81v-94q0 -33 -27 -211t-35 -361v-88q2 -16 17.5 -27t15.5 -20q0 -69 -45 -115.5t-123 -46.5q-18 0 -31.5 82.5t-13.5 132.5q0 5 13 12l12 7q16 13 16 49q0 22 -4 63q0 76 21 158t22 94q2 19 2 53q0 12 -1 44 t-1 57l4 44q2 30 2 44q0 10 -3 31.5t-3 32.5q0 53 19 114q17 61 50.5 103.5t75.5 42.5zM209 1149q35 0 70.5 -38.5t58.5 -94t23 -98.5t-53 -65q-52 -21 -89 -21q-10 0 -18.5 37.5t-19.5 52.5q-8 9 -23 24.5t-24 29.5t-14 36v49q7 37 34 63q28 25 55 25z" />
<glyph unicode="k" horiz-adv-x="926" d="M340 1204q38 0 71 -29t33 -102q0 -124 -23.5 -190.5t-79.5 -167t-81 -188.5q12 -68 13 -148q0 -29 1 -61q1 -33 7.5 -52.5t25.5 -19.5q28 0 39 20t37 81q26 62 49 85q46 49 99 93.5t97 71.5q45 26 71 26q21 0 43 -30.5t22 -57.5t-20.5 -48t-63.5 -50q-43 -28 -51 -35 q-53 -44 -65.5 -64t-12.5 -65q0 -136 123 -136q118 0 231 101q45 39 109 39q20 0 34 -25q13 -24 13 -49q0 -22 -20.5 -43.5t-63.5 -54.5q-165 -130 -350 -130q-53 0 -122 37q-70 35 -93 97q-95 -64 -150 -64q-74 0 -103 56.5t-42 171.5q-2 24 -4 42q-1 18 -8 40 q-25 -11 -34.5 -23.5t-13.5 -27.5t-9.5 -21t-22.5 -6q-24 0 -55 11q-30 11 -30 30q0 35 29 85.5t89.5 131t64.5 86.5q12 100 12 215q5 104 38.5 188t80 132t86.5 48z" />
<glyph unicode="l" horiz-adv-x="424" d="M279 1377q98 0 98 -119q0 -25 -3 -50t-9.5 -69t-9.5 -70q-3 -20 -24 -203l-45 -392q-23 -208 -39.5 -371.5t-16.5 -190.5q0 -13 7 -37t7 -35q0 -36 -34 -52t-73 -16q-38 0 -72.5 67.5t-34.5 115.5q0 31 7 44t22.5 25t23 25t9.5 43q0 18 -1 31.5t-1 20.5q0 30 20 168 q17 104 29 212t21 206l17 203q9 106 13 142q4 37 4 58q0 24 -3 67t-3 62q0 57 19.5 86t71.5 29z" />
<glyph unicode="m" horiz-adv-x="1434" d="M154 510q46 0 70 -21t30 -49.5t6 -67.5t2 -48.5t8 -21t7 -27.5q4 -43 8 -43q3 0 7 7q5 7 15.5 26.5t20.5 35.5q19 31 38 54.5t35.5 37.5t35.5 28l38 28q6 4 37 28l47 35q16 10 41 20.5t47 10.5q19 0 27 -4q85 -31 110 -61.5t25 -71.5v-27q0 -22 6 -43l10 -20 q8 -15 11 -29q2 -9 3 -27t3 -18q12 0 53 56.5t92.5 100t130.5 56.5q37 4 43 4q124 0 132 -139v-66q0 -72 22 -102q6 -7 23.5 -22t25.5 -29q8 -13 8 -35q0 -21 -33 -56q-33 -37 -53 -37q-40 0 -63.5 11.5t-45.5 35.5q-23 22 -30 27l-34 20q-11 7 -17 20.5t-6 43.5q0 12 12 30 t12 26q0 7 -1 25t-1 32q0 6 2 19t2 18q0 8 -4 8q-8 0 -44.5 -42.5t-37.5 -43.5q-17 -17 -62.5 -72.5t-74.5 -79.5t-61 -24q-65 0 -97 31q-32 32 -40.5 73t-10.5 96t-8 66q-1 3 -15.5 18.5t-19.5 30.5q-3 7 -4.5 14.5t-4.5 11.5q-2 5 -7 5q-7 0 -13 -8t-14 -23 q-8 -14 -10 -16q-11 -12 -25 -21q-14 -8 -24 -24l-11 -16q-9 -13 -24 -29q-34 -42 -43 -58q-41 -70 -70 -108q-60 -80 -116 -80q-60 0 -88.5 29.5t-36.5 65.5t-23 132q-2 25 -3 39.5t-4 29t-11 38.5q-27 64 -27 110q0 76 72 76z" />
<glyph unicode="n" horiz-adv-x="975" d="M86 576q54 0 87 -47t38 -189v-65q-4 -30 -6 -49v-43q8 0 16 17.5t23 64.5q16 46 24 67t17 31q10 12 61.5 39t73.5 32q67 0 106 -40t78 -121l30 -70q13 -28 32.5 -44.5t56.5 -16.5q61 7 88.5 26t84 65t85.5 46q12 0 27 -6q49 -20 49 -70q0 -41 -37 -88.5t-114 -87 t-187 -56.5q-32 -4 -41 -4q-92 0 -135 57t-55 107q-42 138 -56 138q-50 -6 -71 -97q-31 -126 -73 -163.5t-101 -37.5q-55 0 -88 34.5t-33 88.5v52q-2 13 -9 36t-10 62v92q2 47 2 139q0 12 -4 33t-4 31q0 14 15 25q14 12 30 12z" />
<glyph unicode="o" horiz-adv-x="772" d="M371 740q48 -1 71 -8q24 -8 38.5 -20.5t89.5 -82.5q39 -37 63 -63.5t48 -78.5q25 -52 32 -128q0 -132 -64 -227.5t-152 -144.5t-155 -49q-76 0 -150 39.5t-102 151.5q-26 113 -26 260q13 69 43 147.5t96 140.5q66 63 168 63zM365 576q-31 0 -64 -33q-32 -34 -53.5 -85.5 t-21.5 -100.5q0 -35 12 -66l20 -34q17 -30 17 -48q0 -10 -5 -26.5t-5 -24.5q0 -19 21 -36t42 -17q52 0 116.5 41t101.5 153q8 29 8 45q0 56 -34.5 109.5t-79.5 87.5q-46 35 -75 35z" />
<glyph unicode="p" horiz-adv-x="858" d="M189 572q21 0 40.5 -11.5t28.5 -29.5q4 -11 4 -33q0 -16 -4 -53q-3 -19 -4 -41l-2 -43q-1 -5 -2 -14.5t-2 -14.5v-12q8 0 46 38l67 68l33 33q18 16 38 28t57 23t99 21q71 0 120.5 -34t73 -79.5t23.5 -77.5q0 -41 -19 -85q-18 -44 -44 -83l-43 -67l-23 -42 q-14 -23 -35 -41t-59 -32q-39 -13 -100 -19q-24 0 -90 24t-128 52q-42 -87 -55 -377v-158q0 -114 -30.5 -160.5t-53.5 -46.5q-31 0 -77 24.5t-46 49.5q0 5 3 18t3 19q0 26 -13 45q-12 18 -12 64q0 58 21 98.5t24 83.5v24q-4 54 -4 56q0 25 25 55q18 21 20 45t2 56q0 31 2 86 q3 55 10 134q7 80 7 110q0 21 -4 63q-4 43 -4 66q0 71 35 120q35 50 72 50zM350 187q15 -13 59.5 -29t69.5 -16q31 3 79 51q47 49 53 84v39q0 37 -33 37q-51 0 -69 -8t-42 -39q-24 -30 -54 -56q-45 -41 -63 -63z" />
<glyph unicode="q" horiz-adv-x="750" d="M445 133q-17 -22 -56 -67q-40 -44 -93.5 -91t-88.5 -47q-57 0 -101 38q-44 39 -44 124q0 65 20 174t62 223.5t106.5 191.5t149.5 77q60 0 119 -43.5t96 -111t37 -134.5q0 -31 -17 -78t-26.5 -90t-9.5 -133q0 -154 20 -317t39 -251q8 -31 23.5 -81t21.5 -78t6 -58 q0 -84 -105 -84q-77 0 -77 72q0 6 1 22q1 17 1 29q0 7 -3 17t-8 21l-7 20q-7 20 -17 98q-1 12 -5 40.5t-5 41.5q-3 32 -6 68.5t-8 64.5q-4 23 -11 58t-10 54q-6 50 -6 116q0 54 -1 86q-2 32 -3 43q0 -2 6 -15zM400 592q-17 0 -42.5 -28.5t-54.5 -104.5q-28 -76 -50 -207 q-8 -48 -19.5 -79t-11.5 -46q0 -6 4 -6q9 0 31.5 29t53.5 73l35 50q118 159 118 211q0 31 -24 70q-23 38 -40 38z" />
<glyph unicode="r" horiz-adv-x="662" d="M453 787q11 0 29 -13t24 -16t45.5 -15.5t55.5 -31.5t16 -66q0 -39 -24 -50q-23 -11 -83 -11q-15 0 -37 17q-23 18 -32 18q-17 0 -36 -36q-20 -35 -30 -118l1 -82v-96q-2 -11 -6.5 -27t-6.5 -24q-2 -19 -2 -56q0 -51 2 -77v-29q0 -73 -57 -95q-9 -4 -29 -4q-21 0 -31 4 q-29 10 -47 30q-18 18 -18 38q0 27 6 73t6 79q0 9 -12.5 25.5t-12.5 25.5q0 10 4.5 27t4.5 28q-2 17 -26 42.5t-34 43.5q-5 10 -10.5 22.5t-10.5 20t-18 17.5l-18 12q-11 7 -18 15t-7 20q0 98 88 98q50 0 109 -67q9 24 13 51t7 35q23 56 43 89.5t35 45.5t31 14.5t33 5.5 q6 2 24 9.5t29 7.5z" />
<glyph unicode="s" horiz-adv-x="692" d="M369 824q24 2 78 2q89 0 147 -59t58 -140q0 -30 -11 -55q-10 -25 -28 -25q-59 0 -82.5 14.5t-28.5 65.5q-4 45 -66 45q-44 0 -50 -14v-15q3 -18 16 -38t42.5 -57t35.5 -44q50 -65 89.5 -159t39.5 -150t-28.5 -127.5t-105.5 -128t-213 -56.5q-82 0 -142 42t-90 104 t-30 113q2 68 46 142q45 75 104 75q48 0 79 -23t31 -57q0 -9 -4 -21q-8 -29 -21 -42q-12 -13 -31 -24.5t-27.5 -23.5t-8.5 -37q0 -92 137 -92q132 0 132 160q0 21 -5.5 40.5t-13 35.5t-16.5 31l-18 30q-22 39 -74 118t-73.5 129t-21.5 112q0 42 42 79.5t112 49.5z" />
<glyph unicode="t" horiz-adv-x="903" d="M29 787q8 0 15 -6t16 -16.5t14 -14.5q8 -6 53 -31q33 -21 56 -37q24 -16 61 -26q38 -11 106 -13q21 156 21 400q0 25 -3 78t-3 83q0 76 13.5 107t64.5 31q90 0 90 -88q0 -12 -2.5 -38.5t-3.5 -35.5v-137q0 -93 -6.5 -210t-17.5 -192q35 1 61.5 6t47.5 12l63 21 q58 20 73 26t43 22q28 17 117 75q27 20 49.5 52t34.5 42q11 11 45 11q25 0 47 -24t22 -50q0 -68 -99.5 -153t-240.5 -144q-140 -60 -250 -60q-28 0 -41 2q-4 -59 -16 -145.5t-20 -150.5q-10 -64 -16.5 -126t-6.5 -117q0 -19 2.5 -51t2.5 -55q0 -62 -95 -62q-35 0 -69 47.5 t-34 86.5q0 21 14.5 37.5t18.5 39.5q2 11 4.5 42.5t5.5 64.5q11 79 27 158q27 136 39 234q-82 14 -140.5 25t-106.5 33t-114 75q-53 42 -53 84q0 36 38 62t73 26z" />
<glyph unicode="u" horiz-adv-x="1272" d="M250 813q91 0 115 -110t24 -256q0 -291 11 -291q18 0 72 66q55 67 108 182l51 118q32 73 73 126t89 53q63 0 85 -41t37 -146.5t27 -152.5l23 -99q13 -55 33 -99t47 -48h14q33 4 61 26q29 22 65 58q37 35 50 43q22 12 49 12q25 0 39 -12q23 -18 23 -74q0 -20 -22.5 -43 t-88.5 -78q-125 -100 -166 -100q-136 0 -189 108t-83 254q-2 10 -12.5 38t-10.5 69q0 59 -6 59q-11 0 -60.5 -124.5t-74.5 -161.5q-73 -108 -133 -162q-59 -56 -137 -56q-119 0 -119 142v100q-1 46 -3 93t-3 100q-2 53 -2 112v54q0 16 -6 41.5t-15 25.5q-18 0 -34 -11 t-43.5 -38t-48.5 -40t-46 -13q-24 0 -52 18q-28 19 -28 43q0 32 14.5 51t47.5 41t45 33l38 39q23 22 57 36.5t85 14.5z" />
<glyph unicode="v" horiz-adv-x="791" d="M119 729q54 0 70.5 -38t27.5 -126.5t29 -130.5q18 -41 25 -67.5t11 -44.5t19 -49q18 -37 29 -67t16 -30q10 0 18.5 13t16.5 35q8 23 10 30v60q2 12 8 21t15 20t16 22q8 12 13 24t11 29l9 27q26 70 68.5 109.5t70.5 39.5q15 0 30 -8t31 -21l21 -16q3 -2 31.5 -16.5 t41.5 -32t13 -51.5q0 -70 -100 -70q-11 0 -21 13.5t-18 13.5q-10 0 -21 -11t-14 -26v-55q-3 -13 -18.5 -29.5t-20.5 -25.5q-6 -11 -7 -28q-2 -16 -5 -36q-10 -51 -37 -92q-28 -43 -41 -85q-13 -44 -28.5 -54.5t-79.5 -10.5q-39 0 -83 34q-43 34 -73 84t-31 91q0 52 -4 58 q-2 4 -7 8t-11 10q-17 17 -32.5 64.5t-20.5 78.5q-1 3 -17.5 75t-27.5 126.5t-11 77.5q0 19 24 38t54 19z" />
<glyph unicode="w" horiz-adv-x="1170" d="M228 711q22 0 42.5 -14.5t20.5 -30.5q0 -15 -14 -47q-15 -31 -27 -74q-11 -44 -18 -129v-100q6 -170 30 -170q36 0 91 143l23 65q10 28 24 52.5t34 38.5t50 14q41 0 62 -11.5t32 -32.5t26 -68q16 -48 29 -81q43 -108 109 -108q46 0 82 39t36 141q0 26 -5 76q-5 51 -5 76 q0 91 24 147.5t107 104.5q31 18 90 41.5t93 23.5q102 0 102 -100q0 -19 -21 -27q-20 -9 -73 -24t-80 -31q-82 -47 -82 -94q0 -62 4 -95q2 -18 2 -53q0 -53 -2 -80q-11 -191 -103 -253.5t-198 -62.5q-30 0 -58 16q-27 14 -48.5 34.5t-49 55.5t-28.5 36q-41 53 -41 94 q-4 0 -16 -26t-15 -37q-12 -54 -16.5 -61t-11 -13.5t-14.5 -12.5l-19 -15l-36 -40q-17 -20 -40 -33.5t-56 -13.5q-122 0 -160 144.5t-38 294.5q0 18 8 47q8 30 9 45v55q6 54 48 104t97 50z" />
<glyph unicode="x" horiz-adv-x="774" d="M37 824q47 0 73.5 -18t54.5 -64q29 -45 38 -58l72 -87q40 -48 73 -97.5t33 -77.5v-4q25 0 50.5 16.5t68.5 52.5t65 52t46 20q5 1 24.5 3t32.5 6q7 2 23.5 14t27.5 12q30 0 55 -18.5t25 -55.5q0 -45 -37 -74.5t-86 -44.5l-71 -22q-137 -48 -137 -78q0 -24 49 -88l57 -76 q50 -66 55 -73q20 -27 25.5 -38.5t8.5 -26.5q3 -14 7 -24l13 -28q10 -18 15 -32t5 -30q0 -46 -70 -68q-18 -6 -39 -6q-16 0 -35 6q-17 7 -25.5 15.5t-12.5 19t-6 23.5q-3 14 -5 26q-7 41 -19.5 63t-48.5 73q-36 49 -59 92l-16 32q-7 14 -14.5 25.5t-18.5 24.5 q-29 -8 -77 -48.5t-79 -76.5q-22 -26 -37.5 -60t-28.5 -44.5t-54 -10.5q-33 0 -52 35q-18 34 -18 70q0 24 40.5 81t95.5 112q17 17 48.5 25t49.5 22q4 3 12 11t10 9q3 2 5 4q3 1 4 2q-32 48 -40 64.5t-24 40.5q-6 9 -22 29l-27 34q-10 14 -23.5 35.5t-15.5 24.5 q-11 15 -46 53t-55 66.5t-20 54.5q0 38 16 59t41 21z" />
<glyph unicode="y" horiz-adv-x="772" d="M402 746q20 0 43 -21q22 -20 22 -39q0 -22 -9.5 -42t-39.5 -71q-29 -51 -47 -89q-53 -123 -53 -129q0 -5 8 -5q42 0 115 46q33 20 86.5 78t80.5 82q28 24 66 24q49 0 49 -105q0 -11 -1 -29t-1 -24q0 -17 -3 -51q-3 -33 -3 -51q0 -25 5 -77t5 -79q0 -74 -8 -170 q-9 -95 -25 -193q-16 -97 -36 -181q-20 -83 -41 -134q-61 -145 -129 -214t-170 -69q-56 0 -121.5 28t-118.5 77.5t-72 109.5q-11 33 -33 57q-24 24 -35 52q-4 10 -16 65q-6 27 -22 40t-21 19q-4 7 -4 44q0 46 16 81t45 35q39 0 85.5 -33t46.5 -92q0 -12 -1 -35t-1 -34t6 -20 q7 -9 19 -20l18 -18q12 -15 39 -63q72 -129 155 -129q49 0 103.5 51.5t94 142t44.5 199.5q4 74 15 201q12 128 12 185q0 18 -3.5 46.5t-3.5 43.5q0 6 4.5 18t4.5 21q0 14 -7 14q-14 0 -35 -20.5t-30 -26.5q-14 -10 -41.5 -13t-28.5 -3q-13 -4 -34 -14.5t-41 -15.5t-60 -5 q-63 0 -107 35t-44 71q0 26 13.5 59.5t41 91.5t27.5 70h-5q-10 -1 -20 -6.5t-27 -13.5q-8 -4 -18.5 -7t-20.5 -5q-2 -1 -22 -12t-31 -11q-39 0 -66 29q-29 29 -29 59q0 24 28 40t79 33q52 17 64 23q134 64 173.5 81.5t70.5 17.5z" />
<glyph unicode="z" horiz-adv-x="764" d="M336 754q67 0 99 -21q33 -21 55 -81q10 -29 10 -52q0 -17 -9 -36t-9 -31q0 -5 2 -17q2 -11 2 -18q0 -28 -9 -50q-10 -21 -10 -26q0 -6 -2 -14q13 5 71 34q58 30 94.5 45t57.5 15q27 0 51.5 -26.5t24.5 -55.5q0 -53 -123 -94q-37 -14 -47 -21q-5 -3 -18 -15t-22.5 -18 t-18.5 -6q-7 0 -21 4q-13 3 -24 3q-13 0 -22 -10.5t-27 -16.5l8 -93q4 -44 20 -50h10q15 2 55.5 10t59.5 8q27 0 42 -44q16 -44 16 -87q0 -30 -86 -48q-85 -18 -142 -18q-29 0 -58 43q-30 44 -50.5 100.5t-20.5 84.5q0 4 2 11t2 9l-7 13q-7 13 -7 36q-20 -8 -33 -8 q-17 0 -54 5.5t-52 11.5l-66 29q-46 21 -63 34t-17 29q0 45 24 87t60 42q23 0 40.5 -10t41.5 -30t42 -30q19 -10 42 -10q26 0 55 14q0 25 -2 39q0 13 4 33q2 7 8 19t9 22q4 9 4 18q0 6 -2 17t-2 16q0 6 4 19q0 1 1 3t1 3q0 6 -16 6q-25 0 -54 -15q-58 -26 -114 -26 q-18 0 -32.5 19t-14.5 38q0 70 75 114t162 44z" />
<glyph unicode="{" horiz-adv-x="846" d="M740 1356q53 0 76 -28q24 -29 24 -60q0 -22 -16 -33t-57 -25t-73 -30.5t-61 -48.5q-32 -37 -45 -84.5t-16 -109.5q-3 -63 -7 -137t-17 -126q-19 -75 -43 -112.5t-45 -48.5q-21 -10 -39.5 -11t-18.5 -6q0 -7 28 -27t51 -51q24 -30 34 -84q8 -38 9 -118q0 -79 5 -148 q11 -149 63 -191l48 -27q22 -13 39 -34q18 -21 18 -56q0 -31 -27.5 -57.5t-58.5 -26.5q-82 0 -165 78.5t-83 350.5v43q0 155 -33 188q-12 11 -66.5 33.5t-86 50t-31.5 78.5q0 43 24.5 69t61.5 41l82 33q43 20 58 50.5t19.5 92t12.5 162.5q10 131 61.5 223.5t125 139.5 t149.5 47z" />
<glyph unicode="|" />
<glyph unicode="}" horiz-adv-x="735" d="M107 -324q-50 0 -75.5 28.5t-25.5 59.5q0 21 19 34t67 32q48 20 74.5 33t48.5 38q38 43 51 113q14 70 20 185t13 160q11 74 37 111q25 38 52 48t53 11t26 6q0 10 -15 17t-43.5 21.5t-48 43.5t-28.5 82q-13 87 -14 160t-2 122q-1 48 -15 94q-13 49 -36 73t-55 40 q-32 17 -45 31.5t-13 50.5q0 33 26 60q27 26 60 26q245 0 245 -473q0 -146 33 -186q13 -14 68 -36t86 -48.5t31 -79.5q0 -44 -24 -68.5t-80.5 -47.5t-61.5 -26q-33 -15 -50 -37q-16 -22 -23 -52q-6 -31 -10 -85l-7 -131q-8 -115 -56 -209q-47 -94 -122 -147 q-74 -54 -160 -54z" />
<glyph unicode="~" />
<glyph unicode="&#xa1;" horiz-adv-x="1082" d="M979 1364q24 0 47 -11.5t23 -29.5q0 -27 -18 -63t-68 -125.5t-84 -163t-59 -162.5q-18 -61 -55 -139q-39 -78 -70 -154q-16 -39 -38 -79q-21 -40 -40 -97l-31 -88q-9 -28 -33 -84q-89 -209 -194 -209q-35 0 -64 18q-41 27 -41 72q0 51 35 115t115 189t112 192l-138 166 q-61 75 -140 182.5t-133 204t-54 147.5q0 19 21.5 36.5t46.5 17.5q66 0 103 -36t94 -137.5t114 -183t162 -178.5l116 264q52 118 92 189t83 109t96 38zM838 1612q50 0 73 -27q24 -28 24 -63q0 -19 -34 -53.5t-61 -51.5q-8 -5 -29 -14t-30.5 -16t-28.5 -25q-18 -18 -29 -25 q-48 -35 -117 -35h-59q-36 -2 -84 -11q-47 -11 -80 -11q-32 0 -60 11.5t-28 33.5q0 131 84 131q16 0 45 -1q30 -1 43 -1q173 0 244 82q28 35 54 55.5t73 20.5z" />
<glyph unicode="&#xa2;" horiz-adv-x="828" d="M402 746q20 0 43 -21q22 -20 22 -39q0 -22 -9.5 -42t-39.5 -71q-29 -51 -47 -89q-53 -123 -53 -129q0 -7 8 -7q30 0 117 50q12 6 61 28t58 32.5t26 47.5q51 98 115 98q21 0 37 -28.5t16 -59.5q0 -26 -15 -69.5t-20.5 -63.5t-5.5 -65q0 -26 5 -77t5 -77q0 -98 -16 -233 q-16 -134 -42 -259t-52 -186q-61 -145 -129 -214t-170 -69q-56 0 -121.5 28t-118.5 77.5t-72 109.5q-11 33 -33 57q-24 24 -35 52q-4 10 -16 65q-6 27 -22 40t-21 19q-4 7 -4 44q0 46 16 81t45 35q39 0 85.5 -33t46.5 -92q0 -12 -1 -35t-1 -34t6 -20q7 -9 19 -20l18 -18 q12 -15 39 -63q72 -129 155 -129q86 0 147.5 133t91.5 318t30 324q0 11 -5.5 31t-5.5 34q0 12 1 31t1 26q0 2 -14 2q-52 0 -89 -18l-74 -38q-37 -19 -89 -19q-63 0 -107 35t-44 71q0 26 13.5 59.5t41 91.5t27.5 70h-5q-10 -1 -20 -6.5t-27 -13.5q-8 -4 -18.5 -7t-20.5 -5 q-2 -1 -22 -12t-31 -11q-39 0 -66 29q-29 29 -29 59q0 24 28 40t79 33q52 17 64 23q134 64 173.5 81.5t70.5 17.5zM889 1090q44 0 65 -24t21 -52q0 -32 -58.5 -80t-133.5 -87.5t-105 -41.5h-82q-27 -2 -74.5 -12t-87.5 -10q-28 0 -52.5 9t-24.5 27q0 115 75 115q16 0 45 -1 t43 -1q38 0 99.5 10.5t91.5 26.5q36 20 68.5 57t50.5 50q18 14 59 14z" />
<glyph unicode="&#xa3;" horiz-adv-x="830" d="M484 1501q66 0 96.5 -59.5t46.5 -164.5l43 -281q9 -49 12 -158q2 -109 2 -418q0 -147 -42.5 -282t-120 -239t-180.5 -163q-104 -58 -222 -58q-94 0 -199 45q-105 46 -175.5 112.5t-70.5 123.5q0 53 43.5 121t97.5 68q64 0 64 -76q0 -11 -1 -31t-1 -28q1 -66 55.5 -106 t170.5 -40q110 0 170 26q61 25 91 68t77 138q53 110 72 171q18 62 18 173q0 154 -41 508q-19 163 -33 236t-32 123.5t-23 70.5q-11 48 -11 57q0 17 11 35q19 28 82 28z" />
<glyph unicode="&#xa4;" />
<glyph unicode="&#xa5;" horiz-adv-x="1118" d="M494 1325q46 0 66.5 -25.5t35.5 -68.5q7 -19 17.5 -23t50.5 -4q87 0 169.5 14.5t252.5 51.5q54 13 77 33q23 21 36 51.5t23 41.5t42 11q121 0 121 -108q0 -88 -83 -137.5t-200 -70.5t-284 -35t-226 -26q8 -90 8 -186q0 -91 -9 -236.5t-9 -224.5q0 -24 5 -71t5 -76 q0 -73 -4 -90.5t-12 -35.5t-8 -50q0 -9 4 -24.5t4 -22.5q0 -28 -24 -51.5t-52 -23.5q-56 0 -93.5 29.5t-37.5 81.5q0 30 24.5 142t24.5 141h-2q2 21 5 59t3 74q0 64 -3 140q-3 77 -3 112q0 11 1.5 31t2.5 40q2 20 2 31v189q-58 -5 -117 -18t-145 -13q-48 0 -72 12t-24 54 q0 102 80 102q15 0 41 -4h47q22 5 39 8.5t38 6.5q22 3 48 3q7 0 21 -3t20 -3q14 0 18 6q1 1 6 17v45q0 50 21 77t49 27z" />
<glyph unicode="&#xa6;" horiz-adv-x="488" d="M228 148q44 0 74 -31q30 -30 30 -88q0 -54 -39 -72.5t-74 -18.5q-100 0 -100 130q0 26 35.5 53t73.5 27zM332 717q69 0 85.5 -27.5t16.5 -93.5q0 -28 -26 -54t-72 -26q-50 0 -79 28.5t-29 66.5q0 39 25 72.5t79 33.5z" />
<glyph unicode="&#xa7;" horiz-adv-x="942" d="M389 1370q25 2 74 2q55 0 124 -24t118 -61q47 -38 47 -78q0 -27 -14 -53q-13 -25 -33 -25q-36 0 -73.5 30.5t-73 47t-124.5 16.5q-26 0 -47 -19q-20 -20 -20 -47q0 -28 19.5 -56.5t83.5 -90.5l71 -70q89 -92 154.5 -175.5t104.5 -174.5q38 -90 38 -184q0 -55 -31 -127 q-33 -72 -104.5 -124t-180.5 -52q26 -47 86 -124q60 -76 86 -125.5t26 -124.5q0 -29 -19.5 -74t-76.5 -84.5t-161 -41.5q-14 0 -42.5 -3t-41.5 -3q-24 0 -45 6q-52 16 -111 78t-59 102q0 27 12 53.5t31 26.5q30 0 54 -16t54 -46t51.5 -44.5t49.5 -14.5q47 0 92 16.5t45 59.5 q0 34 -27.5 80t-68.5 93t-74 80l-126 124q-65 65 -106 116.5t-65 110.5t-24 125q0 139 48.5 215.5t107 101.5t100.5 25q47 0 72.5 -23.5t25.5 -58.5q0 -54 -53 -81q-13 -7 -47 -17t-51.5 -22t-29.5 -44.5t-12 -93.5q0 -75 70.5 -146t181.5 -71q72 0 130 42q59 42 59 112 q0 93 -44.5 166.5t-108.5 142.5q-45 50 -118 117t-110 108t-60.5 96t-23.5 128q0 69 45.5 128t144.5 70z" />
<glyph unicode="&#xa8;" />
<glyph unicode="&#xa9;" horiz-adv-x="1616" d="M748 979q74 0 134 -30.5t60 -96.5q0 -65 -88 -65q-19 0 -54 17t-62 17q-105 0 -105 -219q0 -53 39 -97t137 -44q121 0 234 107q10 10 37 43.5t51 42.5q15 6 30 6q14 0 27 -6q43 -20 43 -60q0 -39 -21.5 -66.5t-64.5 -64.5q-27 -22 -68 -62q-42 -39 -69 -59t-70 -32 q-44 -14 -106 -14q-137 0 -218 57q-80 56 -110.5 130.5t-30.5 135.5q0 191 86 275.5t189 84.5zM103 670q0 163 66.5 295.5t176 223.5t237.5 138t249 47q104 0 223 -42.5t223.5 -126.5t170 -208t65.5 -278q0 -146 -53 -282t-150 -243q-98 -106 -228 -166.5t-278 -60.5 q-94 0 -212.5 37.5t-231 121t-184.5 220.5q-74 137 -74 324zM223 666q0 -154 64.5 -268t160 -182t193 -100t162.5 -32q116 0 222 52t187 142.5t126 204t45 232.5q0 117 -50 218q-52 100 -136.5 173t-186.5 112t-201 39q-133 0 -269.5 -68t-226.5 -203.5t-90 -319.5z" />
<glyph unicode="&#xaa;" />
<glyph unicode="&#xab;" horiz-adv-x="891" d="M393 789q32 0 60 -23q29 -23 29 -49q0 -23 -52.5 -106.5t-86.5 -120.5q-29 -36 -29 -43q0 -14 45 -54q199 -170 199 -233q0 -41 -74 -49q-84 0 -231 168l-53 59q-21 23 -35.5 46t-14.5 44q0 29 32.5 100t75.5 143q44 72 70 95q22 23 65 23zM631 695q29 0 53 -21 q25 -21 25 -47q0 -47 -69 -135l-15 -15q-6 -6 -10 -12t-4 -12q0 -9 14 -27q26 -29 76 -73q49 -43 65.5 -62.5t16.5 -44.5q-6 -76 -41 -76q-20 0 -65.5 29t-55.5 33q-5 1 -20.5 4.5t-27.5 10.5t-26 26l-19 27q-6 10 -11 16l-15 17q-8 9 -16 17q-39 47 -39 89q0 17 5.5 33 t16.5 37t19 40q31 67 63 106q32 40 80 40z" />
<glyph unicode="&#xac;" />
<glyph unicode="&#xad;" horiz-adv-x="787" d="M359 500q85 10 163 10q73 0 105.5 -13t32.5 -56q0 -67 -86 -88q-85 -21 -211 -21h-56q-17 0 -48 -3q-30 -3 -46 -3q-88 0 -88 72q0 45 31.5 64.5t87.5 25.5z" />
<glyph unicode="&#xae;" horiz-adv-x="1618" d="M539 987q-45 14 -45 60q0 54 55 73t150 19q253 0 350.5 -63.5t97.5 -165.5q0 -68 -38 -114t-88 -71t-135 -58q-84 -34 -120 -56q52 -38 144.5 -73.5t144.5 -35.5q26 0 38.5 5t35.5 17.5t37 12.5q18 0 35 -23q16 -22 16 -47q0 -65 -41.5 -93t-130.5 -28q-75 0 -205.5 47 t-206.5 97q4 -21 4 -23q0 -7 -7 -28t-7 -54q0 -108 -92 -108q-25 0 -45.5 26t-20.5 54q0 15 7 44q7 30 7 46q0 13 -1 38q-1 26 -1 40q0 6 5.5 21t5.5 24q0 11 -1 34q-1 24 -1 35q0 64 17 178.5t36 169.5zM703 986q-20 -94 -31 -131t-18 -130q41 29 141.5 73.5t141.5 66.5 q40 23 40 51q0 25 -31.5 39t-73.5 19.5t-104 8.5t-65 3zM105 719q0 165 73.5 290.5t190 205t245.5 117.5q130 38 240 38q96 0 211 -44t218 -130t169 -212q64 -126 64 -283q0 -136 -55 -266.5t-157 -236t-243 -167.5t-305 -62q-124 0 -241.5 53.5t-210 153t-146 239 t-53.5 304.5zM226 707q0 -203 94 -343.5t222 -209t220 -68.5q175 0 319.5 96.5t227 241t82.5 275.5q0 105 -46 206t-124 180q-79 80 -175.5 125t-195.5 45q-141 0 -285 -58t-242 -182q-97 -125 -97 -308z" />
<glyph unicode="&#xaf;" />
<glyph unicode="&#xb0;" horiz-adv-x="813" d="M135 1075q0 125 131 240q21 18 69.5 41t78.5 23q74 0 134 -34t100 -85.5t60.5 -101.5t20.5 -81q0 -76 -26 -144.5t-121 -104.5q-70 -27 -143 -27q-86 0 -155.5 37t-109 100t-39.5 137zM285 1071q0 -31 41 -68.5t133 -37.5q32 0 48 11q17 10 32 20q19 10 25 16t6 25 q0 57 -23 94.5t-50.5 56t-45.5 23.5h-33q-53 -12 -84 -43q-12 -13 -31 -47q-18 -34 -18 -50z" />
<glyph unicode="&#xb1;" />
<glyph unicode="&#xb2;" horiz-adv-x="518" d="M266 1239q69 0 84 -24t15 -97v-194q-3 -105 -12 -218.5t-9 -209.5q0 -36 3 -107t3 -108q0 -35 3 -53q3 -28 14 -50q6 -11 19.5 -27.5t20.5 -28t7 -23.5q0 -44 -33 -85q-32 -43 -94 -43q-51 0 -80.5 99.5t-38.5 202.5v139q3 49 12 168t9 174q0 20 -2 62t-2 63q0 15 6 43 q6 29 6 43q0 67 -12 143q0 19 -5 45q0 21 5 31q9 22 32 38.5t49 16.5z" />
<glyph unicode="&#xb3;" horiz-adv-x="492" d="M301 617q66 0 80 -76v-78q-1 -22 -3.5 -45.5t-2.5 -42.5v-92q0 -177 -14.5 -243.5t-67.5 -66.5q-104 0 -104 44q0 47 8 112q4 27 6.5 60t5.5 69q1 4 3.5 23t2.5 33q0 26 -2 26t-29.5 -22.5t-56.5 -22.5q-32 0 -54 25t-22 67q0 20 13 35.5t40 38.5t42 39l48 54 q23 26 50 44.5t57 18.5zM338 946q25 0 65.5 -31t53.5 -57q10 -22 10 -41q0 -41 -42.5 -64.5t-88.5 -23.5q-34 0 -72 22.5t-38 49.5q0 48 33.5 96.5t78.5 48.5z" />
<glyph unicode="&#xb4;" horiz-adv-x="660" d="M609 842q25 0 50 -17t25 -55q0 -28 -16 -63q-17 -39 -27 -55.5t-39 -32t-80 -15.5q-24 0 -76 3.5t-114 3.5q-15 0 -21 -7q-6 -6 -9 -34q-4 -27 -12 -134q-7 -108 -9 -131q-2 -63 -5 -146t-33.5 -139.5t-109.5 -56.5q-39 0 -51 24q-13 25 -13 69q0 13 6.5 35t10.5 67 q0 29 6 57q10 34 10 45q0 8 -2 22q-2 15 -2 21h1q1 0 17 172q12 34 21.5 80t9.5 58q0 1 -15 4t-27 19q-11 16 -11 54q0 78 119 84h56q18 0 46.5 -2t56.5 -3t48 -1q87 0 105 8l18 26q11 14 28 27t38 13z" />
<glyph unicode="&#xb5;" />
<glyph unicode="&#xb6;" horiz-adv-x="1147" d="M897 1364h47q127 0 190.5 -17.5t63.5 -82.5q0 -82 -82 -82q-72 0 -100 1q-29 1 -35.5 4.5t-21.5 4.5t-82 1q-161 0 -271.5 -56.5t-164.5 -146t-54 -183.5q0 -106 66 -188t160 -82q82 0 123.5 43t54 116t12.5 185q0 14 -4 59t-4 90q0 91 67 91q15 0 37 -3.5t31 -3.5 q26 0 38.5 -30.5t12.5 -67.5q0 -19 -5 -53.5t-5 -50.5q0 -45 5 -108t5 -109q0 -21 -10 -58q-12 -38 -12 -57q0 -35 3 -109t3 -111v-141q0 -201 -18.5 -346t-84 -243.5t-192.5 -98.5q-70 0 -107 36q-36 37 -36 83q0 37 22 54.5t70.5 32t76.5 26.5q27 13 44 42q17 31 25 73 q8 43 10 104q1 62 1 198q0 10 -2 79q-2 70 -2 132q-72 -31 -155 -31q-112 0 -207.5 61.5t-151 164.5t-55.5 219q0 145 82.5 274t240.5 207q159 78 371 78z" />
<glyph unicode="&#xb7;" horiz-adv-x="514" d="M273 465q98 0 98 -127q-10 -54 -34 -70t-73 -16q-120 9 -120 94q0 38 35 78.5t94 40.5z" />
<glyph unicode="&#xb8;" horiz-adv-x="809" d="M174 113q-47 -43 -104 -43q-34 0 -62.5 24t-28.5 74q0 46 15 55.5t54 15.5t60 25q-49 111 -49 236q0 88 42 158q20 33 66 68.5t85 35.5q69 -22 94 -47q26 -25 41 -61q39 -86 39 -150q0 -170 -119 -276q15 -41 94 -71t138 -30q82 0 125 19.5t89.5 55.5t80.5 46q10 4 28 4 q19 0 27 -4q43 -18 43 -45q0 -87 -199 -190q-73 -42 -223 -42q-253 0 -336 142zM226 367l19 58q7 20 10 31q3 12 3 23q0 24 -7 60q-8 37 -15 37q-5 0 -17 -39t-12 -62q0 -14 5 -28q6 -15 7 -35q0 -25 7 -45zM152 948q32 0 62 -26.5t30 -65.5q0 -32 -25 -59 q-20 -25 -29.5 -31t-54.5 -6q-53 0 -80 28q-26 27 -26 56q0 32 37 68q38 36 86 36zM402 946q43 0 66.5 -20.5t23.5 -52.5q0 -35 -29 -70q-18 -22 -31.5 -29.5t-56.5 -7.5q-52 0 -68 23.5t-16 68.5q0 43 9 61t30 22.5t72 4.5z" />
<glyph unicode="&#xb9;" horiz-adv-x="1903" d="M1014 1086q56 0 73 -70q17 -69 24 -229t22 -242q8 -48 37.5 -136.5t40.5 -130.5q12 -42 12 -91q0 -134 -72 -178t-151 -44t-202 104t-242.5 243t-196.5 245q-21 -172 -21 -196q0 -30 3 -91q3 -60 3 -90q0 -17 -7 -46.5t-7 -45.5v-80q-6 -25 -22 -45.5t-37 -20.5 q-65 0 -97 15t-32 64q0 55 17.5 222.5t39 325.5t33.5 201q-22 39 -51.5 81t-37.5 57t-8 36q0 92 16 117t50 25q32 0 54.5 -14t35.5 -35t25 -51q13 -31 22 -56q26 -60 95 -171q70 -111 157 -228.5t156 -188.5q117 -121 159 -158q42 -36 64 -36q70 0 70 41q0 20 -16.5 63.5 t-33.5 104.5t-34 172q-7 56 -10 106q-2 51 -3 100t-2 82q-2 45 -17 80t-15 76q0 69 28 91t78 22zM1516 1000q88 0 158 -52q69 -51 107 -119t38 -108q0 -60 -36.5 -135t-105 -127.5t-159.5 -52.5q-78 0 -139.5 19t-101.5 76.5t-40 162.5q0 81 34 159t97 128q64 49 148 49z M1510 850q-32 0 -69.5 -42t-37.5 -132q0 -35 19 -73t53 -38q81 0 123 40t53 79v33q-12 62 -61 98q-48 35 -80 35zM1506 297q7 1 64 10t93 9q74 0 106.5 -13t32.5 -57q0 -56 -55 -73.5t-135 -22.5q-45 -4 -74 -10q-29 -5 -62 -14t-50.5 -12t-51.5 -3q-88 0 -88 67 q0 45 34.5 69.5t73.5 32.5t112 17z" />
<glyph unicode="&#xba;" />
<glyph unicode="&#xbb;" horiz-adv-x="846" d="M465 111q-29 0 -56.5 24.5t-27.5 49.5q0 20 66 109t96 118q37 33 37 49q0 7 -5.5 13.5t-16.5 15t-21 18.5q-14 16 -28.5 34.5t-20.5 25.5q-5 5 -52 47q-18 15 -42.5 48t-24.5 60q5 68 51 68q48 0 115 -58l57 -46q27 -22 62.5 -57.5t61.5 -78t26 -82.5q0 -31 -38.5 -101.5 t-90.5 -139.5q-51 -70 -84 -97q-24 -20 -64 -20zM236 205q-27 0 -49.5 21.5t-22.5 46.5q0 53 80 137q3 3 14 11q11 9 16 15q5 7 5 15q0 12 -10 24q-19 23 -61 65t-60.5 67t-18.5 51q0 23 24.5 43t49.5 20q35 0 94 -39t103.5 -97.5t44.5 -115.5q0 -28 -35.5 -94t-84.5 -118 t-89 -52z" />
<glyph unicode="&#xbc;" horiz-adv-x="463" d="M289 500q22 0 44 -14q22 -13 22 -31q0 -26 -21.5 -75t-27.5 -81v-94q0 -33 -27 -211t-35 -361v-88q2 -16 17.5 -27t15.5 -20q0 -69 -45 -115.5t-123 -46.5q-18 0 -31.5 82.5t-13.5 132.5q0 5 13 12l12 7q16 13 16 49q0 22 -4 63q0 76 21 158t22 94q2 19 2 53q0 12 -1 44 t-1 57l4 44q2 30 2 44q0 10 -3 31.5t-3 32.5q0 53 19 114q17 61 50.5 103.5t75.5 42.5zM209 1149q35 0 70.5 -38.5t58.5 -94t23 -98.5t-53 -65q-52 -21 -89 -21q-10 0 -18.5 37.5t-19.5 52.5q-8 9 -23 24.5t-24 29.5t-14 36v49q7 37 34 63q28 25 55 25z" />
<glyph unicode="&#xbd;" horiz-adv-x="920" d="M553 1360q124 0 212 -63.5t114 -153.5q8 -29 8 -51q0 -30 -11 -48t-29.5 -35.5t-22.5 -27.5q-4 -9 -5 -33q-1 -25 -7 -38t-25 -13q-142 0 -142 82q5 27 18.5 40t31.5 28q19 14 28 37v26q-10 32 -53 55t-109 23q-20 0 -25 -6.5t-5 -34.5q0 -30 9 -58.5t23.5 -54t52.5 -80 t42 -59.5q91 -136 141.5 -273t50.5 -210q0 -77 -39.5 -177.5t-148 -180t-299.5 -79.5q-116 0 -198 58t-123 140q-42 83 -42 153q0 54 35.5 138t96.5 146t137 62q114 0 114 -102q0 -36 -18.5 -47t-64 -23t-62.5 -31q-14 -13 -37 -70q-23 -56 -23 -85q0 -108 83 -143.5 t169 -35.5q53 0 69 9t20 28t12 27q5 5 32.5 15t48.5 28q22 18 37 61q16 42 16 115q0 68 -20 113t-75 134.5t-88 166.5q-27 61 -63.5 125t-52.5 104t-30 119q0 38 25 81t74.5 71t117.5 28z" />
<glyph unicode="&#xbe;" horiz-adv-x="692" d="M369 824q24 2 78 2q89 0 147 -59t58 -140q0 -30 -11 -55q-10 -25 -28 -25q-59 0 -82.5 14.5t-28.5 65.5q-4 45 -66 45q-44 0 -50 -14v-15q3 -18 16 -38t42.5 -57t35.5 -44q50 -65 89.5 -159t39.5 -150t-28.5 -127.5t-105.5 -128t-213 -56.5q-82 0 -142 42t-90 104 t-30 113q2 68 46 142q45 75 104 75q48 0 79 -23t31 -57q0 -9 -4 -21q-8 -29 -21 -42q-12 -13 -31 -24.5t-27.5 -23.5t-8.5 -37q0 -92 137 -92q132 0 132 160q0 21 -5.5 40.5t-13 35.5t-16.5 31l-18 30q-22 39 -74 118t-73.5 129t-21.5 112q0 42 42 79.5t112 49.5z" />
<glyph unicode="&#xbf;" horiz-adv-x="428" d="M293 686q44 0 56 -38t12 -115q0 -12 -3 -35q-2 -23 -3 -33q-4 -61 -4 -182q0 -27 1 -69t1 -74q0 -93 -23 -137q-22 -44 -92 -44q-35 0 -52.5 19.5t-17.5 79.5q0 66 17 200q6 56 6 146q-5 -12 -25 -31q-20 -18 -59 -18q-40 0 -56 17t-16 54q0 29 48 93t110 115.5t100 51.5 zM150 910q28 0 60 -29t32 -68q0 -27 -25 -57q-8 -11 -12 -17t-11 -10t-20 -6t-41 -2q-54 0 -80 28t-26 56q0 17 17 42t45.5 44t60.5 19zM391 934q44 0 67 -22q24 -22 24 -56q0 -32 -29 -67q-21 -23 -32 -29t-56 -6q-54 0 -69 26t-15 66q0 43 8.5 61.5t29 22.5t72.5 4z" />
<glyph unicode="&#xc0;" horiz-adv-x="1184" d="M635 1364q18 0 52 -14t46 -17q13 -4 41 -4q11 0 31 1q21 1 29 1q30 0 43 -10q15 -13 18 -94q2 -81 19 -156q11 -44 15 -123t18 -94q13 -12 48 -20t52 -20t17 -52q0 -32 -30.5 -60.5t-68.5 -43.5q5 -86 31 -179q2 -5 17 -54.5t20 -80.5q4 -18 8 -55q8 -37 19 -53 q5 -10 34 -43.5t29 -55.5q0 -39 -27 -99.5t-51 -60.5q-85 0 -114 61.5t-41 181t-29 157.5l-16 32q-13 26 -19 48.5t-6 50.5q0 9 3 24.5t3 24.5q0 15 -9 17h-14h-78q-55 -12 -78 -34t-40.5 -36t-86.5 -18q-50 -4 -80 -11.5t-60.5 -42.5t-41.5 -110v-103q-2 -36 -12 -64 t-28 -64t-29 -62q-5 -11 -17.5 -62t-27.5 -76.5t-41 -25.5q-61 0 -96.5 19t-35.5 87q0 49 32 125t44 123q29 125 29 160q0 11 -14.5 28.5t-14.5 28.5q0 7 -2 24t-2 28q0 69 86 98q55 21 109 110q53 90 110 361q26 121 67 190t79 93t61 24zM699 1159q-39 0 -68.5 -57.5 t-51.5 -135.5l-36 -136q-6 -20 -21.5 -35t-35.5 -70q-4 -8 -8 -18q-3 -10 -17 -39q136 27 200 52q65 25 120 67q-5 38 -19.5 118t-15.5 113q-1 20 -1 43q0 22 -4 45q-3 23 -13 38t-29 15z" />
<glyph unicode="&#x410;" horiz-adv-x="1184" d="M635 1364q18 0 52 -14t46 -17q13 -4 41 -4q11 0 31 1q21 1 29 1q30 0 43 -10q15 -13 18 -94q2 -81 19 -156q11 -44 15 -123t18 -94q13 -12 48 -20t52 -20t17 -52q0 -32 -30.5 -60.5t-68.5 -43.5q5 -86 31 -179q2 -5 17 -54.5t20 -80.5q4 -18 8 -55q8 -37 19 -53 q5 -10 34 -43.5t29 -55.5q0 -39 -27 -99.5t-51 -60.5q-85 0 -114 61.5t-41 181t-29 157.5l-16 32q-13 26 -19 48.5t-6 50.5q0 9 3 24.5t3 24.5q0 15 -9 17h-14h-78q-55 -12 -78 -34t-40.5 -36t-86.5 -18q-50 -4 -80 -11.5t-60.5 -42.5t-41.5 -110v-103q-2 -36 -12 -64 t-28 -64t-29 -62q-5 -11 -17.5 -62t-27.5 -76.5t-41 -25.5q-61 0 -96.5 19t-35.5 87q0 49 32 125t44 123q29 125 29 160q0 11 -14.5 28.5t-14.5 28.5q0 7 -2 24t-2 28q0 69 86 98q55 21 109 110q53 90 110 361q26 121 67 190t79 93t61 24zM699 1159q-39 0 -68.5 -57.5 t-51.5 -135.5l-36 -136q-6 -20 -21.5 -35t-35.5 -70q-4 -8 -8 -18q-3 -10 -17 -39q136 27 200 52q65 25 120 67q-5 38 -19.5 118t-15.5 113q-1 20 -1 43q0 22 -4 45q-3 23 -13 38t-29 15z" />
<glyph unicode="&#xc1;" horiz-adv-x="1399" d="M598 1561q29 0 53.5 -20.5t24.5 -45.5q0 -19 -10 -90q57 6 129 6h74q27 1 82.5 6t91.5 5q17 0 52 -1q36 -1 52 -1q19 0 57 6t62 6q45 0 58 -18q14 -18 14 -76q0 -46 -18 -71.5t-89 -25.5q-30 0 -72 5t-63 6h-115q-43 -3 -108.5 -8.5t-104 -8t-121.5 -2.5 q-9 -101 -18 -168.5t-12.5 -99.5t-3.5 -115q48 21 96 21q28 0 82 -9q25 -2 75 -3t80 -6t73 -25.5t102 -61.5q82 -54 127 -121.5t45 -208.5q0 -93 -30.5 -165t-79.5 -125q-51 -53 -102.5 -88t-132.5 -83q-71 -42 -124.5 -68.5t-115 -43.5t-130.5 -17q-72 0 -139 16 q-100 24 -154.5 68.5t-54.5 86.5q0 33 30 64.5t66 31.5q30 0 64.5 -28.5t50.5 -35.5q20 -10 90 -10q78 0 149 10q67 12 172.5 70t184.5 144.5t79 183.5q0 60 -40 119t-124 98t-204 39q-65 0 -137 -13q0 -47 2 -99q2 -51 2 -62q0 -17 -4 -50q-11 -66 -11 -83q0 -24 26 -72 t26 -74q0 -84 -39 -115q-39 -30 -107 -30q-25 0 -38 26t-13 58q0 9 7 22q7 14 7 21t-22.5 33t-22.5 65q0 24 15.5 74t15.5 67q0 22 -6 68.5t-6 71.5q0 348 24 598q-84 -4 -134 -13q-49 -10 -99.5 -27t-96.5 -26q-47 -8 -127 -8q-17 0 -27 24q-1 10 -13 18.5t-21 8.5t-9 -6 q0 -1 7.5 -9.5t7.5 -15.5q0 -25 -12 -44t-33 -19q-56 0 -109 27t-53 71q0 68 65 97.5t164.5 38.5t209.5 18q46 6 123 21q78 14 182 28l16 90q7 39 26 58q19 20 64 20z" />
<glyph unicode="&#x411;" horiz-adv-x="1399" d="M598 1561q29 0 53.5 -20.5t24.5 -45.5q0 -19 -10 -90q57 6 129 6h74q27 1 82.5 6t91.5 5q17 0 52 -1q36 -1 52 -1q19 0 57 6t62 6q45 0 58 -18q14 -18 14 -76q0 -46 -18 -71.5t-89 -25.5q-30 0 -72 5t-63 6h-115q-43 -3 -108.5 -8.5t-104 -8t-121.5 -2.5 q-9 -101 -18 -168.5t-12.5 -99.5t-3.5 -115q48 21 96 21q28 0 82 -9q25 -2 75 -3t80 -6t73 -25.5t102 -61.5q82 -54 127 -121.5t45 -208.5q0 -93 -30.5 -165t-79.5 -125q-51 -53 -102.5 -88t-132.5 -83q-71 -42 -124.5 -68.5t-115 -43.5t-130.5 -17q-72 0 -139 16 q-100 24 -154.5 68.5t-54.5 86.5q0 33 30 64.5t66 31.5q30 0 64.5 -28.5t50.5 -35.5q20 -10 90 -10q78 0 149 10q67 12 172.5 70t184.5 144.5t79 183.5q0 60 -40 119t-124 98t-204 39q-65 0 -137 -13q0 -47 2 -99q2 -51 2 -62q0 -17 -4 -50q-11 -66 -11 -83q0 -24 26 -72 t26 -74q0 -84 -39 -115q-39 -30 -107 -30q-25 0 -38 26t-13 58q0 9 7 22q7 14 7 21t-22.5 33t-22.5 65q0 24 15.5 74t15.5 67q0 22 -6 68.5t-6 71.5q0 348 24 598q-84 -4 -134 -13q-49 -10 -99.5 -27t-96.5 -26q-47 -8 -127 -8q-17 0 -27 24q-1 10 -13 18.5t-21 8.5t-9 -6 q0 -1 7.5 -9.5t7.5 -15.5q0 -25 -12 -44t-33 -19q-56 0 -109 27t-53 71q0 68 65 97.5t164.5 38.5t209.5 18q46 6 123 21q78 14 182 28l16 90q7 39 26 58q19 20 64 20z" />
<glyph unicode="&#xc2;" horiz-adv-x="1202" d="M600 1555q25 0 46 -20q22 -19 22 -42q0 -82 -14 -129q122 -31 167.5 -50t56.5 -45q11 -25 11 -89q0 -77 -40 -130t-91 -84q-52 -30 -105 -53t-53 -30q0 -31 77 -70l196 -100q119 -61 194 -146q74 -84 74 -206q0 -92 -65 -212t-193 -207.5t-305 -87.5q-147 0 -266 49 t-184.5 119.5t-65.5 125.5q0 11 12.5 30.5t15.5 28.5q4 16 4 23q0 8 -2 31.5t-2 41.5q7 26 52 92.5t63 75.5q18 11 37 11q18 0 39 -11q35 -18 45 -59v-39q-4 -19 -15.5 -34.5t-31 -37.5t-28.5 -37t-9 -32q0 -79 56 -146t214 -67q86 0 192 51.5t181 128.5q74 78 74 149 q0 64 -25 104t-64 64t-122.5 66t-138.5 78q-7 -29 -7 -58q0 -10 2 -26t2 -33q0 -33 -4 -61q-10 -93 -10 -160q0 -13 25 -34q24 -20 24 -34q0 -33 -11 -80q-12 -46 -34 -61q-17 -10 -41 -10q-21 0 -45 10q-47 24 -47 74q0 9 7 24q7 16 7 23q0 9 -22 30l-22 20q-9 9 -15 17 t-6 17q0 33 6 47t19 24t20 25q6 16 6 55q0 55 -6 94.5t-6 61.5q0 37 8 98q-125 92 -125 135q0 34 34 76t95 74q4 112 14 213q-59 6 -92 6q-41 0 -98 -7t-90 -10h-144q-40 0 -56 -8t-32 -23t-33 -15q-49 0 -100 26.5t-51 63.5q0 53 80.5 93t261.5 40q26 0 68 -6q43 -6 65 -6 q72 0 104 7q33 7 70 7q41 0 70 -2q0 2 7.5 52.5t15.5 71.5t26.5 32.5t50.5 11.5zM623 1220q-6 -75 -17 -163q47 8 85 37q38 30 38 61q0 65 -106 65z" />
<glyph unicode="&#x412;" horiz-adv-x="1202" d="M600 1555q25 0 46 -20q22 -19 22 -42q0 -82 -14 -129q122 -31 167.5 -50t56.5 -45q11 -25 11 -89q0 -77 -40 -130t-91 -84q-52 -30 -105 -53t-53 -30q0 -31 77 -70l196 -100q119 -61 194 -146q74 -84 74 -206q0 -92 -65 -212t-193 -207.5t-305 -87.5q-147 0 -266 49 t-184.5 119.5t-65.5 125.5q0 11 12.5 30.5t15.5 28.5q4 16 4 23q0 8 -2 31.5t-2 41.5q7 26 52 92.5t63 75.5q18 11 37 11q18 0 39 -11q35 -18 45 -59v-39q-4 -19 -15.5 -34.5t-31 -37.5t-28.5 -37t-9 -32q0 -79 56 -146t214 -67q86 0 192 51.5t181 128.5q74 78 74 149 q0 64 -25 104t-64 64t-122.5 66t-138.5 78q-7 -29 -7 -58q0 -10 2 -26t2 -33q0 -33 -4 -61q-10 -93 -10 -160q0 -13 25 -34q24 -20 24 -34q0 -33 -11 -80q-12 -46 -34 -61q-17 -10 -41 -10q-21 0 -45 10q-47 24 -47 74q0 9 7 24q7 16 7 23q0 9 -22 30l-22 20q-9 9 -15 17 t-6 17q0 33 6 47t19 24t20 25q6 16 6 55q0 55 -6 94.5t-6 61.5q0 37 8 98q-125 92 -125 135q0 34 34 76t95 74q4 112 14 213q-59 6 -92 6q-41 0 -98 -7t-90 -10h-144q-40 0 -56 -8t-32 -23t-33 -15q-49 0 -100 26.5t-51 63.5q0 53 80.5 93t261.5 40q26 0 68 -6q43 -6 65 -6 q72 0 104 7q33 7 70 7q41 0 70 -2q0 2 7.5 52.5t15.5 71.5t26.5 32.5t50.5 11.5zM623 1220q-6 -75 -17 -163q47 8 85 37q38 30 38 61q0 65 -106 65z" />
<glyph unicode="&#xc3;" horiz-adv-x="1196" d="M514 1305q39 0 51 -17t19.5 -47t21.5 -30q12 0 84 24t158 41q75 16 157 36t116 27q35 7 71 7q18 0 51 -2t50 -2q7 0 20.5 14t22.5 14q55 0 91 -26.5t36 -79.5q0 -66 -76 -66q-10 0 -28 1q-17 1 -23 1q-27 0 -53 -4t-118 -22.5t-114 -22.5q-76 -13 -242 -53.5t-219 -52.5 q-6 -104 -6 -199q0 -76 6 -239t6 -293q0 -37 -3 -107q-3 -71 -3 -106v-103v-56q1 -16 3.5 -47.5t2.5 -46.5q0 -24 -23.5 -44.5t-50.5 -20.5q-58 0 -95.5 27t-37.5 122q0 39 10.5 133t10.5 214q0 12 -1 37q-1 26 -1 39q0 17 7 51t7 53q0 43 -2 129t-2 129q0 23 2.5 50t3.5 52 v185q-143 -27 -260 -27q-45 0 -71.5 13t-26.5 55q0 96 119 96h49q176 18 190 35q4 4 4 14q-1 5 -2 15t-2 16q0 53 22 68q21 16 68 16z" />
<glyph unicode="&#x413;" horiz-adv-x="1196" d="M514 1305q39 0 51 -17t19.5 -47t21.5 -30q12 0 84 24t158 41q75 16 157 36t116 27q35 7 71 7q18 0 51 -2t50 -2q7 0 20.5 14t22.5 14q55 0 91 -26.5t36 -79.5q0 -66 -76 -66q-10 0 -28 1q-17 1 -23 1q-27 0 -53 -4t-118 -22.5t-114 -22.5q-76 -13 -242 -53.5t-219 -52.5 q-6 -104 -6 -199q0 -76 6 -239t6 -293q0 -37 -3 -107q-3 -71 -3 -106v-103v-56q1 -16 3.5 -47.5t2.5 -46.5q0 -24 -23.5 -44.5t-50.5 -20.5q-58 0 -95.5 27t-37.5 122q0 39 10.5 133t10.5 214q0 12 -1 37q-1 26 -1 39q0 17 7 51t7 53q0 43 -2 129t-2 129q0 23 2.5 50t3.5 52 v185q-143 -27 -260 -27q-45 0 -71.5 13t-26.5 55q0 96 119 96h49q176 18 190 35q4 4 4 14q-1 5 -2 15t-2 16q0 53 22 68q21 16 68 16z" />
<glyph unicode="&#xc4;" horiz-adv-x="1710" d="M664 1340q166 0 310.5 -14t294.5 -70t248.5 -178.5t98.5 -323.5q0 -187 -83 -353.5t-230.5 -289.5t-342.5 -192t-415 -69q-223 0 -335 17q-111 17 -111 84q0 36 10.5 69t32.5 33q13 0 42.5 -2t47.5 -2q44 0 63 28t19 122q0 148 -4.5 205.5t-4.5 111.5q14 423 43 611 q-220 -20 -256 -33q-29 -11 -71.5 -32t-71.5 -31.5t-62 -10.5q-21 0 -37 21.5t-16 44.5q0 94 150 143q151 50 352 78q140 19 197.5 26t130.5 7zM547 1157q-47 -124 -55 -522q0 -19 -1 -52t-1 -46q0 -104 7 -192.5t7 -108.5q0 -71 -18 -213q57 -4 84 -4q159 0 315 57 q155 55 280.5 155.5t198.5 232.5t73 274q0 102 -52 200q-52 99 -193.5 168t-384.5 69q-118 0 -260 -18z" />
<glyph unicode="&#x414;" horiz-adv-x="1710" d="M664 1340q166 0 310.5 -14t294.5 -70t248.5 -178.5t98.5 -323.5q0 -187 -83 -353.5t-230.5 -289.5t-342.5 -192t-415 -69q-223 0 -335 17q-111 17 -111 84q0 36 10.5 69t32.5 33q13 0 42.5 -2t47.5 -2q44 0 63 28t19 122q0 148 -4.5 205.5t-4.5 111.5q14 423 43 611 q-220 -20 -256 -33q-29 -11 -71.5 -32t-71.5 -31.5t-62 -10.5q-21 0 -37 21.5t-16 44.5q0 94 150 143q151 50 352 78q140 19 197.5 26t130.5 7zM547 1157q-47 -124 -55 -522q0 -19 -1 -52t-1 -46q0 -104 7 -192.5t7 -108.5q0 -71 -18 -213q57 -4 84 -4q159 0 315 57 q155 55 280.5 155.5t198.5 232.5t73 274q0 102 -52 200q-52 99 -193.5 168t-384.5 69q-118 0 -260 -18z" />
<glyph unicode="&#xc5;" horiz-adv-x="1266" d="M1077 1432q22 0 42 -13.5t20 -29.5q0 -44 -29 -87t-67 -50h-107q-462 -78 -549 -160q-6 -6 -27 -31q-22 -24 -42 -37q-19 -12 -43 -12q-35 0 -61 39q-27 40 -27 84q0 41 17 57t41.5 18t44.5 3q14 2 29 10t45 26l89 56q78 47 112 47q8 0 21 -3q13 -2 18 -3q27 0 35 4 q9 4 49 29q23 14 97 26t161 19q86 8 131 8zM211 975q9 0 44.5 -31.5t35.5 -46.5t-12.5 -51t-20.5 -65q14 1 41 2q26 1 39 2q74 4 113 4q23 1 72 4.5t79 6.5t54 5q45 6 94 6q24 0 39 2q20 2 29 8t17 16q7 11 17 16t33 5q16 0 50 -5.5t36 -6.5h68q69 -11 69 -41q0 -32 -64 -96 t-89 -64q-7 0 -18.5 4.5t-18.5 4.5q-36 0 -67 -11q-32 -10 -92.5 -17t-215.5 -7q-13 0 -36.5 2t-35.5 2q-20 0 -53 -20q-33 -19 -49 -19q-25 0 -47 9t-39 9q-13 0 -41 -6q-2 -14 -2 -45q0 -137 95 -236.5t323 -99.5q108 0 190 17t150 44l109 44q42 18 71 18q17 0 30 -23 t13 -46q0 -77 -89.5 -131.5t-218.5 -82.5q-129 -27 -243 -27q-216 0 -350 72t-194 210t-60 342q0 92 24 166.5t58.5 115.5t62.5 41z" />
<glyph unicode="&#x415;" horiz-adv-x="1266" d="M1077 1432q22 0 42 -13.5t20 -29.5q0 -44 -29 -87t-67 -50h-107q-462 -78 -549 -160q-6 -6 -27 -31q-22 -24 -42 -37q-19 -12 -43 -12q-35 0 -61 39q-27 40 -27 84q0 41 17 57t41.5 18t44.5 3q14 2 29 10t45 26l89 56q78 47 112 47q8 0 21 -3q13 -2 18 -3q27 0 35 4 q9 4 49 29q23 14 97 26t161 19q86 8 131 8zM211 975q9 0 44.5 -31.5t35.5 -46.5t-12.5 -51t-20.5 -65q14 1 41 2q26 1 39 2q74 4 113 4q23 1 72 4.5t79 6.5t54 5q45 6 94 6q24 0 39 2q20 2 29 8t17 16q7 11 17 16t33 5q16 0 50 -5.5t36 -6.5h68q69 -11 69 -41q0 -32 -64 -96 t-89 -64q-7 0 -18.5 4.5t-18.5 4.5q-36 0 -67 -11q-32 -10 -92.5 -17t-215.5 -7q-13 0 -36.5 2t-35.5 2q-20 0 -53 -20q-33 -19 -49 -19q-25 0 -47 9t-39 9q-13 0 -41 -6q-2 -14 -2 -45q0 -137 95 -236.5t323 -99.5q108 0 190 17t150 44l109 44q42 18 71 18q17 0 30 -23 t13 -46q0 -77 -89.5 -131.5t-218.5 -82.5q-129 -27 -243 -27q-216 0 -350 72t-194 210t-60 342q0 92 24 166.5t58.5 115.5t62.5 41z" />
<glyph unicode="&#xc6;" horiz-adv-x="2349" d="M572 1157q15 0 41 -15t41 -15q11 0 34 6q24 6 35 6q59 0 132.5 -59.5t125 -153.5t51.5 -195q0 -42 -8 -77q93 -132 117 -228q4 17 14 32.5t52 68.5l116 149q52 65 84 93q33 28 99 28q32 0 65 -8q51 115 104.5 193.5t135 125.5t196.5 47q56 0 104 -43.5t48 -93.5 q0 -42 -26.5 -61t-61.5 -19q-19 0 -53 15q-33 14 -52 14q-44 0 -99.5 -33t-95.5 -105.5t-40 -181.5q0 -120 57 -196t137.5 -109t151.5 -33q40 0 98 39l31 22q20 15 36 22q16 8 34 8q73 0 73 -146q0 -14 -48 -41.5t-122.5 -48t-146.5 -20.5q-121 0 -230 66 q-110 67 -177.5 178t-69.5 237q-71 -48 -115 -87t-80.5 -92.5t-68.5 -133.5q-29 -73 -33 -183q-3 -111 -20 -152q-16 -41 -97 -41q-33 0 -70 27.5t-37 65.5q0 16 7.5 49t7.5 51q0 33 -38 121q-37 88 -46 123q-11 35 -14 37q-6 0 -9 -6q-6 -10 -16 -33q-35 -76 -57 -114 q-22 -37 -36 -51.5t-42.5 -37.5t-52.5 -49q-8 -8 -58 -72t-97.5 -112.5t-106 -83t-119.5 -34.5q-181 0 -181 148q0 51 17 91t48 79q32 39 109 126.5t144 172.5q139 176 218 237.5t144 72.5q0 74 -45 126.5t-101.5 78.5t-88.5 26q-85 0 -156.5 -46.5t-165.5 -147.5 q-25 -27 -73 -94t-79 -95.5t-75 -28.5q-72 0 -72 101q0 20 9.5 33t48 56t65.5 83q35 52 106.5 131t184.5 151q60 39 158 39zM832 559q-17 0 -77 -64t-122.5 -139t-71.5 -87q-10 -14 -83 -110.5t-89 -120.5t-16 -34q0 -6 10 -6q57 0 307 314q148 186 148 237q0 10 -6 10z" />
<glyph unicode="&#x416;" horiz-adv-x="2349" d="M572 1157q15 0 41 -15t41 -15q11 0 34 6q24 6 35 6q59 0 132.5 -59.5t125 -153.5t51.5 -195q0 -42 -8 -77q93 -132 117 -228q4 17 14 32.5t52 68.5l116 149q52 65 84 93q33 28 99 28q32 0 65 -8q51 115 104.5 193.5t135 125.5t196.5 47q56 0 104 -43.5t48 -93.5 q0 -42 -26.5 -61t-61.5 -19q-19 0 -53 15q-33 14 -52 14q-44 0 -99.5 -33t-95.5 -105.5t-40 -181.5q0 -120 57 -196t137.5 -109t151.5 -33q40 0 98 39l31 22q20 15 36 22q16 8 34 8q73 0 73 -146q0 -14 -48 -41.5t-122.5 -48t-146.5 -20.5q-121 0 -230 66 q-110 67 -177.5 178t-69.5 237q-71 -48 -115 -87t-80.5 -92.5t-68.5 -133.5q-29 -73 -33 -183q-3 -111 -20 -152q-16 -41 -97 -41q-33 0 -70 27.5t-37 65.5q0 16 7.5 49t7.5 51q0 33 -38 121q-37 88 -46 123q-11 35 -14 37q-6 0 -9 -6q-6 -10 -16 -33q-35 -76 -57 -114 q-22 -37 -36 -51.5t-42.5 -37.5t-52.5 -49q-8 -8 -58 -72t-97.5 -112.5t-106 -83t-119.5 -34.5q-181 0 -181 148q0 51 17 91t48 79q32 39 109 126.5t144 172.5q139 176 218 237.5t144 72.5q0 74 -45 126.5t-101.5 78.5t-88.5 26q-85 0 -156.5 -46.5t-165.5 -147.5 q-25 -27 -73 -94t-79 -95.5t-75 -28.5q-72 0 -72 101q0 20 9.5 33t48 56t65.5 83q35 52 106.5 131t184.5 151q60 39 158 39zM832 559q-17 0 -77 -64t-122.5 -139t-71.5 -87q-10 -14 -83 -110.5t-89 -120.5t-16 -34q0 -6 10 -6q57 0 307 314q148 186 148 237q0 10 -6 10z" />
<glyph unicode="&#xc7;" horiz-adv-x="1207" d="M692 1354q70 0 133 -30t100 -76q38 -46 38 -89q0 -53 -47 -102q-46 -50 -118 -98l-144 -97q85 -21 128.5 -38t76.5 -38l77 -48q50 -30 79 -50q29 -19 60 -55t49.5 -90t18.5 -131q0 -94 -66.5 -206t-169.5 -212q-102 -98 -202 -154q-169 -95 -287.5 -130t-220.5 -35 q-148 0 -229 109t-81 226q0 50 25.5 110t60.5 60q57 0 101 -18q42 -18 42 -53q0 -11 -6 -22q-7 -10 -19 -23t-22 -25q-22 -31 -22 -49q0 -24 22 -58q23 -35 71 -60.5t116 -25.5q116 0 334 112q98 52 184.5 132t137.5 162.5t51 145.5q0 54 -34 115q-33 60 -138 120 q-104 59 -294 90q-5 1 -40 6q-34 5 -64.5 15t-50 27t-19.5 42q0 58 52 93q52 36 144 69t112 47q22 16 32 38.5t21 35.5q14 16 49 29q35 14 35 26q0 37 -112 37q-113 0 -150 -14q-2 -1 -30 -20.5t-58 -26.5q-11 -3 -32.5 -7.5t-35 -8.5t-22.5 -11q-17 -12 -24.5 -24 t-17 -36.5t-18.5 -34t-28 -9.5q-54 0 -96 29t-42 71q0 56 77 117t212 101t301 40z" />
<glyph unicode="&#x417;" horiz-adv-x="1207" d="M692 1354q70 0 133 -30t100 -76q38 -46 38 -89q0 -53 -47 -102q-46 -50 -118 -98l-144 -97q85 -21 128.5 -38t76.5 -38l77 -48q50 -30 79 -50q29 -19 60 -55t49.5 -90t18.5 -131q0 -94 -66.5 -206t-169.5 -212q-102 -98 -202 -154q-169 -95 -287.5 -130t-220.5 -35 q-148 0 -229 109t-81 226q0 50 25.5 110t60.5 60q57 0 101 -18q42 -18 42 -53q0 -11 -6 -22q-7 -10 -19 -23t-22 -25q-22 -31 -22 -49q0 -24 22 -58q23 -35 71 -60.5t116 -25.5q116 0 334 112q98 52 184.5 132t137.5 162.5t51 145.5q0 54 -34 115q-33 60 -138 120 q-104 59 -294 90q-5 1 -40 6q-34 5 -64.5 15t-50 27t-19.5 42q0 58 52 93q52 36 144 69t112 47q22 16 32 38.5t21 35.5q14 16 49 29q35 14 35 26q0 37 -112 37q-113 0 -150 -14q-2 -1 -30 -20.5t-58 -26.5q-11 -3 -32.5 -7.5t-35 -8.5t-22.5 -11q-17 -12 -24.5 -24 t-17 -36.5t-18.5 -34t-28 -9.5q-54 0 -96 29t-42 71q0 56 77 117t212 101t301 40z" />
<glyph unicode="&#xc8;" horiz-adv-x="1415" d="M250 1084q31 0 64.5 -31t33.5 -64q0 -39 -5.5 -52.5t-19.5 -30.5q-13 -18 -20.5 -46.5t-7.5 -89.5q0 -43 6 -116q2 -17 8 -132q6 -114 15 -182t32.5 -116t65.5 -48q32 0 75 33.5t68 75.5q20 32 47 92.5t44 87.5l23 35q15 23 21.5 34t14.5 29q18 45 23.5 78t27.5 82 q16 34 56.5 109t60.5 127q59 166 194 166q38 0 56 -93q6 -26 6 -75q0 -46 -6 -92q-8 -94 -8 -205q0 -117 8 -277q0 -33 1 -96t8.5 -102t27.5 -39q6 0 17 12t13 14q11 11 29 11q15 0 33 -11q37 -25 37 -49q0 -31 -22 -80q-23 -51 -52.5 -88t-50.5 -37q-64 0 -104.5 35 t-61.5 91t-34 130l-23 140q-5 22 -5 65q0 47 5 117v213q-41 -84 -117 -260q-78 -176 -128.5 -267.5t-116.5 -147t-157 -55.5q-128 0 -193 111.5t-82 248t-17 274.5q0 22 3 66q3 45 3 69q0 17 -3 48l-3 48q0 59 9 87q9 29 34 75t36 62t31 16z" />
<glyph unicode="&#x418;" horiz-adv-x="1415" d="M250 1084q31 0 64.5 -31t33.5 -64q0 -39 -5.5 -52.5t-19.5 -30.5q-13 -18 -20.5 -46.5t-7.5 -89.5q0 -43 6 -116q2 -17 8 -132q6 -114 15 -182t32.5 -116t65.5 -48q32 0 75 33.5t68 75.5q20 32 47 92.5t44 87.5l23 35q15 23 21.5 34t14.5 29q18 45 23.5 78t27.5 82 q16 34 56.5 109t60.5 127q59 166 194 166q38 0 56 -93q6 -26 6 -75q0 -46 -6 -92q-8 -94 -8 -205q0 -117 8 -277q0 -33 1 -96t8.5 -102t27.5 -39q6 0 17 12t13 14q11 11 29 11q15 0 33 -11q37 -25 37 -49q0 -31 -22 -80q-23 -51 -52.5 -88t-50.5 -37q-64 0 -104.5 35 t-61.5 91t-34 130l-23 140q-5 22 -5 65q0 47 5 117v213q-41 -84 -117 -260q-78 -176 -128.5 -267.5t-116.5 -147t-157 -55.5q-128 0 -193 111.5t-82 248t-17 274.5q0 22 3 66q3 45 3 69q0 17 -3 48l-3 48q0 59 9 87q9 29 34 75t36 62t31 16z" />
<glyph unicode="&#xc9;" horiz-adv-x="1432" d="M230 1137q31 0 64.5 -26.5t33.5 -65.5q0 -31 -4 -90q-4 -58 -7 -132t-3 -188q0 -89 9.5 -195t38.5 -185t79 -79t114.5 83.5t128.5 209.5q65 126 118 252l97 238q63 166 195 166q39 0 57 -93q8 -32 8 -71q0 -35 -8 -96q-8 -87 -8 -269q0 -14 -1 -60q-1 -47 -1 -89 q0 -301 45 -301q6 0 15 10q9 11 16 16q10 11 28 11q15 0 33 -11q37 -25 37 -49q0 -37 -23.5 -86t-58.5 -84q-34 -35 -63 -35q-56 0 -91.5 33t-54.5 88q-19 53 -33 129t-25 146q-3 22 -3 65q0 39 3 117v221q-25 -55 -101.5 -238.5t-130 -281t-123.5 -158t-162 -60.5 q-124 0 -193 114.5t-92.5 259t-23.5 262.5q0 53 8 159q8 85 8 189q0 101 24 137q24 37 50 37zM895 1413q45 0 67.5 -18.5t22.5 -48.5q0 -31 -50 -88.5t-118 -102.5t-118 -45q-15 0 -45 3t-45 3q-18 0 -52 -4q-33 -4 -49 -4q-15 0 -40 13.5t-34 17.5q-42 17 -59.5 35.5 t-17.5 87.5q0 21 24 32q25 11 51 11q17 0 31 -4t37 -12l37 -13q28 -8 88 -8q40 0 66 6t42 17t34.5 33.5t27.5 31.5q52 57 100 57z" />
<glyph unicode="&#x419;" horiz-adv-x="1432" d="M230 1137q31 0 64.5 -26.5t33.5 -65.5q0 -31 -4 -90q-4 -58 -7 -132t-3 -188q0 -89 9.5 -195t38.5 -185t79 -79t114.5 83.5t128.5 209.5q65 126 118 252l97 238q63 166 195 166q39 0 57 -93q8 -32 8 -71q0 -35 -8 -96q-8 -87 -8 -269q0 -14 -1 -60q-1 -47 -1 -89 q0 -301 45 -301q6 0 15 10q9 11 16 16q10 11 28 11q15 0 33 -11q37 -25 37 -49q0 -37 -23.5 -86t-58.5 -84q-34 -35 -63 -35q-56 0 -91.5 33t-54.5 88q-19 53 -33 129t-25 146q-3 22 -3 65q0 39 3 117v221q-25 -55 -101.5 -238.5t-130 -281t-123.5 -158t-162 -60.5 q-124 0 -193 114.5t-92.5 259t-23.5 262.5q0 53 8 159q8 85 8 189q0 101 24 137q24 37 50 37zM895 1413q45 0 67.5 -18.5t22.5 -48.5q0 -31 -50 -88.5t-118 -102.5t-118 -45q-15 0 -45 3t-45 3q-18 0 -52 -4q-33 -4 -49 -4q-15 0 -40 13.5t-34 17.5q-42 17 -59.5 35.5 t-17.5 87.5q0 21 24 32q25 11 51 11q17 0 31 -4t37 -12l37 -13q28 -8 88 -8q40 0 66 6t42 17t34.5 33.5t27.5 31.5q52 57 100 57z" />
<glyph unicode="&#xca;" horiz-adv-x="1186" d="M346 723l7 -6q52 62 57 76q6 15 57 72q72 78 108 99q37 20 101 48q65 27 86 63q3 5 16.5 36.5t29.5 50t46 30.5q28 10 47 10q25 0 45 -10q64 -29 64 -139q0 -17 -16 -34t-70 -59l-104 -81q-23 -18 -130.5 -77t-168 -106.5t-60.5 -97.5q0 -53 291 -190q143 -68 278 -68 q40 0 189 23q33 6 61 6q74 0 111 -33t37 -65q0 -73 -65 -93t-161 -21q-41 0 -101 -4t-85 -4q-105 0 -266 60q-167 63 -258.5 126.5t-121.5 103.5q-29 41 -34 57l4 -12q10 -25 13 -58t4 -35q6 -30 22.5 -47t43.5 -32.5t39.5 -26t12.5 -29.5q0 -27 -13.5 -70.5t-37.5 -76.5 t-53 -33q-42 0 -79 18t-69 95.5t-32 232.5q0 14 3 42.5t3 43.5q0 31 -10 51q-2 7 -9 17q-8 11 -8 18q0 27 15 105q4 16 4 47q0 15 -2 47t-2 47q0 37 10 109t10 112q0 26 -7 72t-7 71q0 67 23 100.5t50 33.5q115 0 115 -242q0 -113 -1.5 -136.5t-14.5 -88.5q-17 -85 -17 -148 z" />
<glyph unicode="&#x41a;" horiz-adv-x="1186" d="M346 723l7 -6q52 62 57 76q6 15 57 72q72 78 108 99q37 20 101 48q65 27 86 63q3 5 16.5 36.5t29.5 50t46 30.5q28 10 47 10q25 0 45 -10q64 -29 64 -139q0 -17 -16 -34t-70 -59l-104 -81q-23 -18 -130.5 -77t-168 -106.5t-60.5 -97.5q0 -53 291 -190q143 -68 278 -68 q40 0 189 23q33 6 61 6q74 0 111 -33t37 -65q0 -73 -65 -93t-161 -21q-41 0 -101 -4t-85 -4q-105 0 -266 60q-167 63 -258.5 126.5t-121.5 103.5q-29 41 -34 57l4 -12q10 -25 13 -58t4 -35q6 -30 22.5 -47t43.5 -32.5t39.5 -26t12.5 -29.5q0 -27 -13.5 -70.5t-37.5 -76.5 t-53 -33q-42 0 -79 18t-69 95.5t-32 232.5q0 14 3 42.5t3 43.5q0 31 -10 51q-2 7 -9 17q-8 11 -8 18q0 27 15 105q4 16 4 47q0 15 -2 47t-2 47q0 37 10 109t10 112q0 26 -7 72t-7 71q0 67 23 100.5t50 33.5q115 0 115 -242q0 -113 -1.5 -136.5t-14.5 -88.5q-17 -85 -17 -148 z" />
<glyph unicode="&#xcb;" horiz-adv-x="1264" d="M754 1307q70 0 108 -15.5t58.5 -46.5t58.5 -125l45 -112q39 -85 61.5 -165t33 -144t15.5 -119.5t10 -104.5q14 -116 30.5 -180.5t33.5 -112.5t17 -71q0 -29 -21 -58q-22 -28 -63 -28q-51 0 -90 34t-39 68q0 7 6.5 17t6.5 16q0 7 -15.5 15.5t-15.5 15.5q0 6 3 17.5t3 19.5 q0 25 -13 98q-14 74 -28 182l-21 176q-9 67 -19 108t-33 95t-75 158q-35 73 -45 73q-19 0 -37 -49q-14 -34 -35 -60l-50 -61q-29 -36 -68 -106q-30 -52 -60 -150q-19 -57 -53 -100q-31 -45 -49 -109.5t-23 -76.5q-18 -45 -36.5 -117t-31.5 -109t-39.5 -62.5t-72.5 -25.5 q-98 0 -98 80q0 61 54 154q23 42 42 88t31 83l23 66q30 94 79 181l76 132q19 33 26 50l25 57q88 200 155.5 262t129.5 62z" />
<glyph unicode="&#x41b;" horiz-adv-x="1264" d="M754 1307q70 0 108 -15.5t58.5 -46.5t58.5 -125l45 -112q39 -85 61.5 -165t33 -144t15.5 -119.5t10 -104.5q14 -116 30.5 -180.5t33.5 -112.5t17 -71q0 -29 -21 -58q-22 -28 -63 -28q-51 0 -90 34t-39 68q0 7 6.5 17t6.5 16q0 7 -15.5 15.5t-15.5 15.5q0 6 3 17.5t3 19.5 q0 25 -13 98q-14 74 -28 182l-21 176q-9 67 -19 108t-33 95t-75 158q-35 73 -45 73q-19 0 -37 -49q-14 -34 -35 -60l-50 -61q-29 -36 -68 -106q-30 -52 -60 -150q-19 -57 -53 -100q-31 -45 -49 -109.5t-23 -76.5q-18 -45 -36.5 -117t-31.5 -109t-39.5 -62.5t-72.5 -25.5 q-98 0 -98 80q0 61 54 154q23 42 42 88t31 83l23 66q30 94 79 181l76 132q19 33 26 50l25 57q88 200 155.5 262t129.5 62z" />
<glyph unicode="&#xcc;" horiz-adv-x="1624" d="M1209 1182q75 0 123 -39q47 -38 70 -86t54 -133q6 -18 26.5 -66t26.5 -80q7 -32 7 -88q0 -65 -4 -108q-4 -49 -4 -66q0 -68 26 -147l28 -78q11 -32 17 -58.5t6 -56.5q0 -26 -12 -50.5t-31 -24.5q-85 0 -147 72q-62 73 -62 300q0 26 2.5 73.5t2.5 82.5q0 38 -19 126 q-19 89 -49.5 158.5t-65.5 69.5q-41 0 -83 -48t-107 -152q-64 -104 -84 -131q-37 -53 -82 -186q-46 -132 -78.5 -192.5t-91.5 -60.5q-68 0 -91.5 39t-30.5 149t-11 142l-17 152q-8 77 -18 133q-10 57 -22 57q-15 0 -49 -45.5t-64 -134.5q-77 -226 -77 -326q0 -62 14 -109.5 t14 -136.5q0 -54 -24 -90.5t-52 -36.5q-79 0 -103 50t-24 147q0 248 25.5 423.5t122.5 289.5l48 56l51 55.5t53 49t38 19.5q115 0 160 -71t55 -142q3 -19 22 -84t19 -117q0 -12 -1 -35q-1 -24 -1 -32q0 -19 4 -19q3 0 8 8q11 21 15 56q12 70 135.5 238t191.5 223 q73 61 140 61z" />
<glyph unicode="&#x41c;" horiz-adv-x="1624" d="M1209 1182q75 0 123 -39q47 -38 70 -86t54 -133q6 -18 26.5 -66t26.5 -80q7 -32 7 -88q0 -65 -4 -108q-4 -49 -4 -66q0 -68 26 -147l28 -78q11 -32 17 -58.5t6 -56.5q0 -26 -12 -50.5t-31 -24.5q-85 0 -147 72q-62 73 -62 300q0 26 2.5 73.5t2.5 82.5q0 38 -19 126 q-19 89 -49.5 158.5t-65.5 69.5q-41 0 -83 -48t-107 -152q-64 -104 -84 -131q-37 -53 -82 -186q-46 -132 -78.5 -192.5t-91.5 -60.5q-68 0 -91.5 39t-30.5 149t-11 142l-17 152q-8 77 -18 133q-10 57 -22 57q-15 0 -49 -45.5t-64 -134.5q-77 -226 -77 -326q0 -62 14 -109.5 t14 -136.5q0 -54 -24 -90.5t-52 -36.5q-79 0 -103 50t-24 147q0 248 25.5 423.5t122.5 289.5l48 56l51 55.5t53 49t38 19.5q115 0 160 -71t55 -142q3 -19 22 -84t19 -117q0 -12 -1 -35q-1 -24 -1 -32q0 -19 4 -19q3 0 8 8q11 21 15 56q12 70 135.5 238t191.5 223 q73 61 140 61z" />
<glyph unicode="&#xcd;" horiz-adv-x="1325" d="M277 1299q80 0 101 -71q21 -70 21 -165q0 -10 -11 -26t-11 -25q0 -12 4 -37t4 -39q0 -25 -8.5 -70.5t-10.5 -74.5q0 -7 -1 -19t-1 -18q-1 -10 -2 -31q-1 -22 -2 -33q297 0 596 101q4 54 12 148q9 93 9 136v103q7 38 32.5 72t59.5 34q53 0 70.5 -20.5t17.5 -56.5 q0 -8 -1 -23.5t-1 -22.5q0 -15 -4 -43t-4 -43q0 -16 4 -49.5t4 -48.5q0 -20 -18.5 -62t-18.5 -57q0 -6 7 -6q9 0 40.5 21.5t49.5 21.5q69 0 69 -98q0 -54 -13.5 -67t-63.5 -24q-51 -10 -95 -34q0 -53 14.5 -72t14.5 -75q0 -45 -10 -65t-10 -103v-127q-3 -21 -3 -54 q0 -59 8.5 -80t21.5 -36t13 -33q0 -22 -46 -56.5t-62 -34.5q-17 0 -57 37q-39 37 -39 56q0 15 20 84q4 14 4 39q0 26 -4 39q-14 64 -14 78q0 10 7 30t7 33q0 26 -8 75q-8 50 -8 109q0 21 4 99q-113 -38 -294 -68q-180 -31 -263 -31q-11 0 -30 3t-25 3q-5 0 -7 -5.5t-3 -15 t-1 -13.5v-60q0 -23 5 -31t18 -12q14 -4 18 -6q23 -9 56 -63q34 -54 34 -80q0 -265 -116 -265q-55 0 -87 31.5t-44 77.5t-15 107q-3 60 -4 90q-2 56 -11 125q-9 70 -22 96q-8 17 -25 31q-7 5 -21 12t-22 13t-8 14q0 34 16 55t40.5 39.5t29.5 25.5q10 17 14 138v102v154 q0 11 -2 30l-2 39q-2 20 -2 31q0 53 28 85q26 32 57 32z" />
<glyph unicode="&#x41d;" horiz-adv-x="1325" d="M277 1299q80 0 101 -71q21 -70 21 -165q0 -10 -11 -26t-11 -25q0 -12 4 -37t4 -39q0 -25 -8.5 -70.5t-10.5 -74.5q0 -7 -1 -19t-1 -18q-1 -10 -2 -31q-1 -22 -2 -33q297 0 596 101q4 54 12 148q9 93 9 136v103q7 38 32.5 72t59.5 34q53 0 70.5 -20.5t17.5 -56.5 q0 -8 -1 -23.5t-1 -22.5q0 -15 -4 -43t-4 -43q0 -16 4 -49.5t4 -48.5q0 -20 -18.5 -62t-18.5 -57q0 -6 7 -6q9 0 40.5 21.5t49.5 21.5q69 0 69 -98q0 -54 -13.5 -67t-63.5 -24q-51 -10 -95 -34q0 -53 14.5 -72t14.5 -75q0 -45 -10 -65t-10 -103v-127q-3 -21 -3 -54 q0 -59 8.5 -80t21.5 -36t13 -33q0 -22 -46 -56.5t-62 -34.5q-17 0 -57 37q-39 37 -39 56q0 15 20 84q4 14 4 39q0 26 -4 39q-14 64 -14 78q0 10 7 30t7 33q0 26 -8 75q-8 50 -8 109q0 21 4 99q-113 -38 -294 -68q-180 -31 -263 -31q-11 0 -30 3t-25 3q-5 0 -7 -5.5t-3 -15 t-1 -13.5v-60q0 -23 5 -31t18 -12q14 -4 18 -6q23 -9 56 -63q34 -54 34 -80q0 -265 -116 -265q-55 0 -87 31.5t-44 77.5t-15 107q-3 60 -4 90q-2 56 -11 125q-9 70 -22 96q-8 17 -25 31q-7 5 -21 12t-22 13t-8 14q0 34 16 55t40.5 39.5t29.5 25.5q10 17 14 138v102v154 q0 11 -2 30l-2 39q-2 20 -2 31q0 53 28 85q26 32 57 32z" />
<glyph unicode="&#xce;" horiz-adv-x="1532" d="M692 1258q63 0 182 -41q120 -41 241 -110q122 -69 205 -158.5t83 -184.5q0 -75 -40 -173.5t-103.5 -190t-130.5 -150.5q-91 -80 -215 -134.5t-236 -54.5q-218 0 -381 122q-163 120 -213 460q-4 37 -4 47q0 35 10 46t30 16.5t30 17.5t10 49q0 10 -18.5 32.5t-18.5 35.5 q0 73 156 186q117 87 214 137q97 48 199 48zM672 1075q-78 0 -139 -38l-31 -22q-23 -18 -41.5 -28.5t-44.5 -15.5q-11 -2 -41.5 -5.5t-30.5 -10.5q0 -5 22.5 -27.5t22.5 -36.5q0 -13 -8.5 -27.5t-22.5 -30.5l-32 -38q-49 -57 -49 -152q0 -34 2 -53q13 -134 75.5 -216 t148.5 -114q85 -34 175 -34q80 0 176 47q97 47 182 125q86 78 138.5 172t52.5 186q0 79 -105 152q-106 74 -243 120.5t-207 46.5z" />
<glyph unicode="&#x41e;" horiz-adv-x="1532" d="M692 1258q63 0 182 -41q120 -41 241 -110q122 -69 205 -158.5t83 -184.5q0 -75 -40 -173.5t-103.5 -190t-130.5 -150.5q-91 -80 -215 -134.5t-236 -54.5q-218 0 -381 122q-163 120 -213 460q-4 37 -4 47q0 35 10 46t30 16.5t30 17.5t10 49q0 10 -18.5 32.5t-18.5 35.5 q0 73 156 186q117 87 214 137q97 48 199 48zM672 1075q-78 0 -139 -38l-31 -22q-23 -18 -41.5 -28.5t-44.5 -15.5q-11 -2 -41.5 -5.5t-30.5 -10.5q0 -5 22.5 -27.5t22.5 -36.5q0 -13 -8.5 -27.5t-22.5 -30.5l-32 -38q-49 -57 -49 -152q0 -34 2 -53q13 -134 75.5 -216 t148.5 -114q85 -34 175 -34q80 0 176 47q97 47 182 125q86 78 138.5 172t52.5 186q0 79 -105 152q-106 74 -243 120.5t-207 46.5z" />
<glyph unicode="&#xcf;" horiz-adv-x="1581" d="M551 1305q40 0 53 -21t20 -54.5t19 -33.5q10 0 37 16.5t56.5 29.5t78.5 20q47 4 127 4q84 0 162 18q117 27 166 27q18 0 51 -2t47 -2q8 0 22 14q13 15 23 15q55 0 91 -26t36 -81q0 -43 -26 -56.5t-80 -13.5h-49q-19 0 -64 -4q-12 -125 -12 -135q0 -17 4 -47.5t4 -48.5 q0 -25 -13 -46.5t-17.5 -32.5t-4.5 -52v-162q1 -26 13 -174l3 -73q3 -48 3 -72q0 -20 2 -59t2 -58q0 -43 -8 -76q-9 -35 -9 -47q0 -17 17.5 -50t17.5 -45q0 -22 -48 -57t-62 -35q-19 0 -58 36.5t-39 55.5q0 12 11.5 39t11.5 44q0 34 -8 76t-8 79q0 10 7 31t7 33 q0 13 -6 79.5t-8 141.5q0 45 -3.5 112t-3.5 103q0 64 7 123q14 143 14 186q0 11 -3 35t-5 57q-107 0 -204 -15t-294 -54q-3 -76 -3 -250q2 -66 3 -129l4 -123q2 -60 3 -118t1 -113q0 -37 -4 -107.5t-4 -105.5v-103v-56q1 -16 3.5 -47.5t2.5 -46.5q0 -24 -23.5 -44.5 t-50.5 -20.5q-57 0 -94 27t-37 122q0 26 5 74t6 91q2 68 6 112t4 70q0 12 -1 37q-1 26 -1 39q0 17 7 51t7 53q0 43 -2 129t-2 129q0 23 2.5 50t3.5 52v189q-82 -16 -161 -40t-109 -24q-98 0 -98 68q0 50 19 67q20 17 78.5 27.5t94.5 22.5q51 17 110 27t66 20q4 4 4 12 q0 6 -2 18.5t-2 18.5q0 32 27 56t57 24z" />
<glyph unicode="&#x41f;" horiz-adv-x="1581" d="M551 1305q40 0 53 -21t20 -54.5t19 -33.5q10 0 37 16.5t56.5 29.5t78.5 20q47 4 127 4q84 0 162 18q117 27 166 27q18 0 51 -2t47 -2q8 0 22 14q13 15 23 15q55 0 91 -26t36 -81q0 -43 -26 -56.5t-80 -13.5h-49q-19 0 -64 -4q-12 -125 -12 -135q0 -17 4 -47.5t4 -48.5 q0 -25 -13 -46.5t-17.5 -32.5t-4.5 -52v-162q1 -26 13 -174l3 -73q3 -48 3 -72q0 -20 2 -59t2 -58q0 -43 -8 -76q-9 -35 -9 -47q0 -17 17.5 -50t17.5 -45q0 -22 -48 -57t-62 -35q-19 0 -58 36.5t-39 55.5q0 12 11.5 39t11.5 44q0 34 -8 76t-8 79q0 10 7 31t7 33 q0 13 -6 79.5t-8 141.5q0 45 -3.5 112t-3.5 103q0 64 7 123q14 143 14 186q0 11 -3 35t-5 57q-107 0 -204 -15t-294 -54q-3 -76 -3 -250q2 -66 3 -129l4 -123q2 -60 3 -118t1 -113q0 -37 -4 -107.5t-4 -105.5v-103v-56q1 -16 3.5 -47.5t2.5 -46.5q0 -24 -23.5 -44.5 t-50.5 -20.5q-57 0 -94 27t-37 122q0 26 5 74t6 91q2 68 6 112t4 70q0 12 -1 37q-1 26 -1 39q0 17 7 51t7 53q0 43 -2 129t-2 129q0 23 2.5 50t3.5 52v189q-82 -16 -161 -40t-109 -24q-98 0 -98 68q0 50 19 67q20 17 78.5 27.5t94.5 22.5q51 17 110 27t66 20q4 4 4 12 q0 6 -2 18.5t-2 18.5q0 32 27 56t57 24z" />
<glyph unicode="&#xd0;" horiz-adv-x="1131" d="M561 1336q60 0 130 -9.5t139 -28t112 -42.5q84 -45 136.5 -123.5t52.5 -155.5q0 -135 -108.5 -286t-272.5 -252t-318 -101q7 -91 18 -147q10 -55 25 -124t15 -90q0 -16 -18 -29.5t-38 -13.5q-76 0 -114 54t-49 143t-11 230v127q0 27 -1 86t-1 88q0 149 21.5 233t83.5 84 q35 0 73.5 -33.5t38.5 -68.5q0 -12 -10.5 -37t-15.5 -53q-8 -62 -8 -170q0 -9 -1 -24t-1 -21q0 -29 11.5 -42.5t47.5 -13.5q49 0 125 41.5t154.5 110.5t129 144.5t50.5 140.5q0 105 -102 152.5t-267 47.5q-308 0 -371 -53q-23 -20 -37 -55q-15 -34 -27 -83.5t-19.5 -69 t-20.5 -19.5q-42 0 -67 9t-38 40q-8 22 -8 45q0 39 39 117q32 65 53.5 99.5t74.5 70.5q52 37 147.5 59.5t246.5 22.5z" />
<glyph unicode="&#x420;" horiz-adv-x="1131" d="M561 1336q60 0 130 -9.5t139 -28t112 -42.5q84 -45 136.5 -123.5t52.5 -155.5q0 -135 -108.5 -286t-272.5 -252t-318 -101q7 -91 18 -147q10 -55 25 -124t15 -90q0 -16 -18 -29.5t-38 -13.5q-76 0 -114 54t-49 143t-11 230v127q0 27 -1 86t-1 88q0 149 21.5 233t83.5 84 q35 0 73.5 -33.5t38.5 -68.5q0 -12 -10.5 -37t-15.5 -53q-8 -62 -8 -170q0 -9 -1 -24t-1 -21q0 -29 11.5 -42.5t47.5 -13.5q49 0 125 41.5t154.5 110.5t129 144.5t50.5 140.5q0 105 -102 152.5t-267 47.5q-308 0 -371 -53q-23 -20 -37 -55q-15 -34 -27 -83.5t-19.5 -69 t-20.5 -19.5q-42 0 -67 9t-38 40q-8 22 -8 45q0 39 39 117q32 65 53.5 99.5t74.5 70.5q52 37 147.5 59.5t246.5 22.5z" />
<glyph unicode="&#xd1;" horiz-adv-x="1092" d="M637 1260q75 0 142 -63t102 -218q7 -27 7 -45q0 -84 -101 -84q-47 0 -61 24.5t-17 70.5t-10 61q-28 49 -72 49q-58 0 -132 -74t-130 -189t-68 -229q0 -66 37.5 -142.5t95.5 -127.5q59 -51 117 -51q36 0 121.5 48t118.5 85q13 15 29 46t38 42.5t78 11.5q10 0 29 1 q20 1 28 1q52 0 52 -36q0 -22 -10 -48q-19 -47 -118.5 -129t-209.5 -147.5t-154 -65.5q-65 0 -166 52t-178.5 158.5t-77.5 260.5q0 8 1 21q1 14 1 20q13 168 63 288q50 121 144 216q57 57 151 125t150 68z" />
<glyph unicode="&#x421;" horiz-adv-x="1092" d="M637 1260q75 0 142 -63t102 -218q7 -27 7 -45q0 -84 -101 -84q-47 0 -61 24.5t-17 70.5t-10 61q-28 49 -72 49q-58 0 -132 -74t-130 -189t-68 -229q0 -66 37.5 -142.5t95.5 -127.5q59 -51 117 -51q36 0 121.5 48t118.5 85q13 15 29 46t38 42.5t78 11.5q10 0 29 1 q20 1 28 1q52 0 52 -36q0 -22 -10 -48q-19 -47 -118.5 -129t-209.5 -147.5t-154 -65.5q-65 0 -166 52t-178.5 158.5t-77.5 260.5q0 8 1 21q1 14 1 20q13 168 63 288q50 121 144 216q57 57 151 125t150 68z" />
<glyph unicode="&#xd2;" horiz-adv-x="1295" d="M611 1305q40 0 53 -18q13 -17 20 -47q8 -29 21 -29q11 0 82 24q72 24 159 41q79 17 158 36q80 20 115 27q36 7 71 7q18 0 51 -2t48 -2q8 0 21.5 14t23.5 14q54 0 90.5 -26.5t36.5 -79.5q0 -66 -74 -66q-10 0 -27.5 1t-23.5 1q-28 0 -55 -4t-118.5 -22.5t-113.5 -22.5 q-75 -14 -143 -31l-146 -36q-78 -19 -170 -37v-406q5 -244 5 -329q0 -22 -2.5 -53.5t-2.5 -47.5q0 -59 13 -98q5 -15 14 -37t14 -39.5t7 -36.5v-53q3 -18 21 -52q17 -33 17 -51q0 -21 -21.5 -41t-47.5 -20q-89 0 -137 94t-48 174q0 38 17.5 113.5t17.5 106.5 q0 13 -17.5 38.5t-17.5 38.5q0 18 7.5 55.5t7.5 59.5q0 49 -10.5 131t-10.5 123q0 23 2.5 50t3.5 52v185q-57 -8 -163 -25.5t-136 -17.5q-21 0 -63 3q-41 3 -63 3q-27 0 -79 -6t-78 -6q-40 0 -63 42t-23 95q0 26 25 47.5t51 21.5q9 0 25 -8t24 -8q29 0 44 2q42 6 86 6 q41 0 84 -6t127 -6q19 0 59 19q39 20 60 20q36 0 56 -8t25 -8q2 0 2 12v45q2 58 19.5 71t69.5 13z" />
<glyph unicode="&#x422;" horiz-adv-x="1295" d="M611 1305q40 0 53 -18q13 -17 20 -47q8 -29 21 -29q11 0 82 24q72 24 159 41q79 17 158 36q80 20 115 27q36 7 71 7q18 0 51 -2t48 -2q8 0 21.5 14t23.5 14q54 0 90.5 -26.5t36.5 -79.5q0 -66 -74 -66q-10 0 -27.5 1t-23.5 1q-28 0 -55 -4t-118.5 -22.5t-113.5 -22.5 q-75 -14 -143 -31l-146 -36q-78 -19 -170 -37v-406q5 -244 5 -329q0 -22 -2.5 -53.5t-2.5 -47.5q0 -59 13 -98q5 -15 14 -37t14 -39.5t7 -36.5v-53q3 -18 21 -52q17 -33 17 -51q0 -21 -21.5 -41t-47.5 -20q-89 0 -137 94t-48 174q0 38 17.5 113.5t17.5 106.5 q0 13 -17.5 38.5t-17.5 38.5q0 18 7.5 55.5t7.5 59.5q0 49 -10.5 131t-10.5 123q0 23 2.5 50t3.5 52v185q-57 -8 -163 -25.5t-136 -17.5q-21 0 -63 3q-41 3 -63 3q-27 0 -79 -6t-78 -6q-40 0 -63 42t-23 95q0 26 25 47.5t51 21.5q9 0 25 -8t24 -8q29 0 44 2q42 6 86 6 q41 0 84 -6t127 -6q19 0 59 19q39 20 60 20q36 0 56 -8t25 -8q2 0 2 12v45q2 58 19.5 71t69.5 13z" />
<glyph unicode="&#xd3;" horiz-adv-x="1082" d="M979 1364q24 0 47 -11.5t23 -29.5q0 -32 -15.5 -61.5t-77.5 -136t-91 -172.5q-9 -21 -26 -84.5t-52.5 -153t-116.5 -250.5q-32 -64 -80 -194.5t-79 -193t-83 -94.5q-33 -20 -78 -20q-41 1 -69.5 22t-28.5 48q0 22 11 44t52 90l87 154q47 85 114 224q-36 44 -116 132 l-109 122q-30 35 -62 82.5t-61 107.5q-24 52 -59 117t-46.5 91.5t-11.5 47.5q0 19 21.5 36.5t46.5 17.5q66 0 103 -36t94 -137.5t114 -183t162 -178.5q57 128 96 208t60 116l35 61q15 27 30 66q29 73 61.5 111t104.5 38z" />
<glyph unicode="&#x423;" horiz-adv-x="1082" d="M979 1364q24 0 47 -11.5t23 -29.5q0 -32 -15.5 -61.5t-77.5 -136t-91 -172.5q-9 -21 -26 -84.5t-52.5 -153t-116.5 -250.5q-32 -64 -80 -194.5t-79 -193t-83 -94.5q-33 -20 -78 -20q-41 1 -69.5 22t-28.5 48q0 22 11 44t52 90l87 154q47 85 114 224q-36 44 -116 132 l-109 122q-30 35 -62 82.5t-61 107.5q-24 52 -59 117t-46.5 91.5t-11.5 47.5q0 19 21.5 36.5t46.5 17.5q66 0 103 -36t94 -137.5t114 -183t162 -178.5q57 128 96 208t60 116l35 61q15 27 30 66q29 73 61.5 111t104.5 38z" />
<glyph unicode="&#xd4;" horiz-adv-x="1546" d="M695 1245v64q0 48 15 68t68 20q66 0 88.5 -13t22.5 -51q0 -10 -8 -83q185 -8 318.5 -77.5t201.5 -172.5q66 -104 66 -213q0 -81 -36 -178.5t-115 -199t-203.5 -187.5t-291.5 -138l7 -41q10 -47 10 -53q0 -50 -31.5 -78.5t-89.5 -28.5q-42 0 -66 58t-24 117 q-229 19 -394.5 156t-165.5 390q0 64 26.5 121t69 91t85.5 34q98 0 98 -61q0 -44 -35.5 -73t-48 -45.5t-12.5 -94.5q0 -182 116 -261.5t277 -86.5q15 83 31 259.5t16 266.5q0 20 -3 61t-3 62q0 17 23 200q-144 -2 -266 -81q-36 -23 -80.5 -59t-72.5 -50t-67 -14 q-78 0 -78 37q0 42 40.5 95t114.5 103t176 87t221 50zM883 1075q-11 -90 -13 -129.5t-4 -132.5q-3 -93 -9 -224t-21 -323q277 103 365.5 246.5t88.5 280.5q0 46 -28.5 110t-119 118t-259.5 54z" />
<glyph unicode="&#x424;" horiz-adv-x="1546" d="M695 1245v64q0 48 15 68t68 20q66 0 88.5 -13t22.5 -51q0 -10 -8 -83q185 -8 318.5 -77.5t201.5 -172.5q66 -104 66 -213q0 -81 -36 -178.5t-115 -199t-203.5 -187.5t-291.5 -138l7 -41q10 -47 10 -53q0 -50 -31.5 -78.5t-89.5 -28.5q-42 0 -66 58t-24 117 q-229 19 -394.5 156t-165.5 390q0 64 26.5 121t69 91t85.5 34q98 0 98 -61q0 -44 -35.5 -73t-48 -45.5t-12.5 -94.5q0 -182 116 -261.5t277 -86.5q15 83 31 259.5t16 266.5q0 20 -3 61t-3 62q0 17 23 200q-144 -2 -266 -81q-36 -23 -80.5 -59t-72.5 -50t-67 -14 q-78 0 -78 37q0 42 40.5 95t114.5 103t176 87t221 50zM883 1075q-11 -90 -13 -129.5t-4 -132.5q-3 -93 -9 -224t-21 -323q277 103 365.5 246.5t88.5 280.5q0 46 -28.5 110t-119 118t-259.5 54z" />
<glyph unicode="&#xd5;" horiz-adv-x="1307" d="M244 1481q63 0 95.5 -48t61 -139t46.5 -120q11 -19 40 -47t38 -45q12 -23 20.5 -72t11.5 -59q16 -49 144 -242q59 17 138.5 70t215.5 154q136 102 218 153t128 51q27 0 27 -68q0 -70 -111 -166t-196 -147q-16 -10 -52.5 -22t-53.5 -25q-11 -8 -25.5 -24t-20.5 -21 q-18 -18 -68 -49q-51 -30 -73 -45q32 -51 58 -99q27 -49 40 -69q17 -24 46.5 -55t49.5 -54.5t54 -75.5q31 -47 107 -117q77 -71 107 -105t30 -73q0 -41 -42 -70.5t-112 -29.5q-77 0 -92 19t-51 103.5t-103 145.5q-54 49 -90 106.5t-71 130.5q-34 73 -55 103q-20 29 -48 29 q-26 0 -46 -15.5t-43.5 -47.5t-29.5 -39q-16 -19 -33.5 -29.5t-72.5 -39t-101 -58.5q-43 -28 -98.5 -108.5t-84.5 -111.5q-29 -33 -79 -33q-40 0 -85 31q-44 30 -44 64q0 47 13 66t45 28q33 10 34 10q35 17 49 43.5t28 56t55 70t129 90.5q13 8 64 23.5t97 43t99 85.5 q-42 53 -57.5 82t-58.5 119.5t-108 206.5q-72 133 -79 159q-2 8 -9 40q-6 32 -16 46q-9 15 -42 42.5t-40 45.5v56q19 96 102 96z" />
<glyph unicode="&#x425;" horiz-adv-x="1307" d="M244 1481q63 0 95.5 -48t61 -139t46.5 -120q11 -19 40 -47t38 -45q12 -23 20.5 -72t11.5 -59q16 -49 144 -242q59 17 138.5 70t215.5 154q136 102 218 153t128 51q27 0 27 -68q0 -70 -111 -166t-196 -147q-16 -10 -52.5 -22t-53.5 -25q-11 -8 -25.5 -24t-20.5 -21 q-18 -18 -68 -49q-51 -30 -73 -45q32 -51 58 -99q27 -49 40 -69q17 -24 46.5 -55t49.5 -54.5t54 -75.5q31 -47 107 -117q77 -71 107 -105t30 -73q0 -41 -42 -70.5t-112 -29.5q-77 0 -92 19t-51 103.5t-103 145.5q-54 49 -90 106.5t-71 130.5q-34 73 -55 103q-20 29 -48 29 q-26 0 -46 -15.5t-43.5 -47.5t-29.5 -39q-16 -19 -33.5 -29.5t-72.5 -39t-101 -58.5q-43 -28 -98.5 -108.5t-84.5 -111.5q-29 -33 -79 -33q-40 0 -85 31q-44 30 -44 64q0 47 13 66t45 28q33 10 34 10q35 17 49 43.5t28 56t55 70t129 90.5q13 8 64 23.5t97 43t99 85.5 q-42 53 -57.5 82t-58.5 119.5t-108 206.5q-72 133 -79 159q-2 8 -9 40q-6 32 -16 46q-9 15 -42 42.5t-40 45.5v56q19 96 102 96z" />
<glyph unicode="&#xd6;" horiz-adv-x="1594" d="M363 1465q22 0 43.5 -25t21.5 -57q0 -139 -13 -182t-44 -88.5t-47.5 -133t-16.5 -301.5q0 -17 -1 -66t-1 -79q0 -164 29 -271q28 -106 111 -106q56 0 147.5 112.5t175.5 256.5q84 145 103 204q21 63 27 153q7 90 18 202q10 113 43 169t106 56q25 0 47 -16q23 -16 23 -37 q0 -84 -32 -270t-43 -266.5t-11 -231.5q0 -68 22 -157t58 -89q20 0 41 22q22 23 74 84q53 61 81 84l67 56q40 32 76 51.5t68 19.5q37 0 68 -40t31 -101q0 -93 -12 -211.5t-32.5 -243.5t-50.5 -252l-49 -238q-24 -114 -54 -222.5t-70.5 -185.5t-88.5 -77q-100 0 -100 80 q0 45 24 99q25 53 72 141q22 40 66 267t82 469t38 280q0 4 -2 4q-14 0 -60.5 -65.5t-72 -98.5t-82.5 -70q-56 -38 -127 -38q-78 0 -109 22t-40 64l-24 111q-15 69 -56 128l-151 -186q-83 -102 -158 -163t-144 -61q-65 0 -129 39q-63 40 -110 158q-47 119 -47 334 q0 37 9.5 108.5t9.5 112.5q0 33 -3.5 83.5t-3.5 76.5q0 123 29 260t76 229.5t98 92.5z" />
<glyph unicode="&#x426;" horiz-adv-x="1594" d="M363 1465q22 0 43.5 -25t21.5 -57q0 -139 -13 -182t-44 -88.5t-47.5 -133t-16.5 -301.5q0 -17 -1 -66t-1 -79q0 -164 29 -271q28 -106 111 -106q56 0 147.5 112.5t175.5 256.5q84 145 103 204q21 63 27 153q7 90 18 202q10 113 43 169t106 56q25 0 47 -16q23 -16 23 -37 q0 -84 -32 -270t-43 -266.5t-11 -231.5q0 -68 22 -157t58 -89q20 0 41 22q22 23 74 84q53 61 81 84l67 56q40 32 76 51.5t68 19.5q37 0 68 -40t31 -101q0 -93 -12 -211.5t-32.5 -243.5t-50.5 -252l-49 -238q-24 -114 -54 -222.5t-70.5 -185.5t-88.5 -77q-100 0 -100 80 q0 45 24 99q25 53 72 141q22 40 66 267t82 469t38 280q0 4 -2 4q-14 0 -60.5 -65.5t-72 -98.5t-82.5 -70q-56 -38 -127 -38q-78 0 -109 22t-40 64l-24 111q-15 69 -56 128l-151 -186q-83 -102 -158 -163t-144 -61q-65 0 -129 39q-63 40 -110 158q-47 119 -47 334 q0 37 9.5 108.5t9.5 112.5q0 33 -3.5 83.5t-3.5 76.5q0 123 29 260t76 229.5t98 92.5z" />
<glyph unicode="&#xd7;" horiz-adv-x="1186" d="M983 1276q41 0 62.5 -20t21.5 -43q0 -66 -31 -143q-31 -76 -59 -122q-21 -34 -39.5 -126t-21.5 -160q46 9 67 24t51 15q49 0 76 -26t27 -64q0 -36 -55.5 -65.5t-188.5 -66.5q0 -118 -5 -175.5t-12 -98t-7 -61.5q0 -33 16 -54t16 -43q0 -30 -30.5 -58t-63.5 -28 q-31 0 -71 15q-39 15 -39 41q0 18 7 59t7 61q0 22 -3 44q-3 23 -3 51q0 10 1.5 25t5.5 32q3 18 5 33q1 7 2 22l1 21l2 21q1 14 1 22q0 6 1 17t1 18q-97 -21 -200 -21q-194 0 -323.5 85t-129.5 284q0 86 31 200l24 122q11 54 42 92q32 38 102 38q55 0 55 -86q0 -54 -11 -88 q-11 -33 -33 -74q-21 -42 -32.5 -78.5t-11.5 -97.5q0 -127 83.5 -184t209.5 -57q102 0 200 33q15 137 32.5 223t33.5 130.5t40 90.5q25 46 28 53q6 14 19.5 68.5t33 77t65.5 22.5z" />
<glyph unicode="&#x427;" horiz-adv-x="1186" d="M983 1276q41 0 62.5 -20t21.5 -43q0 -66 -31 -143q-31 -76 -59 -122q-21 -34 -39.5 -126t-21.5 -160q46 9 67 24t51 15q49 0 76 -26t27 -64q0 -36 -55.5 -65.5t-188.5 -66.5q0 -118 -5 -175.5t-12 -98t-7 -61.5q0 -33 16 -54t16 -43q0 -30 -30.5 -58t-63.5 -28 q-31 0 -71 15q-39 15 -39 41q0 18 7 59t7 61q0 22 -3 44q-3 23 -3 51q0 10 1.5 25t5.5 32q3 18 5 33q1 7 2 22l1 21l2 21q1 14 1 22q0 6 1 17t1 18q-97 -21 -200 -21q-194 0 -323.5 85t-129.5 284q0 86 31 200l24 122q11 54 42 92q32 38 102 38q55 0 55 -86q0 -54 -11 -88 q-11 -33 -33 -74q-21 -42 -32.5 -78.5t-11.5 -97.5q0 -127 83.5 -184t209.5 -57q102 0 200 33q15 137 32.5 223t33.5 130.5t40 90.5q25 46 28 53q6 14 19.5 68.5t33 77t65.5 22.5z" />
<glyph unicode="&#xd8;" horiz-adv-x="1999" d="M246 1061q51 0 73.5 -20t22.5 -84q0 -39 -12 -94.5t-16 -120.5q-2 -25 -2 -66q0 -48 8 -126t10 -126q1 -30 3 -80t10 -96t25 -75q18 -31 48 -31q108 0 299 503q18 47 53 159t60 172q26 60 69 103q44 42 107 42q21 0 37 -29.5t16 -61.5q0 -33 -10.5 -103t-17.5 -135.5 t-7 -166.5v-57q7 -388 105 -388q42 0 99.5 85t108.5 202t76 207l36 138q18 70 41 129q24 59 58 95.5t82 36.5q74 0 74 -106q0 -20 -1 -128q-1 -109 -1 -251q0 -24 -2 -83t-2 -99q0 -203 41 -203q11 0 25.5 26t21.5 33q10 11 29 11q18 0 35 -11q34 -19 34 -45q0 -41 -28 -97 t-68 -95.5t-72 -39.5q-87 0 -126 89q-38 89 -58 231q-4 21 -4 62q4 66 4 119v90q-51 -143 -80.5 -217.5t-77.5 -159.5t-111 -140t-138 -55q-146 0 -201 126.5t-66 340.5v105q-19 -65 -38.5 -109t-86.5 -180q-75 -156 -136.5 -240t-158.5 -84q-109 0 -163.5 51t-74.5 134 t-42 256q-23 166 -23 313q0 162 30 253t83 91z" />
<glyph unicode="&#x428;" horiz-adv-x="1999" d="M246 1061q51 0 73.5 -20t22.5 -84q0 -39 -12 -94.5t-16 -120.5q-2 -25 -2 -66q0 -48 8 -126t10 -126q1 -30 3 -80t10 -96t25 -75q18 -31 48 -31q108 0 299 503q18 47 53 159t60 172q26 60 69 103q44 42 107 42q21 0 37 -29.5t16 -61.5q0 -33 -10.5 -103t-17.5 -135.5 t-7 -166.5v-57q7 -388 105 -388q42 0 99.5 85t108.5 202t76 207l36 138q18 70 41 129q24 59 58 95.5t82 36.5q74 0 74 -106q0 -20 -1 -128q-1 -109 -1 -251q0 -24 -2 -83t-2 -99q0 -203 41 -203q11 0 25.5 26t21.5 33q10 11 29 11q18 0 35 -11q34 -19 34 -45q0 -41 -28 -97 t-68 -95.5t-72 -39.5q-87 0 -126 89q-38 89 -58 231q-4 21 -4 62q4 66 4 119v90q-51 -143 -80.5 -217.5t-77.5 -159.5t-111 -140t-138 -55q-146 0 -201 126.5t-66 340.5v105q-19 -65 -38.5 -109t-86.5 -180q-75 -156 -136.5 -240t-158.5 -84q-109 0 -163.5 51t-74.5 134 t-42 256q-23 166 -23 313q0 162 30 253t83 91z" />
<glyph unicode="&#xd9;" horiz-adv-x="2101" d="M1770 -635l98 201q24 47 49 186t43 286q19 145 19 155h-11q-18 -2 -21 -5t-16 -22t-42 -45q-55 -47 -97.5 -73.5t-93.5 -26.5q-45 0 -74 21q-29 22 -46 59q-16 38 -28 99l-20 105q-8 66 -8 91q0 28 8 90q4 37 4 75l-77 -190q-46 -113 -93 -192t-106 -128t-133 -49 q-197 0 -244 260q-23 122 -23 306q-17 -54 -26.5 -76.5t-33.5 -70.5l-65 -134q-13 -30 -44 -95q-30 -64 -65 -114t-81 -84q-47 -33 -104 -33q-179 0 -239 169.5t-60 471.5q0 30 -2 89q-3 58 -3 100q0 352 117 352q55 0 76.5 -19t21.5 -85q0 -72 -8 -113l-15 -82 q-7 -41 -7 -113v-133q0 -199 19 -326.5t79 -127.5q63 0 142 154t155 348q20 49 53.5 175t62 205t78 137t123.5 58q23 0 39 -30q17 -31 17 -62q0 -91 -8 -140q-7 -49 -22.5 -107t-23.5 -126t-8 -188q0 -145 21.5 -265t81.5 -120q42 0 98 83q57 83 108 198t78 210l75 277 q34 124 75 193t104 69q78 0 78 -107q0 -60 -11 -207.5t-17.5 -261t-6.5 -264.5q0 -178 25 -178q13 0 22 18q3 3 5.5 9t5.5 10q8 14 55 47l47 38q26 21 47 34q22 13 53.5 22.5t71.5 9.5q100 0 100 -180v-53q0 -66 -17 -181q-17 -114 -75 -358q-63 -266 -114 -332 q-35 -43 -80 -43q-36 0 -65 29.5t-29 66.5q0 19 8 33z" />
<glyph unicode="&#x429;" horiz-adv-x="2101" d="M1770 -635l98 201q24 47 49 186t43 286q19 145 19 155h-11q-18 -2 -21 -5t-16 -22t-42 -45q-55 -47 -97.5 -73.5t-93.5 -26.5q-45 0 -74 21q-29 22 -46 59q-16 38 -28 99l-20 105q-8 66 -8 91q0 28 8 90q4 37 4 75l-77 -190q-46 -113 -93 -192t-106 -128t-133 -49 q-197 0 -244 260q-23 122 -23 306q-17 -54 -26.5 -76.5t-33.5 -70.5l-65 -134q-13 -30 -44 -95q-30 -64 -65 -114t-81 -84q-47 -33 -104 -33q-179 0 -239 169.5t-60 471.5q0 30 -2 89q-3 58 -3 100q0 352 117 352q55 0 76.5 -19t21.5 -85q0 -72 -8 -113l-15 -82 q-7 -41 -7 -113v-133q0 -199 19 -326.5t79 -127.5q63 0 142 154t155 348q20 49 53.5 175t62 205t78 137t123.5 58q23 0 39 -30q17 -31 17 -62q0 -91 -8 -140q-7 -49 -22.5 -107t-23.5 -126t-8 -188q0 -145 21.5 -265t81.5 -120q42 0 98 83q57 83 108 198t78 210l75 277 q34 124 75 193t104 69q78 0 78 -107q0 -60 -11 -207.5t-17.5 -261t-6.5 -264.5q0 -178 25 -178q13 0 22 18q3 3 5.5 9t5.5 10q8 14 55 47l47 38q26 21 47 34q22 13 53.5 22.5t71.5 9.5q100 0 100 -180v-53q0 -66 -17 -181q-17 -114 -75 -358q-63 -266 -114 -332 q-35 -43 -80 -43q-36 0 -65 29.5t-29 66.5q0 19 8 33z" />
<glyph unicode="&#xda;" horiz-adv-x="1284" d="M457 1356q23 0 44.5 -19t27.5 -42v-60q-17 -106 -17 -198q0 -68 2.5 -89t3.5 -94q33 4 80 4q19 0 105 -4q12 0 97 -2q84 -1 135.5 -12.5t107.5 -44.5q177 -106 177 -338q0 -99 -30.5 -175t-79.5 -131q-49 -54 -100 -89q-50 -36 -125 -81q-124 -73 -178 -93.5t-94 -20.5 q-6 0 -27 1t-43 1q-41 0 -70 -2q-143 0 -143 86q0 32 28 61t60 29q7 0 20 -5t19 -5q11 0 31.5 5t25.5 5q21 0 45 -7t41 -7q36 0 84 24q103 53 186.5 111t138 133.5t54.5 161.5q0 71 -41 129.5t-122 92.5t-193 34q-85 0 -185 -20q0 -136 5 -205q5 -55 11 -81.5t17 -55t15 -50 t4 -61.5q0 -105 -43 -133q-19 -12 -43 -12t-45 12q-35 19 -35 61q0 9 1 25t1 22q0 8 -19.5 14t-19.5 13q0 6 1 22.5t1 26.5q0 19 -6 50.5t-6 88.5q0 14 1 42t1 42v154h-26q-4 -1 -11 -7q-8 -5 -12 -5q-91 0 -91 110q0 41 142 56q-1 63 -9 124q-8 62 -8 93q0 36 7 84 q-64 -4 -182 -17q-119 -12 -175 -12q-13 0 -40 1t-40 1h-17q-9 2 -20 8q-10 7 -10 10q3 -3 8 -11q4 -7 4 -17q0 -47 -39 -47q-63 0 -103 29.5t-40 86.5q0 117 227 117q28 0 75 -2q46 -2 59 -2q194 0 307 23q12 25 36.5 44t51.5 19z" />
<glyph unicode="&#x42a;" horiz-adv-x="1284" d="M457 1356q23 0 44.5 -19t27.5 -42v-60q-17 -106 -17 -198q0 -68 2.5 -89t3.5 -94q33 4 80 4q19 0 105 -4q12 0 97 -2q84 -1 135.5 -12.5t107.5 -44.5q177 -106 177 -338q0 -99 -30.5 -175t-79.5 -131q-49 -54 -100 -89q-50 -36 -125 -81q-124 -73 -178 -93.5t-94 -20.5 q-6 0 -27 1t-43 1q-41 0 -70 -2q-143 0 -143 86q0 32 28 61t60 29q7 0 20 -5t19 -5q11 0 31.5 5t25.5 5q21 0 45 -7t41 -7q36 0 84 24q103 53 186.5 111t138 133.5t54.5 161.5q0 71 -41 129.5t-122 92.5t-193 34q-85 0 -185 -20q0 -136 5 -205q5 -55 11 -81.5t17 -55t15 -50 t4 -61.5q0 -105 -43 -133q-19 -12 -43 -12t-45 12q-35 19 -35 61q0 9 1 25t1 22q0 8 -19.5 14t-19.5 13q0 6 1 22.5t1 26.5q0 19 -6 50.5t-6 88.5q0 14 1 42t1 42v154h-26q-4 -1 -11 -7q-8 -5 -12 -5q-91 0 -91 110q0 41 142 56q-1 63 -9 124q-8 62 -8 93q0 36 7 84 q-64 -4 -182 -17q-119 -12 -175 -12q-13 0 -40 1t-40 1h-17q-9 2 -20 8q-10 7 -10 10q3 -3 8 -11q4 -7 4 -17q0 -47 -39 -47q-63 0 -103 29.5t-40 86.5q0 117 227 117q28 0 75 -2q46 -2 59 -2q194 0 307 23q12 25 36.5 44t51.5 19z" />
<glyph unicode="&#xdb;" horiz-adv-x="1397" d="M299 1342q24 0 47 -18.5t23 -41.5q0 -8 -10 -67.5t-13 -167.5v-154q49 4 60 4q17 0 46 -2q30 -3 52 -4q58 -1 105 -2t96 -15.5t106 -54.5q155 -106 155 -290q0 -114 -65 -231q-64 -118 -227 -206q-130 -71 -274 -94q-23 -4 -62 -4q-68 0 -104 27q-35 26 -35 59 q0 32 29 60t61 28q7 0 18 -5t17 -5q112 0 188 33q299 127 299 336q0 65 -42 116t-117 79t-168 28q-74 0 -142 -15q-6 -70 -6 -116q0 -66 14.5 -137.5t14.5 -128.5q0 -125 -45 -125q-62 0 -91 12q-28 12 -28 51q0 6 1.5 17t1.5 20q0 10 -17 26.5t-17 26.5q0 8 3 23q3 16 3 24 q0 9 -2 25q-2 17 -2 24q0 36 8 105q4 24 5 44q1 21 1 39q0 19 1 48q-7 0 -13.5 -5t-15.5 -5q-4 0 -13.5 2t-15.5 2q-2 0 -9 -1q-6 -1 -9 -1q-47 0 -47 106q0 20 31 30q31 11 98 21q0 57 -5 98t-5 52q0 134 16 207t41 98t59 25zM1180 1317q88 0 88 -119q0 -79 -4 -133 t-15 -162q-10 -109 -18 -229q-5 -78 -6 -220q-2 -142 -2 -241q0 -31 15 -48q16 -17 16 -25q0 -43 -33 -80t-88 -37q-90 0 -90 248v82q0 122 14 245q23 181 23 234q0 31 -1 68q-2 36 -2 57q0 14 9.5 42t9.5 44q0 23 -4 71t-4 74q0 129 92 129z" />
<glyph unicode="&#x42b;" horiz-adv-x="1397" d="M299 1342q24 0 47 -18.5t23 -41.5q0 -8 -10 -67.5t-13 -167.5v-154q49 4 60 4q17 0 46 -2q30 -3 52 -4q58 -1 105 -2t96 -15.5t106 -54.5q155 -106 155 -290q0 -114 -65 -231q-64 -118 -227 -206q-130 -71 -274 -94q-23 -4 -62 -4q-68 0 -104 27q-35 26 -35 59 q0 32 29 60t61 28q7 0 18 -5t17 -5q112 0 188 33q299 127 299 336q0 65 -42 116t-117 79t-168 28q-74 0 -142 -15q-6 -70 -6 -116q0 -66 14.5 -137.5t14.5 -128.5q0 -125 -45 -125q-62 0 -91 12q-28 12 -28 51q0 6 1.5 17t1.5 20q0 10 -17 26.5t-17 26.5q0 8 3 23q3 16 3 24 q0 9 -2 25q-2 17 -2 24q0 36 8 105q4 24 5 44q1 21 1 39q0 19 1 48q-7 0 -13.5 -5t-15.5 -5q-4 0 -13.5 2t-15.5 2q-2 0 -9 -1q-6 -1 -9 -1q-47 0 -47 106q0 20 31 30q31 11 98 21q0 57 -5 98t-5 52q0 134 16 207t41 98t59 25zM1180 1317q88 0 88 -119q0 -79 -4 -133 t-15 -162q-10 -109 -18 -229q-5 -78 -6 -220q-2 -142 -2 -241q0 -31 15 -48q16 -17 16 -25q0 -43 -33 -80t-88 -37q-90 0 -90 248v82q0 122 14 245q23 181 23 234q0 31 -1 68q-2 36 -2 57q0 14 9.5 42t9.5 44q0 23 -4 71t-4 74q0 129 92 129z" />
<glyph unicode="&#xdc;" horiz-adv-x="1090" d="M330 1342q23 0 44 -18q22 -18 28 -42v-55q-15 -105 -15 -180q0 -18 2 -60q1 -43 2 -94q54 4 68 4q18 -1 47 -3t45 -3q52 -2 108.5 -5t105.5 -13.5t95 -34.5q76 -41 121 -123.5t45 -187.5q0 -92 -28.5 -161t-74.5 -118.5t-80 -73.5l-122 -82q-55 -36 -75 -47.5t-59 -23 t-110 -23.5q-33 -6 -63 -6q-68 0 -104 27q-35 27 -35 61q0 32 27 60t59 28q6 0 18 -5t19 -5q33 0 93 8q61 8 91 23q47 24 110 69t120 117t57 154q0 97 -81.5 161t-230.5 64q-74 0 -161 -19q-3 -24 -3 -65q0 -87 18.5 -181.5t18.5 -123.5q0 -97 -43 -123q-18 -12 -43 -12 q-26 0 -45 12q-30 20 -30 59q0 8 1 20.5t1 18.5q0 11 -18 27q-17 16 -17 26q0 7 2 22t2 24q0 7 -3 23.5t-3 25.5q0 31 4 92q2 45 2 133q-10 -4 -41 -4q-29 0 -44 -5t-36 -5q-51 0 -51 63q0 7 1 22t1 21q0 39 170 57q0 59 -6 96q-6 38 -6 54v92q0 115 19 176q19 62 83 62z " />
<glyph unicode="&#x42c;" horiz-adv-x="1090" d="M330 1342q23 0 44 -18q22 -18 28 -42v-55q-15 -105 -15 -180q0 -18 2 -60q1 -43 2 -94q54 4 68 4q18 -1 47 -3t45 -3q52 -2 108.5 -5t105.5 -13.5t95 -34.5q76 -41 121 -123.5t45 -187.5q0 -92 -28.5 -161t-74.5 -118.5t-80 -73.5l-122 -82q-55 -36 -75 -47.5t-59 -23 t-110 -23.5q-33 -6 -63 -6q-68 0 -104 27q-35 27 -35 61q0 32 27 60t59 28q6 0 18 -5t19 -5q33 0 93 8q61 8 91 23q47 24 110 69t120 117t57 154q0 97 -81.5 161t-230.5 64q-74 0 -161 -19q-3 -24 -3 -65q0 -87 18.5 -181.5t18.5 -123.5q0 -97 -43 -123q-18 -12 -43 -12 q-26 0 -45 12q-30 20 -30 59q0 8 1 20.5t1 18.5q0 11 -18 27q-17 16 -17 26q0 7 2 22t2 24q0 7 -3 23.5t-3 25.5q0 31 4 92q2 45 2 133q-10 -4 -41 -4q-29 0 -44 -5t-36 -5q-51 0 -51 63q0 7 1 22t1 21q0 39 170 57q0 59 -6 96q-6 38 -6 54v92q0 115 19 176q19 62 83 62z " />
<glyph unicode="&#xdd;" horiz-adv-x="1266" d="M989 631q-20 2 -59 2q-52 0 -124.5 -10t-117.5 -12h-49q-32 0 -143 -21q-40 -7 -86.5 -21t-69.5 -14q-43 0 -68.5 22t-25.5 48q0 28 23.5 61t61.5 55.5t77 22.5q16 0 42 -4q27 -4 40 -4q16 0 42.5 9t35.5 11q29 8 145 13q58 1 100.5 7.5t87.5 8.5h115q0 193 -93.5 284.5 t-297.5 91.5q-150 0 -231.5 -24t-164.5 -65t-130 -41q-17 0 -27 23t-10 49q0 64 65 111q66 47 160 74q95 27 187.5 38.5t152.5 11.5q153 0 284.5 -57.5t211 -176t79.5 -288.5q0 -121 -36 -242q-10 -32 -22.5 -81.5t-25 -82.5t-30.5 -57l-37 -43q-17 -20 -37 -51 q-28 -49 -49 -73q-20 -24 -90 -67q-69 -43 -232 -123q-33 -15 -67 -21q-6 0 -19 2q-12 2 -20 2q-22 0 -64.5 -8.5t-72.5 -13.5q-29 -4 -84 -4q-207 0 -207 95q0 92 127 92q13 0 38 -7t38 -7q129 0 228 30t159 66t108 76q61 47 93 82q33 35 56 89q23 55 33 142z" />
<glyph unicode="&#x42d;" horiz-adv-x="1266" d="M989 631q-20 2 -59 2q-52 0 -124.5 -10t-117.5 -12h-49q-32 0 -143 -21q-40 -7 -86.5 -21t-69.5 -14q-43 0 -68.5 22t-25.5 48q0 28 23.5 61t61.5 55.5t77 22.5q16 0 42 -4q27 -4 40 -4q16 0 42.5 9t35.5 11q29 8 145 13q58 1 100.5 7.5t87.5 8.5h115q0 193 -93.5 284.5 t-297.5 91.5q-150 0 -231.5 -24t-164.5 -65t-130 -41q-17 0 -27 23t-10 49q0 64 65 111q66 47 160 74q95 27 187.5 38.5t152.5 11.5q153 0 284.5 -57.5t211 -176t79.5 -288.5q0 -121 -36 -242q-10 -32 -22.5 -81.5t-25 -82.5t-30.5 -57l-37 -43q-17 -20 -37 -51 q-28 -49 -49 -73q-20 -24 -90 -67q-69 -43 -232 -123q-33 -15 -67 -21q-6 0 -19 2q-12 2 -20 2q-22 0 -64.5 -8.5t-72.5 -13.5q-29 -4 -84 -4q-207 0 -207 95q0 92 127 92q13 0 38 -7t38 -7q129 0 228 30t159 66t108 76q61 47 93 82q33 35 56 89q23 55 33 142z" />
<glyph unicode="&#xde;" horiz-adv-x="1841" d="M1225 1268q121 0 324 -152q79 -59 129 -158t72 -189.5t22 -129.5q0 -108 -45 -224q-47 -117 -130 -214.5t-194.5 -156.5t-236.5 -59q-167 0 -253.5 63t-152.5 183q-92 173 -92 319q-46 -14 -89 -19.5t-122 -7.5q-80 -2 -117 -3v-92q4 -23 19 -47.5t20 -40.5q3 -6 8 -67 q3 -18 11 -43q5 -15 32 -62.5t27 -68.5q0 -30 -40 -78q-41 -50 -64 -50q-60 0 -103 56.5t-49 250.5q-3 128 -24 175q-21 48 -49 70q-29 23 -29 52q0 13 -5.5 35t-5.5 31q0 18 13 27q10 7 44 9q33 3 40 13q3 6 4 50q1 43 4 86v104q1 27 5.5 77t4.5 81q0 16 -8 46.5t-8 45.5 q0 48 27 83.5t61 35.5q70 0 93 -54t23 -141q0 -17 -9 -46t-9 -44q0 -14 4 -38t4 -40q0 -24 -9.5 -94.5t-16.5 -151.5h51q167 0 268 39q36 121 76 212.5t102 166.5t154 117.5t219 42.5zM1178 1100q-61 0 -129 -47t-119 -115q-50 -68 -59 -119q-35 -197 -35 -256 q0 -48 9.5 -76t43.5 -102q51 -107 90 -156q39 -48 82 -62.5t121 -14.5t153 34.5t134.5 95t94 139t34.5 163.5q0 122 -28 204q-30 82 -91 157.5t-141 115t-160 39.5z" />
<glyph unicode="&#x42e;" horiz-adv-x="1841" d="M1225 1268q121 0 324 -152q79 -59 129 -158t72 -189.5t22 -129.5q0 -108 -45 -224q-47 -117 -130 -214.5t-194.5 -156.5t-236.5 -59q-167 0 -253.5 63t-152.5 183q-92 173 -92 319q-46 -14 -89 -19.5t-122 -7.5q-80 -2 -117 -3v-92q4 -23 19 -47.5t20 -40.5q3 -6 8 -67 q3 -18 11 -43q5 -15 32 -62.5t27 -68.5q0 -30 -40 -78q-41 -50 -64 -50q-60 0 -103 56.5t-49 250.5q-3 128 -24 175q-21 48 -49 70q-29 23 -29 52q0 13 -5.5 35t-5.5 31q0 18 13 27q10 7 44 9q33 3 40 13q3 6 4 50q1 43 4 86v104q1 27 5.5 77t4.5 81q0 16 -8 46.5t-8 45.5 q0 48 27 83.5t61 35.5q70 0 93 -54t23 -141q0 -17 -9 -46t-9 -44q0 -14 4 -38t4 -40q0 -24 -9.5 -94.5t-16.5 -151.5h51q167 0 268 39q36 121 76 212.5t102 166.5t154 117.5t219 42.5zM1178 1100q-61 0 -129 -47t-119 -115q-50 -68 -59 -119q-35 -197 -35 -256 q0 -48 9.5 -76t43.5 -102q51 -107 90 -156q39 -48 82 -62.5t121 -14.5t153 34.5t134.5 95t94 139t34.5 163.5q0 122 -28 204q-30 82 -91 157.5t-141 115t-160 39.5z" />
<glyph unicode="&#xdf;" horiz-adv-x="1090" d="M924 1022q10 -45 31 -192.5t21 -194.5q0 -19 -8 -52q-9 -32 -9 -50q0 -44 2 -102t2 -109q0 -13 -2 -40q-2 -26 -2 -40q0 -48 16.5 -110t16.5 -111q0 -37 -25 -69t-55 -32q-35 0 -68 29q-32 29 -32 117q0 10 2 31q2 22 2 32l-1 287q-28 -29 -68.5 -77.5t-60.5 -64 t-62 -37.5q-43 -21 -50 -26q-19 -11 -50.5 -34.5t-56.5 -39.5l-90 -55q-47 -29 -96 -55q-48 -26 -97.5 -45t-84.5 -19q-29 0 -58 28q-28 28 -28 58q0 46 67 85q67 40 189 85q39 16 77.5 48.5t104.5 78.5q45 30 82 59q38 29 50.5 36.5t35.5 13.5q-46 11 -115 21 q-70 11 -104 17.5t-67 20.5q-55 23 -135.5 87t-98.5 100t-18 106q0 144 54 221q121 172 504 172q371 0 371 -108q0 -29 -86 -70zM754 1040q-143 2 -238 2q-84 0 -144 -30q-60 -32 -90.5 -78.5t-30.5 -93.5q0 -67 66 -119q67 -52 166 -80t193 -28q81 0 136 22q0 66 -4 89.5 t-22.5 117.5t-31.5 198z" />
<glyph unicode="&#x42f;" horiz-adv-x="1090" d="M924 1022q10 -45 31 -192.5t21 -194.5q0 -19 -8 -52q-9 -32 -9 -50q0 -44 2 -102t2 -109q0 -13 -2 -40q-2 -26 -2 -40q0 -48 16.5 -110t16.5 -111q0 -37 -25 -69t-55 -32q-35 0 -68 29q-32 29 -32 117q0 10 2 31q2 22 2 32l-1 287q-28 -29 -68.5 -77.5t-60.5 -64 t-62 -37.5q-43 -21 -50 -26q-19 -11 -50.5 -34.5t-56.5 -39.5l-90 -55q-47 -29 -96 -55q-48 -26 -97.5 -45t-84.5 -19q-29 0 -58 28q-28 28 -28 58q0 46 67 85q67 40 189 85q39 16 77.5 48.5t104.5 78.5q45 30 82 59q38 29 50.5 36.5t35.5 13.5q-46 11 -115 21 q-70 11 -104 17.5t-67 20.5q-55 23 -135.5 87t-98.5 100t-18 106q0 144 54 221q121 172 504 172q371 0 371 -108q0 -29 -86 -70zM754 1040q-143 2 -238 2q-84 0 -144 -30q-60 -32 -90.5 -78.5t-30.5 -93.5q0 -67 66 -119q67 -52 166 -80t193 -28q81 0 136 22q0 66 -4 89.5 t-22.5 117.5t-31.5 198z" />
<glyph unicode="&#xe0;" horiz-adv-x="910" d="M387 781q39 0 62.5 -10t47.5 -32t34 -30q4 -4 18.5 -12.5t20.5 -18.5t6 -29q0 -32 6 -32t35 11t49 11q40 0 63 -74t23 -153q0 -13 -1 -37q-1 -25 -1 -37q0 -8 10 -30t10 -58v-49q18 -63 35 -88q4 -7 17.5 -18.5t19.5 -22t6 -31.5q0 -59 -9.5 -83t-47.5 -24q-24 0 -38 3 t-23.5 9t-21.5 18t-16 15q-37 39 -41 44q-4 6 -4 28q0 21 -12 41q-3 6 -5 13.5t-4.5 21t-2.5 15.5q-2 5 -10 21.5t-11 27.5v55v4v10q-4 4 -10 4q-2 0 -14 -6q-17 -8 -60 -8q-25 0 -31.5 -7t-19.5 -44q-10 -31 -24.5 -46t-50 -42t-66.5 -58q-37 -32 -60.5 -40.5t-62.5 -8.5 q-71 0 -116.5 52t-45.5 104q0 19 13 62t20 81q13 70 20.5 120t15.5 67t34 67q46 93 102.5 158.5t140.5 65.5zM377 606q-36 0 -55.5 -28t-38.5 -85t-31 -79q-17 -32 -27 -103t-10 -126q0 -9 2 -9q23 0 80 63.5t107 139.5q51 76 51 98q0 5 -10 31q-4 9 -13 47q-7 25 -24.5 38 t-30.5 13z" />
<glyph unicode="&#x430;" horiz-adv-x="910" d="M387 781q39 0 62.5 -10t47.5 -32t34 -30q4 -4 18.5 -12.5t20.5 -18.5t6 -29q0 -32 6 -32t35 11t49 11q40 0 63 -74t23 -153q0 -13 -1 -37q-1 -25 -1 -37q0 -8 10 -30t10 -58v-49q18 -63 35 -88q4 -7 17.5 -18.5t19.5 -22t6 -31.5q0 -59 -9.5 -83t-47.5 -24q-24 0 -38 3 t-23.5 9t-21.5 18t-16 15q-37 39 -41 44q-4 6 -4 28q0 21 -12 41q-3 6 -5 13.5t-4.5 21t-2.5 15.5q-2 5 -10 21.5t-11 27.5v55v4v10q-4 4 -10 4q-2 0 -14 -6q-17 -8 -60 -8q-25 0 -31.5 -7t-19.5 -44q-10 -31 -24.5 -46t-50 -42t-66.5 -58q-37 -32 -60.5 -40.5t-62.5 -8.5 q-71 0 -116.5 52t-45.5 104q0 19 13 62t20 81q13 70 20.5 120t15.5 67t34 67q46 93 102.5 158.5t140.5 65.5zM377 606q-36 0 -55.5 -28t-38.5 -85t-31 -79q-17 -32 -27 -103t-10 -126q0 -9 2 -9q23 0 80 63.5t107 139.5q51 76 51 98q0 5 -10 31q-4 9 -13 47q-7 25 -24.5 38 t-30.5 13z" />
<glyph unicode="&#xe1;" horiz-adv-x="934" d="M928 1510q0 -52 -62 -88.5t-147 -62.5l-192 -58l-133 -34q-78 -19 -143.5 -43.5t-65.5 -49.5q0 -22 30 -40q31 -18 103 -45.5t116.5 -47.5t75.5 -47q9 -8 28 -30q18 -21 27 -30q14 -10 35 -20q22 -11 29 -15q35 -18 59.5 -42t39.5 -48.5t26 -51.5l23 -52q4 -9 23 -47 q19 -37 27.5 -70.5t8.5 -89.5v-121q0 -120 -52.5 -214.5t-126 -145t-130.5 -50.5q-303 0 -396 185q-49 96 -49 194q0 83 36.5 153t102.5 114q66 45 150 55h90q168 -36 168 -127q0 -32 -20 -61q-19 -29 -41 -29q-15 0 -56 26q-49 29 -106 29q-70 0 -111 -60.5t-41 -140.5 q0 -92 80 -129q80 -36 162 -36q77 0 124 79q48 79 48 191q0 123 -55 221q-60 109 -154 175t-228 129t-191 106q-59 43 -59 114q0 99 85 151t225 95q160 49 321 105t192 65.5t69 9.5q22 0 38 -24q17 -24 17 -47z" />
<glyph unicode="&#x431;" horiz-adv-x="934" d="M928 1510q0 -52 -62 -88.5t-147 -62.5l-192 -58l-133 -34q-78 -19 -143.5 -43.5t-65.5 -49.5q0 -22 30 -40q31 -18 103 -45.5t116.5 -47.5t75.5 -47q9 -8 28 -30q18 -21 27 -30q14 -10 35 -20q22 -11 29 -15q35 -18 59.5 -42t39.5 -48.5t26 -51.5l23 -52q4 -9 23 -47 q19 -37 27.5 -70.5t8.5 -89.5v-121q0 -120 -52.5 -214.5t-126 -145t-130.5 -50.5q-303 0 -396 185q-49 96 -49 194q0 83 36.5 153t102.5 114q66 45 150 55h90q168 -36 168 -127q0 -32 -20 -61q-19 -29 -41 -29q-15 0 -56 26q-49 29 -106 29q-70 0 -111 -60.5t-41 -140.5 q0 -92 80 -129q80 -36 162 -36q77 0 124 79q48 79 48 191q0 123 -55 221q-60 109 -154 175t-228 129t-191 106q-59 43 -59 114q0 99 85 151t225 95q160 49 321 105t192 65.5t69 9.5q22 0 38 -24q17 -24 17 -47z" />
<glyph unicode="&#xe2;" horiz-adv-x="940" d="M576 1516q109 0 166 -88t57 -193q0 -80 -41 -187q-41 -106 -154 -214q-112 -108 -305 -176q-12 -97 -12 -150q0 -6 2.5 -13t3.5 -11q5 -18 10 -42l15 -63q21 -102 63 -169q42 -66 141 -66q183 0 183 190q0 90 -53 137t-109 47q-14 0 -42 -9.5t-38.5 -18.5t-23.5 -34.5 t-23 -37.5t-31 -12q-76 0 -76 94q0 81 75.5 131.5t174.5 50.5q129 0 199 -65.5t91.5 -145.5t21.5 -149q0 -128 -75 -238.5t-288 -110.5q-108 0 -186 60.5t-122 142.5q-43 82 -54 150q-7 45 -13 74.5t-9.5 51.5t-5.5 38q-1 16 -1 41l4 92q-168 0 -254 38t-86 93q0 41 22.5 93 t61.5 52q19 0 27 -7t19 -25q12 -18 28 -31t48 -23q67 -22 107 -22q28 0 56 8q35 309 126 513q92 204 300 204zM328 840q115 55 204 156.5t89 205.5q0 66 -18.5 107t-51.5 41q-62 0 -105 -87t-71 -213q-29 -125 -47 -210z" />
<glyph unicode="&#x432;" horiz-adv-x="940" d="M576 1516q109 0 166 -88t57 -193q0 -80 -41 -187q-41 -106 -154 -214q-112 -108 -305 -176q-12 -97 -12 -150q0 -6 2.5 -13t3.5 -11q5 -18 10 -42l15 -63q21 -102 63 -169q42 -66 141 -66q183 0 183 190q0 90 -53 137t-109 47q-14 0 -42 -9.5t-38.5 -18.5t-23.5 -34.5 t-23 -37.5t-31 -12q-76 0 -76 94q0 81 75.5 131.5t174.5 50.5q129 0 199 -65.5t91.5 -145.5t21.5 -149q0 -128 -75 -238.5t-288 -110.5q-108 0 -186 60.5t-122 142.5q-43 82 -54 150q-7 45 -13 74.5t-9.5 51.5t-5.5 38q-1 16 -1 41l4 92q-168 0 -254 38t-86 93q0 41 22.5 93 t61.5 52q19 0 27 -7t19 -25q12 -18 28 -31t48 -23q67 -22 107 -22q28 0 56 8q35 309 126 513q92 204 300 204zM328 840q115 55 204 156.5t89 205.5q0 66 -18.5 107t-51.5 41q-62 0 -105 -87t-71 -213q-29 -125 -47 -210z" />
<glyph unicode="&#xe3;" horiz-adv-x="692" d="M346 797q63 0 103 -40q39 -39 39 -81q0 -63 -51 -201l-44 -102q-20 -47 -30 -73t-17 -50q-6 -18 -6 -39q0 -15 6 -24q15 -21 68 -21q54 0 106 17q18 6 60 28t67 31q23 8 62 16.5t57 14.5q52 18 74 18q30 0 53 -22q21 -24 21 -50q0 -29 -22 -57t-47 -37q-19 -7 -45.5 -9.5 t-57.5 -18.5q-45 -24 -65.5 -29.5t-48.5 -9.5q-27 -3 -54 -13q-19 -6 -56 -25t-70 -28t-93 -9q-193 0 -193 163q0 30 23.5 101t42.5 118q71 187 71 229h-39q-60 -13 -145 -67q-25 -18 -42.5 -36.5t-35 -40t-27.5 -30.5q-11 -8 -27 -8q-46 0 -76 17q-30 18 -30 46q0 32 47 74 q8 7 27 33.5t59 55t134 73.5q5 2 68 34.5t88 41.5q24 10 46 10z" />
<glyph unicode="&#x433;" horiz-adv-x="692" d="M346 797q63 0 103 -40q39 -39 39 -81q0 -63 -51 -201l-44 -102q-20 -47 -30 -73t-17 -50q-6 -18 -6 -39q0 -15 6 -24q15 -21 68 -21q54 0 106 17q18 6 60 28t67 31q23 8 62 16.5t57 14.5q52 18 74 18q30 0 53 -22q21 -24 21 -50q0 -29 -22 -57t-47 -37q-19 -7 -45.5 -9.5 t-57.5 -18.5q-45 -24 -65.5 -29.5t-48.5 -9.5q-27 -3 -54 -13q-19 -6 -56 -25t-70 -28t-93 -9q-193 0 -193 163q0 30 23.5 101t42.5 118q71 187 71 229h-39q-60 -13 -145 -67q-25 -18 -42.5 -36.5t-35 -40t-27.5 -30.5q-11 -8 -27 -8q-46 0 -76 17q-30 18 -30 46q0 32 47 74 q8 7 27 33.5t59 55t134 73.5q5 2 68 34.5t88 41.5q24 10 46 10z" />
<glyph unicode="&#xe4;" horiz-adv-x="703" d="M348 674q79 0 120.5 -52.5t41.5 -125.5q0 -52 -17.5 -84.5t-49.5 -32.5q-74 0 -74 35q0 10 4 31.5t4 33.5q0 8 -13 13q-14 6 -24 6q-22 0 -75 -66q-54 -65 -54 -88q0 -37 62 -37q17 0 48.5 13.5t57 20.5t74.5 7q75 0 97 -49.5t22 -142.5q0 -61 -4 -96q-3 -35 -10 -71 q-6 -36 -9 -63v-100v-49q0 -191 -50 -339t-122.5 -234t-134.5 -105q-10 -2 -35 -2q-33 0 -49 2q-109 13 -178 38t-191 117q-40 32 -114.5 117t-74.5 119q0 9 8.5 27t8.5 28q0 7 -4 21q-4 15 -4 22q0 21 24 40q25 19 51 19q46 0 83.5 -18.5t37.5 -46.5q0 -12 -11 -34 q-11 -21 -11 -34q0 -37 72 -98.5t163.5 -110.5t139.5 -49q61 0 115 87.5t86 223.5t32 273q0 19 -2 56.5t-2 56.5q0 11 12.5 32t12.5 34q0 12 -5 37t-5 38q0 11 3 34t3 34q0 23 -27 23q-10 0 -24 -11t-21.5 -14.5t-25.5 -4.5t-19 -1q-34 -3 -56.5 -14t-41.5 -11 q-51 0 -97.5 39.5t-46.5 130.5q0 119 53.5 204t125.5 128t120 43z" />
<glyph unicode="&#x434;" horiz-adv-x="703" d="M348 674q79 0 120.5 -52.5t41.5 -125.5q0 -52 -17.5 -84.5t-49.5 -32.5q-74 0 -74 35q0 10 4 31.5t4 33.5q0 8 -13 13q-14 6 -24 6q-22 0 -75 -66q-54 -65 -54 -88q0 -37 62 -37q17 0 48.5 13.5t57 20.5t74.5 7q75 0 97 -49.5t22 -142.5q0 -61 -4 -96q-3 -35 -10 -71 q-6 -36 -9 -63v-100v-49q0 -191 -50 -339t-122.5 -234t-134.5 -105q-10 -2 -35 -2q-33 0 -49 2q-109 13 -178 38t-191 117q-40 32 -114.5 117t-74.5 119q0 9 8.5 27t8.5 28q0 7 -4 21q-4 15 -4 22q0 21 24 40q25 19 51 19q46 0 83.5 -18.5t37.5 -46.5q0 -12 -11 -34 q-11 -21 -11 -34q0 -37 72 -98.5t163.5 -110.5t139.5 -49q61 0 115 87.5t86 223.5t32 273q0 19 -2 56.5t-2 56.5q0 11 12.5 32t12.5 34q0 12 -5 37t-5 38q0 11 3 34t3 34q0 23 -27 23q-10 0 -24 -11t-21.5 -14.5t-25.5 -4.5t-19 -1q-34 -3 -56.5 -14t-41.5 -11 q-51 0 -97.5 39.5t-46.5 130.5q0 119 53.5 204t125.5 128t120 43z" />
<glyph unicode="&#xe5;" horiz-adv-x="809" d="M180 105q-83 -35 -110 -35q-34 0 -62.5 24t-28.5 74q0 45 12.5 54t48 11.5t59.5 18.5q-46 93 -46 234q0 76 30.5 139.5t77.5 100t91 36.5q174 -58 174 -258q0 -86 -28.5 -149t-96.5 -138q34 -34 111.5 -62t126.5 -28q81 0 125 19.5t90.5 55.5t79.5 46q10 4 28 4 q19 0 27 -4q43 -18 43 -45t-13 -49t-33 -39t-48 -34t-31 -19q-2 -2 -38 -25q-35 -24 -72 -38q-36 -15 -95 -23.5t-147 -8.5q-68 0 -152.5 38t-122.5 100zM223 332q15 49 26 67.5t11 30.5q0 34 -7 90t-17 56q-5 0 -16.5 -27t-18.5 -53v-62q8 -55 22 -102z" />
<glyph unicode="&#x435;" horiz-adv-x="809" d="M180 105q-83 -35 -110 -35q-34 0 -62.5 24t-28.5 74q0 45 12.5 54t48 11.5t59.5 18.5q-46 93 -46 234q0 76 30.5 139.5t77.5 100t91 36.5q174 -58 174 -258q0 -86 -28.5 -149t-96.5 -138q34 -34 111.5 -62t126.5 -28q81 0 125 19.5t90.5 55.5t79.5 46q10 4 28 4 q19 0 27 -4q43 -18 43 -45t-13 -49t-33 -39t-48 -34t-31 -19q-2 -2 -38 -25q-35 -24 -72 -38q-36 -15 -95 -23.5t-147 -8.5q-68 0 -152.5 38t-122.5 100zM223 332q15 49 26 67.5t11 30.5q0 34 -7 90t-17 56q-5 0 -16.5 -27t-18.5 -53v-62q8 -55 22 -102z" />
<glyph unicode="&#xe6;" horiz-adv-x="1592" d="M465 725q24 -14 33 -14q5 0 14.5 2t16.5 2q38 0 90 -48.5t76 -90.5q22 31 73.5 58.5t85.5 29.5q45 0 77 -13q32 -12 32 -34q0 -30 -13 -95q-12 -66 -26 -92q43 68 127 68q84 176 276 176q43 0 76 -35t33 -76q0 -39 -27 -58t-63 -19q-11 0 -29.5 9t-28.5 9 q-34 0 -68 -35.5t-34 -97.5q0 -64 44.5 -134.5t107.5 -70.5q22 0 63 20q42 19 62 19q28 0 51 -31q14 -17 14 -47q-1 -49 -43.5 -87t-124.5 -38q-37 0 -57 4q-87 15 -148 69q-62 55 -93.5 122t-31.5 119q-9 6 -20 6q-35 0 -78 -53q-43 -52 -59 -101q-2 -4 -11.5 -65 t-32 -94.5t-73.5 -33.5q-32 2 -60 30.5t-28 56.5q0 20 27 123q3 15 15 47q12 33 15 53q2 10 4 27q2 18 4 26q19 93 21 93v-1q-2 -4 -10.5 -11.5t-26.5 -12.5q-12 -75 -35.5 -129t-48.5 -85t-52 -53l-52 -45l-57 -54q-43 -41 -93.5 -70.5t-97.5 -29.5q-43 0 -84 28t-41 96 q0 48 59 129.5t121 136.5l86 80q34 31 53 46t35 21q3 2 13 5q9 4 18 10q-12 36 -45 52.5t-64 16.5q-19 0 -40.5 -17t-77.5 -71q-4 -3 -43 -45.5t-61 -55.5t-58 -13q-40 0 -51 27t-11 77q0 31 129 150q65 56 113 88t94 32q23 0 39 -8zM553 330q-41 -31 -132 -119.5 t-91 -113.5q0 -5 4 -5h8q7 2 17 21q5 11 14 20.5t18 17.5l21 17q42 37 65 65t49.5 48t26.5 49z" />
<glyph unicode="&#x436;" horiz-adv-x="1592" d="M465 725q24 -14 33 -14q5 0 14.5 2t16.5 2q38 0 90 -48.5t76 -90.5q22 31 73.5 58.5t85.5 29.5q45 0 77 -13q32 -12 32 -34q0 -30 -13 -95q-12 -66 -26 -92q43 68 127 68q84 176 276 176q43 0 76 -35t33 -76q0 -39 -27 -58t-63 -19q-11 0 -29.5 9t-28.5 9 q-34 0 -68 -35.5t-34 -97.5q0 -64 44.5 -134.5t107.5 -70.5q22 0 63 20q42 19 62 19q28 0 51 -31q14 -17 14 -47q-1 -49 -43.5 -87t-124.5 -38q-37 0 -57 4q-87 15 -148 69q-62 55 -93.5 122t-31.5 119q-9 6 -20 6q-35 0 -78 -53q-43 -52 -59 -101q-2 -4 -11.5 -65 t-32 -94.5t-73.5 -33.5q-32 2 -60 30.5t-28 56.5q0 20 27 123q3 15 15 47q12 33 15 53q2 10 4 27q2 18 4 26q19 93 21 93v-1q-2 -4 -10.5 -11.5t-26.5 -12.5q-12 -75 -35.5 -129t-48.5 -85t-52 -53l-52 -45l-57 -54q-43 -41 -93.5 -70.5t-97.5 -29.5q-43 0 -84 28t-41 96 q0 48 59 129.5t121 136.5l86 80q34 31 53 46t35 21q3 2 13 5q9 4 18 10q-12 36 -45 52.5t-64 16.5q-19 0 -40.5 -17t-77.5 -71q-4 -3 -43 -45.5t-61 -55.5t-58 -13q-40 0 -51 27t-11 77q0 31 129 150q65 56 113 88t94 32q23 0 39 -8zM553 330q-41 -31 -132 -119.5 t-91 -113.5q0 -5 4 -5h8q7 2 17 21q5 11 14 20.5t18 17.5l21 17q42 37 65 65t49.5 48t26.5 49z" />
<glyph unicode="&#xe7;" horiz-adv-x="750" d="M459 707q74 -44 74 -98q0 -30 -15 -64q-13 -32 -37.5 -59t-57 -58t-32.5 -37q0 -5 35.5 -9.5t79.5 -22.5q85 -36 140.5 -107t55.5 -223q-2 -69 -35 -174.5t-79 -209.5t-86 -167q-54 -86 -153 -158t-187 -72q-80 0 -138 37.5t-97 101.5q-38 63 -69 154q-8 27 -24.5 131 t-16.5 135q0 37 27.5 73t61.5 36q56 0 72 -35t16 -107q0 -15 -7.5 -40.5t-7.5 -38.5q0 -48 23 -116q21 -69 66 -121t110 -52q62 8 98 29.5t52.5 48t30.5 63.5q14 38 22 51q9 15 44.5 50t60.5 73.5t44 109t19 182.5q0 120 -54.5 175t-178.5 55q-7 0 -22 -1h-23q-63 0 -88 5 t-25 22q0 77 72 155l64 73q29 32 38 43q8 12 8 19q0 11 -17.5 22t-33.5 11q-28 0 -52 -7.5t-61.5 -23.5t-56 -22t-41.5 -6q-15 0 -26 16t-11 35q0 61 66 108q66 48 213 48q53 0 78.5 -6t60.5 -27z" />
<glyph unicode="&#x437;" horiz-adv-x="750" d="M459 707q74 -44 74 -98q0 -30 -15 -64q-13 -32 -37.5 -59t-57 -58t-32.5 -37q0 -5 35.5 -9.5t79.5 -22.5q85 -36 140.5 -107t55.5 -223q-2 -69 -35 -174.5t-79 -209.5t-86 -167q-54 -86 -153 -158t-187 -72q-80 0 -138 37.5t-97 101.5q-38 63 -69 154q-8 27 -24.5 131 t-16.5 135q0 37 27.5 73t61.5 36q56 0 72 -35t16 -107q0 -15 -7.5 -40.5t-7.5 -38.5q0 -48 23 -116q21 -69 66 -121t110 -52q62 8 98 29.5t52.5 48t30.5 63.5q14 38 22 51q9 15 44.5 50t60.5 73.5t44 109t19 182.5q0 120 -54.5 175t-178.5 55q-7 0 -22 -1h-23q-63 0 -88 5 t-25 22q0 77 72 155l64 73q29 32 38 43q8 12 8 19q0 11 -17.5 22t-33.5 11q-28 0 -52 -7.5t-61.5 -23.5t-56 -22t-41.5 -6q-15 0 -26 16t-11 35q0 61 66 108q66 48 213 48q53 0 78.5 -6t60.5 -27z" />
<glyph unicode="&#xe8;" horiz-adv-x="1272" d="M250 813q91 0 115 -110t24 -256q0 -291 11 -291q18 0 72 66q55 67 108 182l51 118q32 73 73 126t89 53q63 0 85 -41t37 -146.5t27 -152.5l23 -99q13 -55 33 -99t47 -48h14q33 4 61 26q29 22 65 58q37 35 50 43q22 12 49 12q25 0 39 -12q23 -18 23 -74q0 -20 -22.5 -43 t-88.5 -78q-125 -100 -166 -100q-136 0 -189 108t-83 254q-2 10 -12.5 38t-10.5 69q0 59 -6 59q-11 0 -60.5 -124.5t-74.5 -161.5q-73 -108 -133 -162q-59 -56 -137 -56q-119 0 -119 142v100q-1 46 -3 93t-3 100q-2 53 -2 112v54q0 16 -6 41.5t-15 25.5q-18 0 -34 -11 t-43.5 -38t-48.5 -40t-46 -13q-24 0 -52 18q-28 19 -28 43q0 32 14.5 51t47.5 41t45 33l38 39q23 22 57 36.5t85 14.5z" />
<glyph unicode="&#x438;" horiz-adv-x="1272" d="M250 813q91 0 115 -110t24 -256q0 -291 11 -291q18 0 72 66q55 67 108 182l51 118q32 73 73 126t89 53q63 0 85 -41t37 -146.5t27 -152.5l23 -99q13 -55 33 -99t47 -48h14q33 4 61 26q29 22 65 58q37 35 50 43q22 12 49 12q25 0 39 -12q23 -18 23 -74q0 -20 -22.5 -43 t-88.5 -78q-125 -100 -166 -100q-136 0 -189 108t-83 254q-2 10 -12.5 38t-10.5 69q0 59 -6 59q-11 0 -60.5 -124.5t-74.5 -161.5q-73 -108 -133 -162q-59 -56 -137 -56q-119 0 -119 142v100q-1 46 -3 93t-3 100q-2 53 -2 112v54q0 16 -6 41.5t-15 25.5q-18 0 -34 -11 t-43.5 -38t-48.5 -40t-46 -13q-24 0 -52 18q-28 19 -28 43q0 32 14.5 51t47.5 41t45 33l38 39q23 22 57 36.5t85 14.5z" />
<glyph unicode="&#xe9;" horiz-adv-x="1321" d="M889 1149q88 0 88 -74q0 -25 -30 -53t-92 -72q-62 -43 -81 -59q-39 -32 -150 -49q-110 -17 -179 -17q-81 0 -81 37q0 47 12 78t58 39h90q115 1 165 31q50 31 102.5 85t97.5 54zM266 813q46 0 94 -56.5t48 -238.5q0 -12 -2 -36q-1 -23 -1 -35q0 -283 11 -283q14 0 55.5 43 t81 102.5t58.5 112.5q98 279 198 279q62 0 85 -41.5t37.5 -146.5t27.5 -152q9 -43 22.5 -98.5t33 -99.5t46.5 -48h14q34 5 62 26q28 22 64.5 57.5t50.5 43.5q20 12 49 12q23 0 39 -12q22 -18 22 -74q0 -20 -22 -43t-88 -78q-126 -100 -166 -100q-142 0 -197 113 q-74 159 -74 206q0 3 -1 15q-1 13 -1 28q-2 18 -14 49t-12 66q0 25 2 41v17q-10 0 -38 -76.5t-48.5 -125t-53.5 -91.5q-65 -88 -96 -125q-30 -37 -74 -65t-100 -28q-119 0 -119 142v100q-4 68 -6 135q0 15 -1 87q-1 73 -1 83v54q0 55 -24 61h-17q-22 -3 -61 -33 q-13 -10 -34.5 -29.5t-33 -26.5t-22.5 -7q-25 0 -52 19q-29 18 -29 42q0 32 15 51t47.5 41t44.5 33l39 39q23 22 56.5 36.5t84.5 14.5z" />
<glyph unicode="&#x439;" horiz-adv-x="1321" d="M889 1149q88 0 88 -74q0 -25 -30 -53t-92 -72q-62 -43 -81 -59q-39 -32 -150 -49q-110 -17 -179 -17q-81 0 -81 37q0 47 12 78t58 39h90q115 1 165 31q50 31 102.5 85t97.5 54zM266 813q46 0 94 -56.5t48 -238.5q0 -12 -2 -36q-1 -23 -1 -35q0 -283 11 -283q14 0 55.5 43 t81 102.5t58.5 112.5q98 279 198 279q62 0 85 -41.5t37.5 -146.5t27.5 -152q9 -43 22.5 -98.5t33 -99.5t46.5 -48h14q34 5 62 26q28 22 64.5 57.5t50.5 43.5q20 12 49 12q23 0 39 -12q22 -18 22 -74q0 -20 -22 -43t-88 -78q-126 -100 -166 -100q-142 0 -197 113 q-74 159 -74 206q0 3 -1 15q-1 13 -1 28q-2 18 -14 49t-12 66q0 25 2 41v17q-10 0 -38 -76.5t-48.5 -125t-53.5 -91.5q-65 -88 -96 -125q-30 -37 -74 -65t-100 -28q-119 0 -119 142v100q-4 68 -6 135q0 15 -1 87q-1 73 -1 83v54q0 55 -24 61h-17q-22 -3 -61 -33 q-13 -10 -34.5 -29.5t-33 -26.5t-22.5 -7q-25 0 -52 19q-29 18 -29 42q0 32 15 51t47.5 41t44.5 33l39 39q23 22 56.5 36.5t84.5 14.5z" />
<glyph unicode="&#xea;" horiz-adv-x="858" d="M185 682q18 -16 18 -94q0 -35 -4 -79.5t-5 -65.5v-64q0 -20 9.5 -90t15.5 -70q4 0 11.5 15.5t11.5 19.5q6 10 19 18.5t16 12.5q4 4 63.5 105.5t123 171t126.5 69.5q16 0 33 -6q18 -7 41.5 -36t23.5 -52t-19.5 -45t-49.5 -43l-70 -49q-20 -15 -32.5 -23.5t-22.5 -21.5 t-15.5 -32t-5.5 -50q0 -133 123 -133q57 0 131 32q32 15 91 64t92 49q12 0 28 -6q19 -9 32 -31.5t13 -46.5q0 -34 -133 -135q-81 -60 -154 -77q-73 -16 -149 -16q-29 0 -87.5 24.5t-78.5 43.5q-11 13 -20 26t-19 21t-28 13q-25 -21 -55 -51.5t-49 -44t-42 -13.5 q-41 0 -62 31q-20 30 -27 73q-8 44 -12 68q-3 18 -15.5 54.5t-14.5 56.5q0 13 1 39q1 27 1 41q0 12 -4.5 31.5t-4.5 29.5q0 20 5 50t6 46v56q0 80 20 102t64 22q45 0 60 -10z" />
<glyph unicode="&#x43a;" horiz-adv-x="858" d="M185 682q18 -16 18 -94q0 -35 -4 -79.5t-5 -65.5v-64q0 -20 9.5 -90t15.5 -70q4 0 11.5 15.5t11.5 19.5q6 10 19 18.5t16 12.5q4 4 63.5 105.5t123 171t126.5 69.5q16 0 33 -6q18 -7 41.5 -36t23.5 -52t-19.5 -45t-49.5 -43l-70 -49q-20 -15 -32.5 -23.5t-22.5 -21.5 t-15.5 -32t-5.5 -50q0 -133 123 -133q57 0 131 32q32 15 91 64t92 49q12 0 28 -6q19 -9 32 -31.5t13 -46.5q0 -34 -133 -135q-81 -60 -154 -77q-73 -16 -149 -16q-29 0 -87.5 24.5t-78.5 43.5q-11 13 -20 26t-19 21t-28 13q-25 -21 -55 -51.5t-49 -44t-42 -13.5 q-41 0 -62 31q-20 30 -27 73q-8 44 -12 68q-3 18 -15.5 54.5t-14.5 56.5q0 13 1 39q1 27 1 41q0 12 -4.5 31.5t-4.5 29.5q0 20 5 50t6 46v56q0 80 20 102t64 22q45 0 60 -10z" />
<glyph unicode="&#xeb;" horiz-adv-x="1028" d="M592 717q75 0 107 -9.5t43 -35.5q12 -26 20 -94q4 -45 4 -230q0 -12 -1 -38q-1 -25 -1 -37q0 -69 9 -98t42 -29q23 0 52 15t49 15q30 0 51.5 -26.5t21.5 -67.5q0 -28 -27.5 -51t-72.5 -37q-45 -13 -92 -13q-123 0 -162 81.5t-39 242.5q0 26 1 79t1 81q0 31 2 45v25 q-5 20 -14 20q-36 0 -50 -43.5t-28 -126.5q-14 -73 -74 -211q-51 -116 -120.5 -156.5t-120.5 -40.5q-78 0 -121.5 45t-43.5 91q0 29 28.5 58.5t68.5 29.5q19 0 31 -7t25 -21t20 -18.5t20 -4.5q28 0 59 60.5t46 109.5q1 4 21.5 95t46 153.5t74.5 105.5t124 43z" />
<glyph unicode="&#x43b;" horiz-adv-x="1028" d="M592 717q75 0 107 -9.5t43 -35.5q12 -26 20 -94q4 -45 4 -230q0 -12 -1 -38q-1 -25 -1 -37q0 -69 9 -98t42 -29q23 0 52 15t49 15q30 0 51.5 -26.5t21.5 -67.5q0 -28 -27.5 -51t-72.5 -37q-45 -13 -92 -13q-123 0 -162 81.5t-39 242.5q0 26 1 79t1 81q0 31 2 45v25 q-5 20 -14 20q-36 0 -50 -43.5t-28 -126.5q-14 -73 -74 -211q-51 -116 -120.5 -156.5t-120.5 -40.5q-78 0 -121.5 45t-43.5 91q0 29 28.5 58.5t68.5 29.5q19 0 31 -7t25 -21t20 -18.5t20 -4.5q28 0 59 60.5t46 109.5q1 4 21.5 95t46 153.5t74.5 105.5t124 43z" />
<glyph unicode="&#xec;" horiz-adv-x="1348" d="M592 705q69 -3 88 -32.5t19 -104.5q0 -61 -9 -158q-1 -13 -4 -41q-3 -27 -4 -43q0 -35 -2 -51q-1 -5 -2 -16.5t-2 -16.5v-19q7 0 33 50t49 82q60 82 104.5 170.5t64.5 112.5t73 24q40 -2 57 -16q18 -14 23 -44q4 -29 5 -111t4 -141v-77q0 -61 14 -94t67 -33q25 0 112 47 q7 3 31 25q25 21 41 31.5t37 10.5q30 -3 46.5 -22.5t16.5 -48.5q0 -31 -19.5 -61.5t-57.5 -51.5q-109 -58 -151 -75.5t-97 -17.5q-122 0 -156 77q-34 75 -37 170q-4 141 -6 141q-1 0 -49 -98q-20 -41 -34 -61q-13 -21 -33 -43q-19 -22 -29 -38l-40 -65q-20 -32 -49.5 -54 t-74.5 -22q-96 0 -96 125v61q0 10 1 29.5t1 30.5q0 14 -2.5 34t-2.5 31q0 28 10.5 84.5t10.5 89.5q0 37 -27 37q-13 0 -33 -90.5t-34 -142.5q-29 -110 -71 -176.5t-90 -95t-95 -28.5q-61 0 -100.5 37.5t-39.5 96.5q0 34 22.5 60t49.5 26q22 0 33 -7q10 -6 16 -15.5t15 -19 t22 -9.5q36 0 61 56q26 55 59.5 184t39.5 147q31 102 74 136t147 34z" />
<glyph unicode="&#x43c;" horiz-adv-x="1348" d="M592 705q69 -3 88 -32.5t19 -104.5q0 -61 -9 -158q-1 -13 -4 -41q-3 -27 -4 -43q0 -35 -2 -51q-1 -5 -2 -16.5t-2 -16.5v-19q7 0 33 50t49 82q60 82 104.5 170.5t64.5 112.5t73 24q40 -2 57 -16q18 -14 23 -44q4 -29 5 -111t4 -141v-77q0 -61 14 -94t67 -33q25 0 112 47 q7 3 31 25q25 21 41 31.5t37 10.5q30 -3 46.5 -22.5t16.5 -48.5q0 -31 -19.5 -61.5t-57.5 -51.5q-109 -58 -151 -75.5t-97 -17.5q-122 0 -156 77q-34 75 -37 170q-4 141 -6 141q-1 0 -49 -98q-20 -41 -34 -61q-13 -21 -33 -43q-19 -22 -29 -38l-40 -65q-20 -32 -49.5 -54 t-74.5 -22q-96 0 -96 125v61q0 10 1 29.5t1 30.5q0 14 -2.5 34t-2.5 31q0 28 10.5 84.5t10.5 89.5q0 37 -27 37q-13 0 -33 -90.5t-34 -142.5q-29 -110 -71 -176.5t-90 -95t-95 -28.5q-61 0 -100.5 37.5t-39.5 96.5q0 34 22.5 60t49.5 26q22 0 33 -7q10 -6 16 -15.5t15 -19 t22 -9.5q36 0 61 56q26 55 59.5 184t39.5 147q31 102 74 136t147 34z" />
<glyph unicode="&#xed;" horiz-adv-x="1065" d="M193 656q8 2 61 2q27 0 40 -37t13 -80q0 -27 -1 -71q-1 -45 -1 -66q0 -4 1 -13.5t1 -13.5q27 4 99 32q71 29 88 48q43 50 43 84q0 11 -5 25.5t-5 17.5q0 12 14 25q23 18 94 18q24 -8 35.5 -45.5t32 -125.5t39.5 -124l45 -92q21 -43 49 -69q28 -25 74 -25q40 0 75 17 q36 17 82 50.5t72 48.5t57 15q21 -7 36 -25.5t15 -44.5q0 -60 -86 -127q-76 -59 -132.5 -77t-135.5 -18q-72 0 -127 24q-55 22 -96 90q-48 90 -82 180q-8 25 -14 52q-6 28 -11 28q-6 0 -15.5 -23.5t-33.5 -34.5q-4 -2 -13 -5t-13 -5q-31 -13 -33 -14q-39 -20 -129 -33 q-4 -36 -4 -47q0 -22 3 -39.5t11 -47t12 -48.5v-47q-14 -38 -61 -38q-109 0 -109 134q0 10 1 29q1 20 1 30q0 17 -16 49q-67 0 -95 16t-28 77q0 37 22.5 44t90.5 11q2 123 2 188q0 12 -3 34t-3 32q0 20 43 35z" />
<glyph unicode="&#x43d;" horiz-adv-x="1065" d="M193 656q8 2 61 2q27 0 40 -37t13 -80q0 -27 -1 -71q-1 -45 -1 -66q0 -4 1 -13.5t1 -13.5q27 4 99 32q71 29 88 48q43 50 43 84q0 11 -5 25.5t-5 17.5q0 12 14 25q23 18 94 18q24 -8 35.5 -45.5t32 -125.5t39.5 -124l45 -92q21 -43 49 -69q28 -25 74 -25q40 0 75 17 q36 17 82 50.5t72 48.5t57 15q21 -7 36 -25.5t15 -44.5q0 -60 -86 -127q-76 -59 -132.5 -77t-135.5 -18q-72 0 -127 24q-55 22 -96 90q-48 90 -82 180q-8 25 -14 52q-6 28 -11 28q-6 0 -15.5 -23.5t-33.5 -34.5q-4 -2 -13 -5t-13 -5q-31 -13 -33 -14q-39 -20 -129 -33 q-4 -36 -4 -47q0 -22 3 -39.5t11 -47t12 -48.5v-47q-14 -38 -61 -38q-109 0 -109 134q0 10 1 29q1 20 1 30q0 17 -16 49q-67 0 -95 16t-28 77q0 37 22.5 44t90.5 11q2 123 2 188q0 12 -3 34t-3 32q0 20 43 35z" />
<glyph unicode="&#xee;" horiz-adv-x="772" d="M371 740q48 -1 71 -8q24 -8 38.5 -20.5t89.5 -82.5q39 -37 63 -63.5t48 -78.5q25 -52 32 -128q0 -132 -64 -227.5t-152 -144.5t-155 -49q-76 0 -150 39.5t-102 151.5q-26 113 -26 260q13 69 43 147.5t96 140.5q66 63 168 63zM365 576q-31 0 -64 -33q-32 -34 -53.5 -85.5 t-21.5 -100.5q0 -35 12 -66l20 -34q17 -30 17 -48q0 -10 -5 -26.5t-5 -24.5q0 -19 21 -36t42 -17q52 0 116.5 41t101.5 153q8 29 8 45q0 56 -34.5 109.5t-79.5 87.5q-46 35 -75 35z" />
<glyph unicode="&#x43e;" horiz-adv-x="772" d="M371 740q48 -1 71 -8q24 -8 38.5 -20.5t89.5 -82.5q39 -37 63 -63.5t48 -78.5q25 -52 32 -128q0 -132 -64 -227.5t-152 -144.5t-155 -49q-76 0 -150 39.5t-102 151.5q-26 113 -26 260q13 69 43 147.5t96 140.5q66 63 168 63zM365 576q-31 0 -64 -33q-32 -34 -53.5 -85.5 t-21.5 -100.5q0 -35 12 -66l20 -34q17 -30 17 -48q0 -10 -5 -26.5t-5 -24.5q0 -19 21 -36t42 -17q52 0 116.5 41t101.5 153q8 29 8 45q0 56 -34.5 109.5t-79.5 87.5q-46 35 -75 35z" />
<glyph unicode="&#xef;" horiz-adv-x="975" d="M86 576q54 0 87 -47t38 -189v-65q-4 -30 -6 -49v-43q8 0 16 17.5t23 64.5q16 46 24 67t17 31q10 12 61.5 39t73.5 32q67 0 106 -40t78 -121l30 -70q13 -28 32.5 -44.5t56.5 -16.5q61 7 88.5 26t84 65t85.5 46q12 0 27 -6q49 -20 49 -70q0 -41 -37 -88.5t-114 -87 t-187 -56.5q-32 -4 -41 -4q-92 0 -135 57t-55 107q-42 138 -56 138q-50 -6 -71 -97q-31 -126 -73 -163.5t-101 -37.5q-55 0 -88 34.5t-33 88.5v52q-2 13 -9 36t-10 62v92q2 47 2 139q0 12 -4 33t-4 31q0 14 15 25q14 12 30 12z" />
<glyph unicode="&#x43f;" horiz-adv-x="975" d="M86 576q54 0 87 -47t38 -189v-65q-4 -30 -6 -49v-43q8 0 16 17.5t23 64.5q16 46 24 67t17 31q10 12 61.5 39t73.5 32q67 0 106 -40t78 -121l30 -70q13 -28 32.5 -44.5t56.5 -16.5q61 7 88.5 26t84 65t85.5 46q12 0 27 -6q49 -20 49 -70q0 -41 -37 -88.5t-114 -87 t-187 -56.5q-32 -4 -41 -4q-92 0 -135 57t-55 107q-42 138 -56 138q-50 -6 -71 -97q-31 -126 -73 -163.5t-101 -37.5q-55 0 -88 34.5t-33 88.5v52q-2 13 -9 36t-10 62v92q2 47 2 139q0 12 -4 33t-4 31q0 14 15 25q14 12 30 12z" />
<glyph unicode="&#xf0;" horiz-adv-x="858" d="M189 572q21 0 40.5 -11.5t28.5 -29.5q4 -11 4 -33q0 -16 -4 -53q-3 -19 -4 -41l-2 -43q-1 -5 -2 -14.5t-2 -14.5v-12q8 0 46 38l67 68l33 33q18 16 38 28t57 23t99 21q71 0 120.5 -34t73 -79.5t23.5 -77.5q0 -41 -19 -85q-18 -44 -44 -83l-43 -67l-23 -42 q-14 -23 -35 -41t-59 -32q-39 -13 -100 -19q-24 0 -90 24t-128 52q-42 -87 -55 -377v-158q0 -114 -30.5 -160.5t-53.5 -46.5q-31 0 -77 24.5t-46 49.5q0 5 3 18t3 19q0 26 -13 45q-12 18 -12 64q0 58 21 98.5t24 83.5v24q-4 54 -4 56q0 25 25 55q18 21 20 45t2 56q0 31 2 86 q3 55 10 134q7 80 7 110q0 21 -4 63q-4 43 -4 66q0 71 35 120q35 50 72 50zM350 187q15 -13 59.5 -29t69.5 -16q31 3 79 51q47 49 53 84v39q0 37 -33 37q-51 0 -69 -8t-42 -39q-24 -30 -54 -56q-45 -41 -63 -63z" />
<glyph unicode="&#x440;" horiz-adv-x="858" d="M189 572q21 0 40.5 -11.5t28.5 -29.5q4 -11 4 -33q0 -16 -4 -53q-3 -19 -4 -41l-2 -43q-1 -5 -2 -14.5t-2 -14.5v-12q8 0 46 38l67 68l33 33q18 16 38 28t57 23t99 21q71 0 120.5 -34t73 -79.5t23.5 -77.5q0 -41 -19 -85q-18 -44 -44 -83l-43 -67l-23 -42 q-14 -23 -35 -41t-59 -32q-39 -13 -100 -19q-24 0 -90 24t-128 52q-42 -87 -55 -377v-158q0 -114 -30.5 -160.5t-53.5 -46.5q-31 0 -77 24.5t-46 49.5q0 5 3 18t3 19q0 26 -13 45q-12 18 -12 64q0 58 21 98.5t24 83.5v24q-4 54 -4 56q0 25 25 55q18 21 20 45t2 56q0 31 2 86 q3 55 10 134q7 80 7 110q0 21 -4 63q-4 43 -4 66q0 71 35 120q35 50 72 50zM350 187q15 -13 59.5 -29t69.5 -16q31 3 79 51q47 49 53 84v39q0 37 -33 37q-51 0 -69 -8t-42 -39q-24 -30 -54 -56q-45 -41 -63 -63z" />
<glyph unicode="&#xf1;" horiz-adv-x="828" d="M328 715h43q31 -5 59.5 -36t28.5 -77q0 -65 -90 -65q-13 0 -29.5 11t-21.5 11q-40 0 -50.5 -54.5t-15.5 -164.5q0 -64 25.5 -103.5t113.5 -39.5q127 0 275 141q14 13 39 45q26 31 47 39q15 6 31 6t28 -6q43 -20 43 -59q0 -27 -11.5 -48t-32.5 -43l-38 -38l-59 -63 q-30 -32 -71.5 -63.5t-98.5 -53t-127 -21.5q-145 0 -218 62t-92.5 135t-23.5 157v41q6 90 33 149.5t79 93t134 44.5z" />
<glyph unicode="&#x441;" horiz-adv-x="828" d="M328 715h43q31 -5 59.5 -36t28.5 -77q0 -65 -90 -65q-13 0 -29.5 11t-21.5 11q-40 0 -50.5 -54.5t-15.5 -164.5q0 -64 25.5 -103.5t113.5 -39.5q127 0 275 141q14 13 39 45q26 31 47 39q15 6 31 6t28 -6q43 -20 43 -59q0 -27 -11.5 -48t-32.5 -43l-38 -38l-59 -63 q-30 -32 -71.5 -63.5t-98.5 -53t-127 -21.5q-145 0 -218 62t-92.5 135t-23.5 157v41q6 90 33 149.5t79 93t134 44.5z" />
<glyph unicode="&#xf2;" horiz-adv-x="1434" d="M154 510q46 0 70 -21t30 -49.5t6 -67.5t2 -48.5t8 -21t7 -27.5q4 -43 8 -43q3 0 7 7q5 7 15.5 26.5t20.5 35.5q19 31 38 54.5t35.5 37.5t35.5 28l38 28q6 4 37 28l47 35q16 10 41 20.5t47 10.5q19 0 27 -4q85 -31 110 -61.5t25 -71.5v-27q0 -22 6 -43l10 -20 q8 -15 11 -29q2 -9 3 -27t3 -18q12 0 53 56.5t92.5 100t130.5 56.5q37 4 43 4q124 0 132 -139v-66q0 -72 22 -102q6 -7 23.5 -22t25.5 -29q8 -13 8 -35q0 -21 -33 -56q-33 -37 -53 -37q-40 0 -63.5 11.5t-45.5 35.5q-23 22 -30 27l-34 20q-11 7 -17 20.5t-6 43.5q0 12 12 30 t12 26q0 7 -1 25t-1 32q0 6 2 19t2 18q0 8 -4 8q-8 0 -44.5 -42.5t-37.5 -43.5q-17 -17 -62.5 -72.5t-74.5 -79.5t-61 -24q-65 0 -97 31q-32 32 -40.5 73t-10.5 96t-8 66q-1 3 -15.5 18.5t-19.5 30.5q-3 7 -4.5 14.5t-4.5 11.5q-2 5 -7 5q-7 0 -13 -8t-14 -23 q-8 -14 -10 -16q-11 -12 -25 -21q-14 -8 -24 -24l-11 -16q-9 -13 -24 -29q-34 -42 -43 -58q-41 -70 -70 -108q-60 -80 -116 -80q-60 0 -88.5 29.5t-36.5 65.5t-23 132q-2 25 -3 39.5t-4 29t-11 38.5q-27 64 -27 110q0 76 72 76zM1157 955q47 0 47 -47t-82.5 -112.5 t-196.5 -114.5q-113 -50 -194 -54h-36q-34 -2 -62.5 -11.5t-85.5 -9.5q-94 0 -94 74q0 86 121 86q13 0 33 -1t26 -1q68 0 164 37.5t219 95.5q124 58 141 58z" />
<glyph unicode="&#x442;" horiz-adv-x="1434" d="M154 510q46 0 70 -21t30 -49.5t6 -67.5t2 -48.5t8 -21t7 -27.5q4 -43 8 -43q3 0 7 7q5 7 15.5 26.5t20.5 35.5q19 31 38 54.5t35.5 37.5t35.5 28l38 28q6 4 37 28l47 35q16 10 41 20.5t47 10.5q19 0 27 -4q85 -31 110 -61.5t25 -71.5v-27q0 -22 6 -43l10 -20 q8 -15 11 -29q2 -9 3 -27t3 -18q12 0 53 56.5t92.5 100t130.5 56.5q37 4 43 4q124 0 132 -139v-66q0 -72 22 -102q6 -7 23.5 -22t25.5 -29q8 -13 8 -35q0 -21 -33 -56q-33 -37 -53 -37q-40 0 -63.5 11.5t-45.5 35.5q-23 22 -30 27l-34 20q-11 7 -17 20.5t-6 43.5q0 12 12 30 t12 26q0 7 -1 25t-1 32q0 6 2 19t2 18q0 8 -4 8q-8 0 -44.5 -42.5t-37.5 -43.5q-17 -17 -62.5 -72.5t-74.5 -79.5t-61 -24q-65 0 -97 31q-32 32 -40.5 73t-10.5 96t-8 66q-1 3 -15.5 18.5t-19.5 30.5q-3 7 -4.5 14.5t-4.5 11.5q-2 5 -7 5q-7 0 -13 -8t-14 -23 q-8 -14 -10 -16q-11 -12 -25 -21q-14 -8 -24 -24l-11 -16q-9 -13 -24 -29q-34 -42 -43 -58q-41 -70 -70 -108q-60 -80 -116 -80q-60 0 -88.5 29.5t-36.5 65.5t-23 132q-2 25 -3 39.5t-4 29t-11 38.5q-27 64 -27 110q0 76 72 76zM1157 955q47 0 47 -47t-82.5 -112.5 t-196.5 -114.5q-113 -50 -194 -54h-36q-34 -2 -62.5 -11.5t-85.5 -9.5q-94 0 -94 74q0 86 121 86q13 0 33 -1t26 -1q68 0 164 37.5t219 95.5q124 58 141 58z" />
<glyph unicode="&#xf3;" horiz-adv-x="772" d="M402 746q20 0 43 -21q22 -20 22 -39q0 -22 -9.5 -42t-39.5 -71q-29 -51 -47 -89q-53 -123 -53 -129q0 -5 8 -5q42 0 115 46q33 20 86.5 78t80.5 82q28 24 66 24q49 0 49 -105q0 -11 -1 -29t-1 -24q0 -17 -3 -51q-3 -33 -3 -51q0 -25 5 -77t5 -79q0 -74 -8 -170 q-9 -95 -25 -193q-16 -97 -36 -181q-20 -83 -41 -134q-61 -145 -129 -214t-170 -69q-56 0 -121.5 28t-118.5 77.5t-72 109.5q-11 33 -33 57q-24 24 -35 52q-4 10 -16 65q-6 27 -22 40t-21 19q-4 7 -4 44q0 46 16 81t45 35q39 0 85.5 -33t46.5 -92q0 -12 -1 -35t-1 -34t6 -20 q7 -9 19 -20l18 -18q12 -15 39 -63q72 -129 155 -129q49 0 103.5 51.5t94 142t44.5 199.5q4 74 15 201q12 128 12 185q0 18 -3.5 46.5t-3.5 43.5q0 6 4.5 18t4.5 21q0 14 -7 14q-14 0 -35 -20.5t-30 -26.5q-14 -10 -41.5 -13t-28.5 -3q-13 -4 -34 -14.5t-41 -15.5t-60 -5 q-63 0 -107 35t-44 71q0 26 13.5 59.5t41 91.5t27.5 70h-5q-10 -1 -20 -6.5t-27 -13.5q-8 -4 -18.5 -7t-20.5 -5q-2 -1 -22 -12t-31 -11q-39 0 -66 29q-29 29 -29 59q0 24 28 40t79 33q52 17 64 23q134 64 173.5 81.5t70.5 17.5z" />
<glyph unicode="&#x443;" horiz-adv-x="772" d="M402 746q20 0 43 -21q22 -20 22 -39q0 -22 -9.5 -42t-39.5 -71q-29 -51 -47 -89q-53 -123 -53 -129q0 -5 8 -5q42 0 115 46q33 20 86.5 78t80.5 82q28 24 66 24q49 0 49 -105q0 -11 -1 -29t-1 -24q0 -17 -3 -51q-3 -33 -3 -51q0 -25 5 -77t5 -79q0 -74 -8 -170 q-9 -95 -25 -193q-16 -97 -36 -181q-20 -83 -41 -134q-61 -145 -129 -214t-170 -69q-56 0 -121.5 28t-118.5 77.5t-72 109.5q-11 33 -33 57q-24 24 -35 52q-4 10 -16 65q-6 27 -22 40t-21 19q-4 7 -4 44q0 46 16 81t45 35q39 0 85.5 -33t46.5 -92q0 -12 -1 -35t-1 -34t6 -20 q7 -9 19 -20l18 -18q12 -15 39 -63q72 -129 155 -129q49 0 103.5 51.5t94 142t44.5 199.5q4 74 15 201q12 128 12 185q0 18 -3.5 46.5t-3.5 43.5q0 6 4.5 18t4.5 21q0 14 -7 14q-14 0 -35 -20.5t-30 -26.5q-14 -10 -41.5 -13t-28.5 -3q-13 -4 -34 -14.5t-41 -15.5t-60 -5 q-63 0 -107 35t-44 71q0 26 13.5 59.5t41 91.5t27.5 70h-5q-10 -1 -20 -6.5t-27 -13.5q-8 -4 -18.5 -7t-20.5 -5q-2 -1 -22 -12t-31 -11q-39 0 -66 29q-29 29 -29 59q0 24 28 40t79 33q52 17 64 23q134 64 173.5 81.5t70.5 17.5z" />
<glyph unicode="&#xf4;" horiz-adv-x="1075" d="M451 684q-1 22 -2 36t-3 32.5t-2 34.5q-1 15 -1 24q0 111 71 111q103 0 103 -137q0 -23 -4 -76q63 6 108 6q147 0 230 -45.5t112 -106.5t29 -118q0 -49 -21 -120.5t-76.5 -146.5t-159.5 -130q-104 -57 -259 -67q0 -40 -6.5 -91t-6.5 -70q0 -24 1 -71t1 -71q0 -13 -1 -40 t-1 -40q0 -10 6.5 -29t6.5 -30q0 -21 -23 -41t-65 -20q-95 0 -95 24q0 11 6.5 43t6.5 51q0 8 -3 21t-3 20q0 8 10 60q4 16 5 34t2 38q0 20 1 46q4 82 6 100t2 58q-87 0 -151 17q-45 12 -60.5 31t-18.5 49.5t-5 36.5q-12 24 -53 37t-63 39q-22 27 -22 112q0 170 123 265 t275 124zM598 545q-5 -68 -5 -94q0 -9 1 -42t1 -71q-2 -33 -7.5 -82t-7.5 -76q-2 -18 -2 -55q141 29 219.5 85t106 115.5t27.5 110.5q0 65 -65 91q-64 26 -157 26q-58 0 -111 -8zM432 123q17 306 19 402q-119 -31 -174 -82q-56 -50 -56 -101q0 -49 37 -76q12 -8 39 -21 t40 -25t13 -33q0 -9 -5 -22t-5 -17q0 -2 13.5 -3t25.5 -5l16 -6q7 -2 9 -3q5 -1 15 -4t13 -4z" />
<glyph unicode="&#x444;" horiz-adv-x="1075" d="M451 684q-1 22 -2 36t-3 32.5t-2 34.5q-1 15 -1 24q0 111 71 111q103 0 103 -137q0 -23 -4 -76q63 6 108 6q147 0 230 -45.5t112 -106.5t29 -118q0 -49 -21 -120.5t-76.5 -146.5t-159.5 -130q-104 -57 -259 -67q0 -40 -6.5 -91t-6.5 -70q0 -24 1 -71t1 -71q0 -13 -1 -40 t-1 -40q0 -10 6.5 -29t6.5 -30q0 -21 -23 -41t-65 -20q-95 0 -95 24q0 11 6.5 43t6.5 51q0 8 -3 21t-3 20q0 8 10 60q4 16 5 34t2 38q0 20 1 46q4 82 6 100t2 58q-87 0 -151 17q-45 12 -60.5 31t-18.5 49.5t-5 36.5q-12 24 -53 37t-63 39q-22 27 -22 112q0 170 123 265 t275 124zM598 545q-5 -68 -5 -94q0 -9 1 -42t1 -71q-2 -33 -7.5 -82t-7.5 -76q-2 -18 -2 -55q141 29 219.5 85t106 115.5t27.5 110.5q0 65 -65 91q-64 26 -157 26q-58 0 -111 -8zM432 123q17 306 19 402q-119 -31 -174 -82q-56 -50 -56 -101q0 -49 37 -76q12 -8 39 -21 t40 -25t13 -33q0 -9 -5 -22t-5 -17q0 -2 13.5 -3t25.5 -5l16 -6q7 -2 9 -3q5 -1 15 -4t13 -4z" />
<glyph unicode="&#xf5;" horiz-adv-x="774" d="M37 824q47 0 73.5 -18t54.5 -64q29 -45 38 -58l72 -87q40 -48 73 -97.5t33 -77.5v-4q25 0 50.5 16.5t68.5 52.5t65 52t46 20q5 1 24.5 3t32.5 6q7 2 23.5 14t27.5 12q30 0 55 -18.5t25 -55.5q0 -45 -37 -74.5t-86 -44.5l-71 -22q-137 -48 -137 -78q0 -24 49 -88l57 -76 q50 -66 55 -73q20 -27 25.5 -38.5t8.5 -26.5q3 -14 7 -24l13 -28q10 -18 15 -32t5 -30q0 -46 -70 -68q-18 -6 -39 -6q-16 0 -35 6q-17 7 -25.5 15.5t-12.5 19t-6 23.5q-3 14 -5 26q-7 41 -19.5 63t-48.5 73q-36 49 -59 92l-16 32q-7 14 -14.5 25.5t-18.5 24.5 q-29 -8 -77 -48.5t-79 -76.5q-22 -26 -37.5 -60t-28.5 -44.5t-54 -10.5q-33 0 -52 35q-18 34 -18 70q0 24 40.5 81t95.5 112q17 17 48.5 25t49.5 22q4 3 12 11t10 9q3 2 5 4q3 1 4 2q-32 48 -40 64.5t-24 40.5q-6 9 -22 29l-27 34q-10 14 -23.5 35.5t-15.5 24.5 q-11 15 -46 53t-55 66.5t-20 54.5q0 38 16 59t41 21z" />
<glyph unicode="&#x445;" horiz-adv-x="774" d="M37 824q47 0 73.5 -18t54.5 -64q29 -45 38 -58l72 -87q40 -48 73 -97.5t33 -77.5v-4q25 0 50.5 16.5t68.5 52.5t65 52t46 20q5 1 24.5 3t32.5 6q7 2 23.5 14t27.5 12q30 0 55 -18.5t25 -55.5q0 -45 -37 -74.5t-86 -44.5l-71 -22q-137 -48 -137 -78q0 -24 49 -88l57 -76 q50 -66 55 -73q20 -27 25.5 -38.5t8.5 -26.5q3 -14 7 -24l13 -28q10 -18 15 -32t5 -30q0 -46 -70 -68q-18 -6 -39 -6q-16 0 -35 6q-17 7 -25.5 15.5t-12.5 19t-6 23.5q-3 14 -5 26q-7 41 -19.5 63t-48.5 73q-36 49 -59 92l-16 32q-7 14 -14.5 25.5t-18.5 24.5 q-29 -8 -77 -48.5t-79 -76.5q-22 -26 -37.5 -60t-28.5 -44.5t-54 -10.5q-33 0 -52 35q-18 34 -18 70q0 24 40.5 81t95.5 112q17 17 48.5 25t49.5 22q4 3 12 11t10 9q3 2 5 4q3 1 4 2q-32 48 -40 64.5t-24 40.5q-6 9 -22 29l-27 34q-10 14 -23.5 35.5t-15.5 24.5 q-11 15 -46 53t-55 66.5t-20 54.5q0 38 16 59t41 21z" />
<glyph unicode="&#xf6;" horiz-adv-x="1174" d="M164 723q34 0 52.5 -11.5t25.5 -32.5q8 -21 11 -59q4 -38 7 -77v-76q0 -297 27 -297q22 0 46 32t44 74l35 70l74 158q43 95 64 114t69 19q45 0 67.5 -13t32.5 -43t22 -112q12 -81 23 -145l12 -75q6 -34 14.5 -60.5t24.5 -44t39 -17.5q16 0 29.5 6t30.5 16t32 17 q23 10 70 10q52 0 76 -36.5t30 -89.5q5 -55 5 -147q0 -99 -15 -233q-15 -133 -41 -256t-55 -186q-67 -152 -132 -217q-64 -66 -167 -66q-97 0 -160 38q-62 38 -114 109q-26 36 -40.5 76t-22 84.5t-10 79t-3.5 59.5v50q4 22 21.5 40.5t39.5 18.5q53 0 73.5 -35.5t27.5 -103.5 v-80q10 -52 59 -112t115 -60q27 0 64 22q37 23 67 58q30 36 37 69q2 13 4 32.5t6 33.5q5 14 18 33q26 33 35 55.5t11 89.5q4 128 15 240q12 112 12 143q0 11 -10.5 35.5t-10.5 48.5q0 5 2 16t2 15q0 6 -4 6q-23 0 -57.5 -11.5t-104.5 -11.5q-94 0 -128.5 77.5t-37.5 152.5 q-1 24 -3 62.5t-9 73t-23 34.5q-2 0 -10 -25q-7 -26 -29 -71t-70 -115q-40 -56 -115 -116t-128 -60q-36 0 -68 38.5t-39 78.5v84q0 16 -3 45q-4 30 -5 45q0 27 -2 39v39q-2 22 -4 37.5t-3 31t-1 31.5v47q-2 20 -9.5 35t-7.5 74q0 53 13.5 77.5t56.5 24.5z" />
<glyph unicode="&#x446;" horiz-adv-x="1174" d="M164 723q34 0 52.5 -11.5t25.5 -32.5q8 -21 11 -59q4 -38 7 -77v-76q0 -297 27 -297q22 0 46 32t44 74l35 70l74 158q43 95 64 114t69 19q45 0 67.5 -13t32.5 -43t22 -112q12 -81 23 -145l12 -75q6 -34 14.5 -60.5t24.5 -44t39 -17.5q16 0 29.5 6t30.5 16t32 17 q23 10 70 10q52 0 76 -36.5t30 -89.5q5 -55 5 -147q0 -99 -15 -233q-15 -133 -41 -256t-55 -186q-67 -152 -132 -217q-64 -66 -167 -66q-97 0 -160 38q-62 38 -114 109q-26 36 -40.5 76t-22 84.5t-10 79t-3.5 59.5v50q4 22 21.5 40.5t39.5 18.5q53 0 73.5 -35.5t27.5 -103.5 v-80q10 -52 59 -112t115 -60q27 0 64 22q37 23 67 58q30 36 37 69q2 13 4 32.5t6 33.5q5 14 18 33q26 33 35 55.5t11 89.5q4 128 15 240q12 112 12 143q0 11 -10.5 35.5t-10.5 48.5q0 5 2 16t2 15q0 6 -4 6q-23 0 -57.5 -11.5t-104.5 -11.5q-94 0 -128.5 77.5t-37.5 152.5 q-1 24 -3 62.5t-9 73t-23 34.5q-2 0 -10 -25q-7 -26 -29 -71t-70 -115q-40 -56 -115 -116t-128 -60q-36 0 -68 38.5t-39 78.5v84q0 16 -3 45q-4 30 -5 45q0 27 -2 39v39q-2 22 -4 37.5t-3 31t-1 31.5v47q-2 20 -9.5 35t-7.5 74q0 53 13.5 77.5t56.5 24.5z" />
<glyph unicode="&#xf7;" horiz-adv-x="801" d="M656 830q73 0 73 -58q0 -53 -30 -145q-5 -13 -20 -35t-23.5 -50t-8.5 -85q12 4 21 4h8q40 -1 64 -26q24 -24 24 -62q0 -32 -16.5 -44t-55.5 -23t-63 -23q0 -54 -1 -72q-1 -17 -1 -31q0 -32 -2 -49q-1 -2 -4.5 -17t-3.5 -24q0 -13 12 -26t12 -33q0 -27 -27 -54 q-27 -26 -57 -26q-32 0 -64 14t-32 37q0 13 2 41.5t2 42.5q0 12 -2 28t-2 32q0 29 6 57.5t6 42.5q-40 -4 -73 -4q-67 0 -146 16q-74 16 -115.5 40t-63.5 79t-22 156q0 47 15 111q15 65 45 111t72 46q81 0 81 -84q0 -22 -26.5 -85t-26.5 -99q0 -60 8 -86q8 -25 22.5 -31.5 t51.5 -9.5q21 -1 54.5 -6t52.5 -7q33 0 73 9q10 67 20 102q11 35 15 64q28 171 65 216q36 46 81 46z" />
<glyph unicode="&#x447;" horiz-adv-x="801" d="M656 830q73 0 73 -58q0 -53 -30 -145q-5 -13 -20 -35t-23.5 -50t-8.5 -85q12 4 21 4h8q40 -1 64 -26q24 -24 24 -62q0 -32 -16.5 -44t-55.5 -23t-63 -23q0 -54 -1 -72q-1 -17 -1 -31q0 -32 -2 -49q-1 -2 -4.5 -17t-3.5 -24q0 -13 12 -26t12 -33q0 -27 -27 -54 q-27 -26 -57 -26q-32 0 -64 14t-32 37q0 13 2 41.5t2 42.5q0 12 -2 28t-2 32q0 29 6 57.5t6 42.5q-40 -4 -73 -4q-67 0 -146 16q-74 16 -115.5 40t-63.5 79t-22 156q0 47 15 111q15 65 45 111t72 46q81 0 81 -84q0 -22 -26.5 -85t-26.5 -99q0 -60 8 -86q8 -25 22.5 -31.5 t51.5 -9.5q21 -1 54.5 -6t52.5 -7q33 0 73 9q10 67 20 102q11 35 15 64q28 171 65 216q36 46 81 46z" />
<glyph unicode="&#xf8;" horiz-adv-x="1307" d="M180 719q51 0 65.5 -26t14.5 -89v-65q0 -13 -3 -39q-2 -26 -3 -37v-86q0 -47 -6.5 -100t-6.5 -86q0 -19 3 -19q11 0 37.5 52.5t61 133t36.5 85.5q9 19 34 56t43 70q18 34 32 80q9 33 24.5 51.5t55.5 18.5q50 0 64.5 -27.5t14.5 -87.5v-65q0 -13 -3 -39q-2 -26 -3 -37 q0 -106 15 -190q4 -28 7.5 -66.5t6.5 -38.5q4 0 12 25q9 25 19 47l21 39q14 24 18 33q7 16 15 38l15 41q47 120 70 168q23 49 44.5 64.5t61.5 15.5q50 0 74.5 -19t34.5 -53t21 -112t22 -131q7 -40 16.5 -88t24.5 -79.5t43 -31.5q6 0 13.5 12.5t27 32t65.5 51.5q19 13 43 13 q31 0 52.5 -22t21.5 -66q0 -28 -42.5 -72.5t-97 -79.5t-81.5 -35q-71 0 -123 44t-81 104t-36 104q-2 17 -2 43q-1 25 -4 43q-8 37 -8 41v23q-5 12 -10 12q-3 0 -4 -22q-1 -23 -6 -37q-5 -9 -13 -25q-7 -18 -12.5 -33.5t-9.5 -25.5q-91 -234 -217 -234q-49 0 -85 44.5 t-55 110.5q-19 67 -19 132q0 19 1 41q1 21 2 31q0 -12 -29 -78q-2 -6 -6 -14t-11 -20.5t-8 -14.5q-1 -5 -4 -10.5t-4 -8.5q-46 -106 -91.5 -167t-108.5 -61q-57 0 -91 39.5t-42 73.5l-1 89q0 17 -5 52t-5 52q0 14 3 39q3 26 3 39q0 17 -1 49q-1 33 -1 49q0 10 2 27t2 26 t-1 27.5t-1 28.5v55q3 42 17 67q15 25 61 25zM1108 -148q-4 -2 -38 -12.5t-50 -13.5q-7 -2 -34 -5.5t-42 -9.5q-14 -5 -28 -11t-23 -9q-16 -6 -67 -18.5t-179 -51.5q-61 -19 -121 -52q-59 -34 -92 -34q-36 0 -59 33t-23 59q0 47 88 91q88 45 201 57q107 11 135 25l52 25 q24 12 125 19h73q68 0 86.5 -18t18.5 -47q0 -13 -23 -27z" />
<glyph unicode="&#x448;" horiz-adv-x="1307" d="M180 719q51 0 65.5 -26t14.5 -89v-65q0 -13 -3 -39q-2 -26 -3 -37v-86q0 -47 -6.5 -100t-6.5 -86q0 -19 3 -19q11 0 37.5 52.5t61 133t36.5 85.5q9 19 34 56t43 70q18 34 32 80q9 33 24.5 51.5t55.5 18.5q50 0 64.5 -27.5t14.5 -87.5v-65q0 -13 -3 -39q-2 -26 -3 -37 q0 -106 15 -190q4 -28 7.5 -66.5t6.5 -38.5q4 0 12 25q9 25 19 47l21 39q14 24 18 33q7 16 15 38l15 41q47 120 70 168q23 49 44.5 64.5t61.5 15.5q50 0 74.5 -19t34.5 -53t21 -112t22 -131q7 -40 16.5 -88t24.5 -79.5t43 -31.5q6 0 13.5 12.5t27 32t65.5 51.5q19 13 43 13 q31 0 52.5 -22t21.5 -66q0 -28 -42.5 -72.5t-97 -79.5t-81.5 -35q-71 0 -123 44t-81 104t-36 104q-2 17 -2 43q-1 25 -4 43q-8 37 -8 41v23q-5 12 -10 12q-3 0 -4 -22q-1 -23 -6 -37q-5 -9 -13 -25q-7 -18 -12.5 -33.5t-9.5 -25.5q-91 -234 -217 -234q-49 0 -85 44.5 t-55 110.5q-19 67 -19 132q0 19 1 41q1 21 2 31q0 -12 -29 -78q-2 -6 -6 -14t-11 -20.5t-8 -14.5q-1 -5 -4 -10.5t-4 -8.5q-46 -106 -91.5 -167t-108.5 -61q-57 0 -91 39.5t-42 73.5l-1 89q0 17 -5 52t-5 52q0 14 3 39q3 26 3 39q0 17 -1 49q-1 33 -1 49q0 10 2 27t2 26 t-1 27.5t-1 28.5v55q3 42 17 67q15 25 61 25zM1108 -148q-4 -2 -38 -12.5t-50 -13.5q-7 -2 -34 -5.5t-42 -9.5q-14 -5 -28 -11t-23 -9q-16 -6 -67 -18.5t-179 -51.5q-61 -19 -121 -52q-59 -34 -92 -34q-36 0 -59 33t-23 59q0 47 88 91q88 45 201 57q107 11 135 25l52 25 q24 12 125 19h73q68 0 86.5 -18t18.5 -47q0 -13 -23 -27z" />
<glyph unicode="&#xf9;" horiz-adv-x="1559" d="M187 719q50 0 65 -26t15 -89v-65q0 -13 -3 -39q-2 -26 -3 -37v-86q0 -73 -7 -104t-7 -74q0 -27 3 -27q15 0 41.5 52.5t55.5 123.5l38 95q9 19 35 59q27 39 42.5 68t31.5 79q11 34 25.5 52t54.5 18q50 0 65 -27.5t15 -87.5v-65q0 -17 -2.5 -41t-3.5 -35q0 -101 11 -198 q12 -97 27 -97q60 0 133 176q30 70 60 160t51 114.5t74 24.5q46 0 70.5 -17.5t34 -50t22 -120t18.5 -125.5q2 -10 10.5 -59t16.5 -74q9 -26 24.5 -44t40.5 -20q29 0 86 37q38 27 64 27q77 0 99 -82q22 -81 22 -205q0 -156 -24 -332t-73 -262q-50 -91 -86 -140.5t-83 -76.5 t-117 -27q-104 0 -181 42t-120 99q-43 58 -47 101v69q-1 11 -12 43q-10 31 -10 66q0 49 17.5 97t45 77t53.5 29q41 0 63 -27q23 -27 23 -72q0 -6 -16.5 -40.5t-16.5 -69.5q0 -250 186 -250q91 0 145 104q54 105 76 243q22 139 22 253q-2 11 -12.5 47t-10.5 61q0 5 4 33 q0 4 2 13t2 12q0 6 -4 8h-13q-6 -1 -33.5 -17t-58.5 -16q-20 0 -57 10q-73 23 -107 72t-46 112.5t-19 111.5q-21 96 -29 96q0 -90 -86 -207q-41 -56 -114 -116q-72 -60 -136 -60q-43 0 -81 62q-37 61 -44 125q-1 10 -3 50t-4 63q-3 24 -7 24q-5 0 -27 -52l-41 -88 q-53 -107 -87 -152q-35 -47 -99 -47q-66 0 -99 28.5t-42 70.5q-8 42 -8 109q0 80 6 125.5t6 50.5q0 17 -1 49q-1 33 -1 49q0 10 2 27t2 26t-1 27.5t-1 28.5v55q2 42 16 67t62 25z" />
<glyph unicode="&#x449;" horiz-adv-x="1559" d="M187 719q50 0 65 -26t15 -89v-65q0 -13 -3 -39q-2 -26 -3 -37v-86q0 -73 -7 -104t-7 -74q0 -27 3 -27q15 0 41.5 52.5t55.5 123.5l38 95q9 19 35 59q27 39 42.5 68t31.5 79q11 34 25.5 52t54.5 18q50 0 65 -27.5t15 -87.5v-65q0 -17 -2.5 -41t-3.5 -35q0 -101 11 -198 q12 -97 27 -97q60 0 133 176q30 70 60 160t51 114.5t74 24.5q46 0 70.5 -17.5t34 -50t22 -120t18.5 -125.5q2 -10 10.5 -59t16.5 -74q9 -26 24.5 -44t40.5 -20q29 0 86 37q38 27 64 27q77 0 99 -82q22 -81 22 -205q0 -156 -24 -332t-73 -262q-50 -91 -86 -140.5t-83 -76.5 t-117 -27q-104 0 -181 42t-120 99q-43 58 -47 101v69q-1 11 -12 43q-10 31 -10 66q0 49 17.5 97t45 77t53.5 29q41 0 63 -27q23 -27 23 -72q0 -6 -16.5 -40.5t-16.5 -69.5q0 -250 186 -250q91 0 145 104q54 105 76 243q22 139 22 253q-2 11 -12.5 47t-10.5 61q0 5 4 33 q0 4 2 13t2 12q0 6 -4 8h-13q-6 -1 -33.5 -17t-58.5 -16q-20 0 -57 10q-73 23 -107 72t-46 112.5t-19 111.5q-21 96 -29 96q0 -90 -86 -207q-41 -56 -114 -116q-72 -60 -136 -60q-43 0 -81 62q-37 61 -44 125q-1 10 -3 50t-4 63q-3 24 -7 24q-5 0 -27 -52l-41 -88 q-53 -107 -87 -152q-35 -47 -99 -47q-66 0 -99 28.5t-42 70.5q-8 42 -8 109q0 80 6 125.5t6 50.5q0 17 -1 49q-1 33 -1 49q0 10 2 27t2 26t-1 27.5t-1 28.5v55q2 42 16 67t62 25z" />
<glyph unicode="&#xfa;" horiz-adv-x="989" d="M511 441q22 56 90 88q69 32 145 32q89 0 128.5 -36t51.5 -152q0 -69 -20 -114t-64 -117q-36 -58 -67 -94q-30 -35 -88 -62t-144 -27q-39 0 -62 16q-23 17 -34 17t-29 -4.5t-29 -4.5q-75 0 -79 73v30q0 101 2 150q5 38 16 94q4 16 8 49q5 33 9 49q15 54 16 64 q2 14 2.5 22.5t2.5 23.5q3 14 7 30q29 91 31 91v-1q-4 0 -29.5 -14t-44.5 -19q-42 -12 -107 -12q-60 0 -90 13t-30 54q0 44 27.5 59t76.5 15h49q55 0 93 17q39 17 92 24q43 6 67 6q38 0 56 -15t18 -55q0 -32 -23.5 -84.5t-31.5 -107.5q-10 -71 -16 -98zM576 117q31 0 75 37 q44 38 77 89t33 87q0 52 -12 65t-38 13q-26 -3 -39.5 -10t-40.5 -32l-47 -42q-13 -10 -31.5 -26t-35.5 -37.5t-29 -53.5t-12 -74q0 -18 1 -18q5 0 17 4t22 4q16 0 33.5 -3t26.5 -3z" />
<glyph unicode="&#x44a;" horiz-adv-x="989" d="M511 441q22 56 90 88q69 32 145 32q89 0 128.5 -36t51.5 -152q0 -69 -20 -114t-64 -117q-36 -58 -67 -94q-30 -35 -88 -62t-144 -27q-39 0 -62 16q-23 17 -34 17t-29 -4.5t-29 -4.5q-75 0 -79 73v30q0 101 2 150q5 38 16 94q4 16 8 49q5 33 9 49q15 54 16 64 q2 14 2.5 22.5t2.5 23.5q3 14 7 30q29 91 31 91v-1q-4 0 -29.5 -14t-44.5 -19q-42 -12 -107 -12q-60 0 -90 13t-30 54q0 44 27.5 59t76.5 15h49q55 0 93 17q39 17 92 24q43 6 67 6q38 0 56 -15t18 -55q0 -32 -23.5 -84.5t-31.5 -107.5q-10 -71 -16 -98zM576 117q31 0 75 37 q44 38 77 89t33 87q0 52 -12 65t-38 13q-26 -3 -39.5 -10t-40.5 -32l-47 -42q-13 -10 -31.5 -26t-35.5 -37.5t-29 -53.5t-12 -74q0 -18 1 -18q5 0 17 4t22 4q16 0 33.5 -3t26.5 -3z" />
<glyph unicode="&#xfb;" horiz-adv-x="1063" d="M242 334q-14 -69 -14 -143t100 -74q52 0 123 90q71 93 71 123t-11 54t-29 24q-11 0 -50 -39q-35 -39 -86 -39q-33 0 -56.5 24t-23.5 58q0 88 132 131q90 29 219 90q8 4 86 62q18 14 30 22q97 63 107 70q64 49 106 49q23 0 40.5 -23t17.5 -75q0 -33 -9 -75 q-8 -41 -27 -119t-31 -140q-11 -61 -18 -135q0 -136 56 -136q41 0 98 35q54 29 68 29q19 0 30 -29.5t11 -62.5q0 -63 -60 -97.5t-157 -34.5q-107 0 -157 73.5t-50 193.5q3 95 16 151t33.5 112t20.5 85q0 6 -9 6q-11 0 -39 -16q-27 -16 -69 -45t-49 -33q3 -13 18 -61t15 -70 q0 -51 -23 -95.5t-78 -131.5q-51 -83 -112.5 -134t-174.5 -51q-84 0 -159.5 47t-75.5 170q0 100 15 160q45 177 45 268q0 8 -5 20.5t-5 18.5t7 16t7 15q0 7 -4 22t-4 23q0 32 29 56q30 24 75 24q24 0 45.5 -15t21.5 -34q0 -25 -3 -51t-7 -51l-8 -50v-49q0 -31 -39 -213z" />
<glyph unicode="&#x44b;" horiz-adv-x="1063" d="M242 334q-14 -69 -14 -143t100 -74q52 0 123 90q71 93 71 123t-11 54t-29 24q-11 0 -50 -39q-35 -39 -86 -39q-33 0 -56.5 24t-23.5 58q0 88 132 131q90 29 219 90q8 4 86 62q18 14 30 22q97 63 107 70q64 49 106 49q23 0 40.5 -23t17.5 -75q0 -33 -9 -75 q-8 -41 -27 -119t-31 -140q-11 -61 -18 -135q0 -136 56 -136q41 0 98 35q54 29 68 29q19 0 30 -29.5t11 -62.5q0 -63 -60 -97.5t-157 -34.5q-107 0 -157 73.5t-50 193.5q3 95 16 151t33.5 112t20.5 85q0 6 -9 6q-11 0 -39 -16q-27 -16 -69 -45t-49 -33q3 -13 18 -61t15 -70 q0 -51 -23 -95.5t-78 -131.5q-51 -83 -112.5 -134t-174.5 -51q-84 0 -159.5 47t-75.5 170q0 100 15 160q45 177 45 268q0 8 -5 20.5t-5 18.5t7 16t7 15q0 7 -4 22t-4 23q0 32 29 56q30 24 75 24q24 0 45.5 -15t21.5 -34q0 -25 -3 -51t-7 -51l-8 -50v-49q0 -31 -39 -213z" />
<glyph unicode="&#xfc;" horiz-adv-x="772" d="M226 426q59 85 133.5 120.5t130.5 35.5q63 0 106 -32.5t63.5 -81t20.5 -97.5q0 -64 -23.5 -159t-96.5 -175q-72 -80 -203 -80q-111 0 -204 58t-93 147q0 14 1 42q1 27 1 42v82q1 13 9.5 45.5t8.5 52.5q0 50 -5 87.5t-13.5 83.5t-8.5 65q0 4 4.5 11t4.5 11q0 9 -8.5 23 t-8.5 22q0 35 25 60.5t74 25.5q28 0 51.5 -14t23.5 -35q0 -6 -2 -18.5t-2 -20.5q0 -9 3 -27q3 -17 3 -26q0 -17 -1 -51t-1 -51q0 -5 1 -12t1 -11v-14q2 -4 2 -15q5 -21 5 -34q0 -43 -2 -60zM348 117q47 0 102 55t64 103v45q0 88 -57 88q-24 0 -79 -38q-56 -37 -99 -84.5 t-43 -76.5q0 -41 21 -67q20 -25 91 -25z" />
<glyph unicode="&#x44c;" horiz-adv-x="772" d="M226 426q59 85 133.5 120.5t130.5 35.5q63 0 106 -32.5t63.5 -81t20.5 -97.5q0 -64 -23.5 -159t-96.5 -175q-72 -80 -203 -80q-111 0 -204 58t-93 147q0 14 1 42q1 27 1 42v82q1 13 9.5 45.5t8.5 52.5q0 50 -5 87.5t-13.5 83.5t-8.5 65q0 4 4.5 11t4.5 11q0 9 -8.5 23 t-8.5 22q0 35 25 60.5t74 25.5q28 0 51.5 -14t23.5 -35q0 -6 -2 -18.5t-2 -20.5q0 -9 3 -27q3 -17 3 -26q0 -17 -1 -51t-1 -51q0 -5 1 -12t1 -11v-14q2 -4 2 -15q5 -21 5 -34q0 -43 -2 -60zM348 117q47 0 102 55t64 103v45q0 88 -57 88q-24 0 -79 -38q-56 -37 -99 -84.5 t-43 -76.5q0 -41 21 -67q20 -25 91 -25z" />
<glyph unicode="&#xfd;" horiz-adv-x="815" d="M350 889q17 0 45 -11t41 -13q42 -6 78 -12t70 -25t74 -72t80 -147q6 -9 26 -9q18 -1 28.5 -27.5t10.5 -50.5q0 -15 -26 -35t-48 -28q-42 -170 -154 -261.5t-223 -120t-182 -28.5q-128 0 -168.5 23t-40.5 70q0 67 68 67q24 0 65.5 -11t61.5 -11q101 0 229 64t174 192 q-3 0 -65 -7q-52 -6 -127 -6q-43 0 -66 2q-7 0 -22 2t-23 2q-18 0 -28 -4q-5 -1 -23 -9q-18 -7 -29 -7q-20 0 -32 29q-13 30 -13 63q0 51 64 51q10 0 30 -4q21 -4 31 -4q9 0 25 5t20 5h52q18 -2 57 -2q34 0 53 4t37 5q31 0 74 6q0 77 -72 117t-154 42h-77q-31 -4 -47 -16.5 t-34 -34.5t-34 -32.5t-47 -10.5q-62 0 -62 60q0 68 55.5 111t127.5 61t120 18z" />
<glyph unicode="&#x44d;" horiz-adv-x="815" d="M350 889q17 0 45 -11t41 -13q42 -6 78 -12t70 -25t74 -72t80 -147q6 -9 26 -9q18 -1 28.5 -27.5t10.5 -50.5q0 -15 -26 -35t-48 -28q-42 -170 -154 -261.5t-223 -120t-182 -28.5q-128 0 -168.5 23t-40.5 70q0 67 68 67q24 0 65.5 -11t61.5 -11q101 0 229 64t174 192 q-3 0 -65 -7q-52 -6 -127 -6q-43 0 -66 2q-7 0 -22 2t-23 2q-18 0 -28 -4q-5 -1 -23 -9q-18 -7 -29 -7q-20 0 -32 29q-13 30 -13 63q0 51 64 51q10 0 30 -4q21 -4 31 -4q9 0 25 5t20 5h52q18 -2 57 -2q34 0 53 4t37 5q31 0 74 6q0 77 -72 117t-154 42h-77q-31 -4 -47 -16.5 t-34 -34.5t-34 -32.5t-47 -10.5q-62 0 -62 60q0 68 55.5 111t127.5 61t120 18z" />
<glyph unicode="&#xfe;" horiz-adv-x="1178" d="M215 715q63 0 85 -30t22 -91q0 -63 -13 -217q42 6 90 7q47 1 60 6.5t21 25.5q7 21 24 88q24 89 65 140q42 51 90.5 71t100.5 20q56 0 102 -18q70 -27 103.5 -48t48.5 -43.5t39 -72.5l27 -58q12 -25 19.5 -44t13 -43t5.5 -49q0 -146 -86 -264q-86 -120 -266 -120 q-143 0 -210 85q-67 83 -74 200q-42 -10 -84 -14.5t-89 -11.5q2 -44 11 -98q10 -54 10 -80q0 -40 -12 -59q-13 -18 -54 -18q-64 0 -82 38.5t-18 99.5q0 6 2 24.5t2 34.5q0 11 -3.5 28t-6.5 17q-69 0 -93 19.5t-24 81.5q0 47 68 47h49q4 55 10 120t6 91q0 22 -2 57.5t-2 46.5 q0 13 14.5 22t30.5 9zM764 582q-70 -11 -90 -70t-20 -168v-47q0 -93 24 -130.5t100 -37.5q58 0 82 26t50 73l23 34q9 13 14 27q6 15 6 35q0 44 -39 137q-20 47 -51.5 84t-98.5 37z" />
<glyph unicode="&#x44e;" horiz-adv-x="1178" d="M215 715q63 0 85 -30t22 -91q0 -63 -13 -217q42 6 90 7q47 1 60 6.5t21 25.5q7 21 24 88q24 89 65 140q42 51 90.5 71t100.5 20q56 0 102 -18q70 -27 103.5 -48t48.5 -43.5t39 -72.5l27 -58q12 -25 19.5 -44t13 -43t5.5 -49q0 -146 -86 -264q-86 -120 -266 -120 q-143 0 -210 85q-67 83 -74 200q-42 -10 -84 -14.5t-89 -11.5q2 -44 11 -98q10 -54 10 -80q0 -40 -12 -59q-13 -18 -54 -18q-64 0 -82 38.5t-18 99.5q0 6 2 24.5t2 34.5q0 11 -3.5 28t-6.5 17q-69 0 -93 19.5t-24 81.5q0 47 68 47h49q4 55 10 120t6 91q0 22 -2 57.5t-2 46.5 q0 13 14.5 22t30.5 9zM764 582q-70 -11 -90 -70t-20 -168v-47q0 -93 24 -130.5t100 -37.5q58 0 82 26t50 73l23 34q9 13 14 27q6 15 6 35q0 44 -39 137q-20 47 -51.5 84t-98.5 37z" />
<glyph unicode="&#xff;" horiz-adv-x="858" d="M457 766q101 0 159 -58.5t58 -156.5q0 -95 -22 -164q52 -42 65.5 -79.5t13.5 -114.5q0 -36 -9 -71q-9 -34 -9 -46v-43q-5 -16 -29 -32q-25 -18 -43 -18q-31 0 -58.5 23t-27.5 72q0 34 10 57q25 66 25 74q0 31 -49 55q-44 -55 -95 -91q-50 -36 -104 -60l-106 -47 q-3 -1 -50.5 -24t-80 -34.5t-62.5 -11.5q-31 0 -60 23q-28 23 -28 51q0 55 18 67.5t75.5 22.5t99.5 37q11 8 51 16q44 11 70 29q31 19 46 31q14 13 33 22q-91 31 -129.5 49.5t-62 56.5t-23.5 109q0 63 47.5 122.5t122.5 96.5q76 37 154 37zM428 434q29 -4 41 -4 q20 0 35.5 34.5t15.5 62.5q0 98 -71 98q-40 0 -88.5 -29t-57.5 -76v-32q8 -25 28 -35q21 -10 47 -13z" />
<glyph unicode="&#x44f;" horiz-adv-x="858" d="M457 766q101 0 159 -58.5t58 -156.5q0 -95 -22 -164q52 -42 65.5 -79.5t13.5 -114.5q0 -36 -9 -71q-9 -34 -9 -46v-43q-5 -16 -29 -32q-25 -18 -43 -18q-31 0 -58.5 23t-27.5 72q0 34 10 57q25 66 25 74q0 31 -49 55q-44 -55 -95 -91q-50 -36 -104 -60l-106 -47 q-3 -1 -50.5 -24t-80 -34.5t-62.5 -11.5q-31 0 -60 23q-28 23 -28 51q0 55 18 67.5t75.5 22.5t99.5 37q11 8 51 16q44 11 70 29q31 19 46 31q14 13 33 22q-91 31 -129.5 49.5t-62 56.5t-23.5 109q0 63 47.5 122.5t122.5 96.5q76 37 154 37zM428 434q29 -4 41 -4 q20 0 35.5 34.5t15.5 62.5q0 98 -71 98q-40 0 -88.5 -29t-57.5 -76v-32q8 -25 28 -35q21 -10 47 -13z" />
<glyph unicode="&#x152;" />
<glyph unicode="&#x153;" />
<glyph unicode="&#x178;" />
<glyph unicode="&#x2013;" horiz-adv-x="1114" d="M588 731q68 2 203 2h69q79 0 119.5 -15t40.5 -64q0 -79 -121 -79q-28 0 -82 4h-79q-71 -2 -207 -14q-8 0 -63.5 -5t-76.5 -6q-20 -1 -110 -1q-95 0 -142 22q-47 23 -47 54q0 34 25.5 53.5t65 26t93.5 8.5q54 1 103 2q46 2 75 3.5t64.5 4t69.5 4.5z" />
<glyph unicode="&#x2014;" horiz-adv-x="1319" d="M588 500q61 3 184 5q122 2 183 5q15 0 46 1t46 1q39 0 57 -2q68 -9 94.5 -19.5t26.5 -51.5q0 -89 -227 -89q-33 0 -89 3q-57 2 -94 2q-53 -1 -142 -9q-89 -7 -142 -10q-21 -1 -42.5 -5t-59.5 -7q-39 -2 -148 -2q-94 0 -141.5 24t-47.5 54q0 43 50 64.5t121 27.5t190 6 q119 1 135 2z" />
<glyph unicode="&#x2018;" horiz-adv-x="455" d="M133 879q-22 0 -37 25q-16 26 -16 53q0 15 16 46.5t25 67.5q6 25 9 40q4 14 11 36.5t23 67.5q22 60 35 114q9 34 37 107q7 19 37 121t58.5 153.5t70.5 51.5q26 0 45.5 -32t19.5 -67q0 -28 -9.5 -61t-52.5 -138l-81 -204q-21 -52 -40 -165t-48 -164.5t-103 -51.5z" />
<glyph unicode="&#x2019;" horiz-adv-x="475" d="M111 865q-31 0 -31 81q0 21 12.5 60t59.5 165l104 277q21 56 42.5 170t46.5 165.5t83 51.5q27 0 43.5 -32.5t16.5 -67.5q0 -62 -25 -145.5t-71 -199.5q-47 -115 -52 -128l-68 -204q-29 -89 -66 -141q-36 -52 -95 -52z" />
<glyph unicode="&#x201a;" horiz-adv-x="363" d="M275 307q23 0 38 -25.5t15 -51.5q0 -21 -100 -259q-20 -48 -27.5 -71t-22 -81t-34.5 -128q-16 -55 -28 -189q-13 -133 -33 -199q-20 -65 -75 -65q-25 0 -45 31.5t-20 64.5q0 69 32 222q33 153 76.5 313t67.5 225q10 26 26 84q17 58 28 81t34 35.5t68 12.5z" />
<glyph unicode="&#x201c;" horiz-adv-x="758" d="M457 877q-24 0 -38.5 26t-14.5 54q0 11 20 55q9 18 16 52.5t11 45.5q10 36 23 57l30 54q18 33 35 91q18 57 39 167q49 259 49 272q12 101 78 101q25 0 45 -32q20 -31 20 -65q0 -45 -28.5 -178.5t-68 -280.5t-60.5 -206q-14 -36 -28 -87q-15 -50 -26.5 -74.5t-35 -38 t-66.5 -13.5zM133 879q-22 0 -37 25q-16 26 -16 53q0 13 21 57q12 29 34 115q7 24 29.5 88t34.5 112q4 8 8 27q11 37 34.5 97.5t31.5 88.5q6 24 27 116q21 93 44 135t64 42q26 0 45.5 -32.5t19.5 -67.5q0 -66 -24.5 -146t-71 -194t-53.5 -133q-18 -48 -35 -140t-27.5 -134 t-41.5 -75q-30 -34 -87 -34z" />
<glyph unicode="&#x201d;" horiz-adv-x="770" d="M396 1809q23 0 38 -27q15 -26 15 -55q0 -44 -71.5 -219.5t-84.5 -223.5q-10 -38 -24.5 -134t-25.5 -148t-35 -90q-23 -39 -62 -39q-25 0 -45.5 31t-20.5 65q0 24 6 56t16 75l42 168l49 192q43 181 82 265t121 84zM729 1848q23 0 39 -26q15 -25 15 -52q0 -29 -29 -120.5 t-70.5 -205t-62.5 -166.5q-16 -39 -39 -137t-34 -137.5t-34 -76t-59 -36.5q-26 0 -46 33t-20 67q0 65 24.5 145.5t71.5 195t54 133.5q18 49 38.5 164t49.5 167t102 52z" />
<glyph unicode="&#x201e;" horiz-adv-x="981" d="M453 307q24 0 39 -26t15 -53q0 -8 -21 -56q-9 -20 -16 -54q-7 -33 -10 -44q-11 -37 -37.5 -81t-51.5 -121q-24 -77 -57 -259q-9 -50 -19 -135t-19.5 -131t-30.5 -77.5t-58 -31.5q-25 0 -45 31q-21 32 -21 65q0 36 26 160.5t44 220.5q35 190 65 309q29 117 78 200t119 83z M776 305q24 0 39 -25.5t15 -51.5q0 -50 -35.5 -156.5t-92.5 -252t-67 -178.5q-8 -29 -31.5 -138.5t-48 -162.5t-69.5 -53q-27 0 -46.5 31.5t-19.5 66.5q0 63 32 168.5t72 208.5l62 160q18 48 35 140.5t27.5 134.5t41 75t86.5 33z" />
<glyph unicode="&#x2022;" horiz-adv-x="910" d="M482 809q20 0 55 -23t41 -26q127 -50 127 -119q0 -29 -29.5 -83.5t-36.5 -74.5q-2 -8 -7 -54.5t-33 -63t-113 -16.5q-68 0 -100 8q-33 6 -43.5 17.5t-18.5 37t-19 40.5q-12 17 -45 40.5t-44 33t-11 23.5q0 44 70 133q96 127 207 127z" />
<glyph unicode="&#x2026;" horiz-adv-x="881" d="M70 39q0 73 26.5 91t79.5 18q103 0 103 -103q0 -31 -26 -71t-77 -40q-40 0 -73 23.5t-33 81.5zM441 154q66 0 85 -25q19 -24 19 -86q0 -90 -102 -90q-32 0 -74.5 30t-42.5 66q0 29 30.5 67t84.5 38zM721 174q69 0 88 -34t19 -93q0 -38 -18 -64q-17 -26 -83 -26 q-34 0 -76 30t-42 66q0 19 18 49q19 30 45 51t49 21z" />
<glyph unicode="&#x2039;" horiz-adv-x="660" d="M393 789q32 0 60 -23q29 -23 29 -49q0 -23 -53 -106.5t-87 -120.5q-29 -36 -29 -43q0 -14 45 -54q193 -166 193 -217q0 -23 -22.5 -44t-44.5 -21q-47 0 -126 63q-79 64 -144 143t-65 111q0 34 27.5 94.5t116.5 196.5q25 36 44 53t56 17z" />
<glyph unicode="&#x203a;" horiz-adv-x="606" d="M226 111q-29 0 -55.5 24.5t-26.5 49.5q0 23 68 112t93 115l24 23q11 10 11 18q0 14 -41 55q-96 97 -133 142t-37 73q0 23 24.5 44.5t49.5 21.5q45 0 158 -103q36 -31 88.5 -104t52.5 -113q0 -34 -33 -95t-137 -196q-53 -67 -106 -67z" />
<glyph unicode="&#x2122;" horiz-adv-x="1561" d="M381 1379q62 0 62 -27v-19q2 0 20.5 11.5t36.5 15.5q5 1 15.5 2t15.5 2q15 2 43 10.5t45 12.5q20 5 79 14.5t78 9.5q101 0 101 -106q0 -21 -12.5 -33t-35.5 -19q-22 -6 -49 -10q-26 -3 -62 -8q-75 -11 -146 -28q-90 -22 -112 -27v-160q0 -26 1 -80q1 -53 1 -82v-41 q0 -26 4 -39q1 -5 8.5 -28t7.5 -37v-23q1 -10 11 -28t10 -29q0 -22 -20 -43q-19 -22 -42 -22q-70 0 -102 49q-31 49 -31 108q0 11 1 34q1 22 1 34q0 11 -5 33q-5 23 -5 53q0 10 2 29q2 20 2 30q0 20 -5 59t-5 58q0 9 1 26q1 18 1 27l-1 39q-16 -8 -35 -8h-65q-35 0 -83 -4 q-47 -4 -65 -4q-30 0 -50 35q-19 35 -19 79q0 26 26 46q27 20 54 20q5 0 17 -5q11 -4 15 -5h31q21 2 62 2q9 0 27 -1t26 -1q3 0 12 4t14 4q7 1 20 1t17 1q7 6 13 26t19 31t50 11zM1297 1321q71 0 131 -57t60 -193q0 -13 -1 -41t-1 -43q0 -46 4 -63t13.5 -27t14 -30t4.5 -76 q0 -23 -12 -45.5t-29 -22.5q-68 0 -115 39q-46 39 -46 178q0 12 1 36q1 23 1 36q0 27 -11 78q-10 51 -18 51q-11 0 -23 -18q-11 -18 -22 -41q-10 -23 -21 -45q-13 -24 -37 -83q-23 -58 -40 -93t-42 -62t-57 -27q-48 0 -69.5 23.5t-25.5 49.5t-10 97q-1 22 -4.5 41t-5.5 29 q-2 15 -2 48q0 32 -2 32q-12 0 -37 -79q-24 -79 -24 -120q0 -25 6 -53q8 -41 8 -64q0 -40 -19.5 -71t-46.5 -31q-57 0 -85.5 26.5t-28.5 110.5q0 152 35 275q26 86 78 138t77 52q75 0 116 -35t54 -151q119 231 232 231z" />
<glyph unicode="&#xe000;" horiz-adv-x="825" d="M0 825h825v-825h-825v825z" />
<glyph unicode="&#xfb01;" horiz-adv-x="1365" d="M1174 617q66 0 80 -76v-78q-1 -22 -3.5 -45.5t-2.5 -42.5v-92q0 -177 -14.5 -243.5t-67.5 -66.5q-104 0 -104 44q0 47 8 112q4 27 6.5 60t5.5 69q1 4 3.5 23t2.5 33q0 26 -2 26t-29.5 -22.5t-56.5 -22.5q-32 0 -54 25t-22 67q0 20 13 35.5t40 38.5t42 39l48 54 q23 26 50 44.5t57 18.5zM1211 946q25 0 65.5 -31t53.5 -57q10 -22 10 -41q0 -41 -42.5 -64.5t-88.5 -23.5q-34 0 -72 22.5t-38 49.5q0 48 33.5 96.5t78.5 48.5zM426 1413q27 0 63.5 -16.5t69 -43t47.5 -54.5q15 -25 40 -82q24 -56 24 -70q0 -63 -18.5 -120t-52.5 -91.5 t-77 -34.5q-17 0 -31 18q-13 17 -13 36q0 21 15 54q16 32 16 89q0 10 -13 54q-12 44 -19 44q-13 0 -28 -22t-15 -60q2 -6 5 -12t4 -11q2 -6 2 -14q0 -22 -11 -57q-14 -63 -14 -102q0 -14 2 -41t2 -43q0 -37 -4 -62q-2 -15 -5 -33q-4 -17 -5 -33q-2 -15 -2 -26q0 -13 6 -47 q7 -35 10 -63q229 61 373 67h90q129 -9 152 -57q4 -8 4 -27q0 -16 -4 -26q-14 -37 -43 -46.5t-82 -9.5q-25 0 -72 4t-70 4q-81 0 -193 -17q-111 -17 -159 -46q25 -170 29 -340q0 -30 2 -93q1 -63 2 -92q2 -41 8 -76q4 -36 10.5 -73.5t10.5 -65.5q6 -46 11.5 -132t9.5 -107 q5 -29 38 -56q4 -2 14.5 -11t21.5 -24q10 -14 18 -38t8 -56q0 -29 -28 -68q-27 -40 -53 -40q-68 0 -108 56t-58.5 150.5t-25.5 222.5t-12 232q-8 149 -25 322q-10 88 -20 236q-51 -10 -96 -34.5t-101 -63.5t-76 -50q-14 -8 -37 -8q-25 0 -41 8q-55 25 -55 111q0 48 57 81 t189.5 72t157.5 48q0 71 -9 219q-10 154 -10 184q0 68 10 117l22 127q12 68 28 120t44 85.5t70 33.5z" />
<glyph unicode="&#xfb02;" horiz-adv-x="1297" d="M1152 1377q98 0 98 -119q0 -25 -3 -50t-9.5 -69t-9.5 -70q-3 -20 -24 -203l-44 -392q-24 -208 -40.5 -371.5t-16.5 -190.5q0 -13 7 -37t7 -35q0 -36 -34 -52t-73 -16q-38 0 -72.5 67.5t-34.5 115.5q0 31 7 44t22.5 25t23 25t9.5 43q0 18 -1 31.5t-1 20.5q0 30 20 168 q17 104 29 212t20 206l18 204q9 105 13 141q4 37 4 58q0 24 -3 67t-3 62q0 57 19.5 86t71.5 29zM426 1413q27 0 63.5 -16.5t69 -43t47.5 -54.5q15 -25 40 -82q24 -56 24 -70q0 -63 -18.5 -120t-52.5 -91.5t-77 -34.5q-17 0 -31 18q-13 17 -13 36q0 21 15 54q16 32 16 89 q0 10 -13 54q-12 44 -19 44q-13 0 -28 -22t-15 -60q2 -6 5 -12t4 -11q2 -6 2 -14q0 -22 -11 -57q-14 -63 -14 -102q0 -14 2 -41t2 -43q0 -37 -4 -62q-2 -15 -5 -33q-4 -17 -5 -33q-2 -15 -2 -26q0 -13 6 -47q7 -35 10 -63q229 61 373 67h90q129 -9 152 -57q4 -8 4 -27 q0 -16 -4 -26q-14 -37 -43 -46.5t-82 -9.5q-25 0 -72 4t-70 4q-81 0 -193 -17q-111 -17 -159 -46q25 -170 29 -340q0 -30 2 -93q1 -63 2 -92q2 -41 8 -76q4 -36 10.5 -73.5t10.5 -65.5q6 -46 11.5 -132t9.5 -107q5 -29 38 -56q4 -2 14.5 -11t21.5 -24q10 -14 18 -38t8 -56 q0 -29 -28 -68q-27 -40 -53 -40q-68 0 -108 56t-58.5 150.5t-25.5 222.5t-12 232q-8 149 -25 322q-10 88 -20 236q-51 -10 -96 -34.5t-101 -63.5t-76 -50q-14 -8 -37 -8q-25 0 -41 8q-55 25 -55 111q0 48 57 81t189.5 72t157.5 48q0 71 -9 219q-10 154 -10 184q0 68 10 117 l22 127q12 68 28 120t44 85.5t70 33.5z" />
<glyph unicode="&#xfb03;" horiz-adv-x="2238" d="M2047 617q66 0 80 -76v-78q-1 -22 -3.5 -45.5t-2.5 -42.5v-92q0 -177 -14.5 -243.5t-67.5 -66.5q-104 0 -104 44q0 47 8 112q4 27 6.5 60t5.5 69q1 4 3.5 23t2.5 33q0 26 -2 26t-29.5 -22.5t-56.5 -22.5q-32 0 -54 25t-22 67q0 20 13 35.5t40 38.5t42 39l48 54 q23 26 50 44.5t57 18.5zM2084 946q25 0 65.5 -31t53.5 -57q10 -22 10 -41q0 -41 -42.5 -64.5t-88.5 -23.5q-34 0 -72 22.5t-38 49.5q0 48 33.5 96.5t78.5 48.5zM1299 1413q27 0 63.5 -16.5t69 -43t47.5 -54.5q15 -25 40 -82q24 -56 24 -70q0 -63 -18.5 -120t-52.5 -91.5 t-77 -34.5q-17 0 -31 18q-13 17 -13 36q0 21 15 54q16 32 16 89q0 10 -13 54q-12 44 -19 44q-13 0 -28 -22t-15 -60q2 -6 5 -12t4 -11q2 -6 2 -14q0 -22 -11 -57q-14 -63 -14 -102q0 -14 2 -41t2 -43q0 -37 -4 -62q-2 -15 -5 -33q-4 -17 -5 -33q-2 -15 -2 -26q0 -13 6 -47 q7 -35 10 -63q229 61 373 67h90q129 -9 152 -57q4 -8 4 -27q0 -16 -4 -26q-14 -37 -43 -46.5t-82 -9.5q-25 0 -72 4t-70 4q-81 0 -193 -17q-111 -17 -159 -46q25 -170 29 -340q0 -30 2 -93q1 -63 2 -92q2 -41 8 -76q4 -36 10.5 -73.5t10.5 -65.5q6 -46 11.5 -132t9.5 -107 q5 -29 38 -56q4 -2 14.5 -11t21.5 -24q10 -14 18 -38t8 -56q0 -29 -28 -68q-27 -40 -53 -40q-68 0 -108 56t-58.5 150.5t-25.5 222.5t-12 232q-8 149 -25 322q-10 88 -20 236q-51 -10 -96 -34.5t-101 -63.5t-76 -50q-14 -8 -37 -8q-25 0 -41 8q-55 25 -55 111q0 48 57 81 t189.5 72t157.5 48q0 71 -9 219q-10 154 -10 184q0 68 10 117l22 127q12 68 28 120t44 85.5t70 33.5zM426 1413q27 0 63.5 -16.5t69 -43t47.5 -54.5q15 -25 40 -82q24 -56 24 -70q0 -63 -18.5 -120t-52.5 -91.5t-77 -34.5q-17 0 -31 18q-13 17 -13 36q0 21 15 54 q16 32 16 89q0 10 -13 54q-12 44 -19 44q-13 0 -28 -22t-15 -60q2 -6 5 -12t4 -11q2 -6 2 -14q0 -22 -11 -57q-14 -63 -14 -102q0 -14 2 -41t2 -43q0 -37 -4 -62q-2 -15 -5 -33q-4 -17 -5 -33q-2 -15 -2 -26q0 -13 6 -47q7 -35 10 -63q229 61 373 67h90q129 -9 152 -57 q4 -8 4 -27q0 -16 -4 -26q-14 -37 -43 -46.5t-82 -9.5q-25 0 -72 4t-70 4q-81 0 -193 -17q-111 -17 -159 -46q25 -170 29 -340q0 -30 2 -93q1 -63 2 -92q2 -41 8 -76q4 -36 10.5 -73.5t10.5 -65.5q6 -46 11.5 -132t9.5 -107q5 -29 38 -56q4 -2 14.5 -11t21.5 -24 q10 -14 18 -38t8 -56q0 -29 -28 -68q-27 -40 -53 -40q-68 0 -108 56t-58.5 150.5t-25.5 222.5t-12 232q-8 149 -25 322q-10 88 -20 236q-51 -10 -96 -34.5t-101 -63.5t-76 -50q-14 -8 -37 -8q-25 0 -41 8q-55 25 -55 111q0 48 57 81t189.5 72t157.5 48q0 71 -9 219 q-10 154 -10 184q0 68 10 117l22 127q12 68 28 120t44 85.5t70 33.5z" />
<glyph unicode="&#xfb04;" horiz-adv-x="2170" d="M2025 1377q98 0 98 -119q0 -25 -3 -50t-9.5 -69t-9.5 -70q-3 -20 -24 -203l-45 -392q-23 -208 -39.5 -371.5t-16.5 -190.5q0 -13 7 -37t7 -35q0 -36 -34 -52t-73 -16q-38 0 -72.5 67.5t-34.5 115.5q0 31 7 44t22.5 25t23 25t9.5 43q0 18 -1 31.5t-1 20.5q0 30 20 168 q17 104 29 212t21 206l17 204q9 105 13 141q4 37 4 58q0 24 -3 67t-3 62q0 57 19.5 86t71.5 29zM1299 1413q27 0 63.5 -16.5t69 -43t47.5 -54.5q15 -25 40 -82q24 -56 24 -70q0 -63 -18.5 -120t-52.5 -91.5t-77 -34.5q-17 0 -31 18q-13 17 -13 36q0 21 15 54q16 32 16 89 q0 10 -13 54q-12 44 -19 44q-13 0 -28 -22t-15 -60q2 -6 5 -12t4 -11q2 -6 2 -14q0 -22 -11 -57q-14 -63 -14 -102q0 -14 2 -41t2 -43q0 -37 -4 -62q-2 -15 -5 -33q-4 -17 -5 -33q-2 -15 -2 -26q0 -13 6 -47q7 -35 10 -63q229 61 373 67h90q129 -9 152 -57q4 -8 4 -27 q0 -16 -4 -26q-14 -37 -43 -46.5t-82 -9.5q-25 0 -72 4t-70 4q-81 0 -193 -17q-111 -17 -159 -46q25 -170 29 -340q0 -30 2 -93q1 -63 2 -92q2 -41 8 -76q4 -36 10.5 -73.5t10.5 -65.5q6 -46 11.5 -132t9.5 -107q5 -29 38 -56q4 -2 14.5 -11t21.5 -24q10 -14 18 -38t8 -56 q0 -29 -28 -68q-27 -40 -53 -40q-68 0 -108 56t-58.5 150.5t-25.5 222.5t-12 232q-8 149 -25 322q-10 88 -20 236q-51 -10 -96 -34.5t-101 -63.5t-76 -50q-14 -8 -37 -8q-25 0 -41 8q-55 25 -55 111q0 48 57 81t189.5 72t157.5 48q0 71 -9 219q-10 154 -10 184q0 68 10 117 l22 127q12 68 28 120t44 85.5t70 33.5zM426 1413q27 0 63.5 -16.5t69 -43t47.5 -54.5q15 -25 40 -82q24 -56 24 -70q0 -63 -18.5 -120t-52.5 -91.5t-77 -34.5q-17 0 -31 18q-13 17 -13 36q0 21 15 54q16 32 16 89q0 10 -13 54q-12 44 -19 44q-13 0 -28 -22t-15 -60 q2 -6 5 -12t4 -11q2 -6 2 -14q0 -22 -11 -57q-14 -63 -14 -102q0 -14 2 -41t2 -43q0 -37 -4 -62q-2 -15 -5 -33q-4 -17 -5 -33q-2 -15 -2 -26q0 -13 6 -47q7 -35 10 -63q229 61 373 67h90q129 -9 152 -57q4 -8 4 -27q0 -16 -4 -26q-14 -37 -43 -46.5t-82 -9.5q-25 0 -72 4 t-70 4q-81 0 -193 -17q-111 -17 -159 -46q25 -170 29 -340q0 -30 2 -93q1 -63 2 -92q2 -41 8 -76q4 -36 10.5 -73.5t10.5 -65.5q6 -46 11.5 -132t9.5 -107q5 -29 38 -56q4 -2 14.5 -11t21.5 -24q10 -14 18 -38t8 -56q0 -29 -28 -68q-27 -40 -53 -40q-68 0 -108 56 t-58.5 150.5t-25.5 222.5t-12 232q-8 149 -25 322q-10 88 -20 236q-51 -10 -96 -34.5t-101 -63.5t-76 -50q-14 -8 -37 -8q-25 0 -41 8q-55 25 -55 111q0 48 57 81t189.5 72t157.5 48q0 71 -9 219q-10 154 -10 184q0 68 10 117l22 127q12 68 28 120t44 85.5t70 33.5z" />
</font>
</defs>
</svg>
